<svg width="140" height="94" viewBox="0 0 140 94" fill="none" xmlns="http://www.w3.org/2000/svg">
<path d="M14.4093 26.7637C17.171 26.7637 18.0608 28.7582 18.7973 30.7527C19.1041 31.5812 26.315 51.3421 26.5298 51.9251C26.5912 52.0786 26.5605 52.3547 26.2843 52.4468C26.0082 52.5388 22.2953 54.0117 22.0805 54.0731C21.8657 54.1344 21.6509 54.0424 21.5589 53.8276C21.4668 53.6128 19.9326 49.3169 19.7485 48.8567C19.2268 48.8567 9.59184 48.8567 9.0702 48.8567C8.88609 49.3476 7.32117 53.6435 7.2598 53.8276C7.19843 54.0117 6.95295 54.1651 6.73816 54.0731C6.52336 53.981 2.74914 52.5388 2.53435 52.4468C2.31956 52.3547 2.2275 52.1093 2.28887 51.9251C2.56504 51.1887 9.6532 31.7653 10.0214 30.7527C10.7272 28.7889 11.6477 26.7637 14.4093 26.7637ZM1.73655 62.0818C1.52176 62.0818 1.33765 62.2659 1.33765 62.5114V67.1141C1.33765 67.3596 1.52176 67.5437 1.73655 67.5437H27.0821C27.2969 67.5437 27.481 67.3596 27.481 67.1141V62.5114C27.481 62.2659 27.2969 62.0818 27.0821 62.0818H1.73655ZM14.4093 33.2075L10.7885 44.0392H18.0608L14.44 33.2075H14.4093ZM108.703 49.1021C108.703 50.3295 108.028 51.1273 106.77 51.1273C106.279 51.1273 105.88 51.1273 105.236 50.9432V47.2304C105.512 47.169 106.126 47.1076 106.77 47.1076C108.059 47.1997 108.703 47.7827 108.703 49.1021ZM111.281 48.9487C111.281 46.6781 109.962 45.1131 107.139 45.1131C106.463 45.1131 105.973 45.1745 105.236 45.3586V42.0753C105.696 42.014 106.494 41.9526 107.353 41.9526C108.182 41.9526 109.225 42.014 110.146 42.106L110.207 40.2036C109.164 39.9581 107.66 39.8354 106.494 39.8354C105.328 39.8354 103.548 40.1115 102.689 40.357V52.4468C104.009 52.9377 105.328 53.1525 106.648 53.1525C109.685 53.1525 111.281 51.5262 111.281 48.9487ZM82.1612 48.2737C82.1612 49.9613 81.4861 51.066 80.3815 51.066C79.9212 51.066 79.6757 51.0353 79.1541 50.8819V45.8189C79.7371 45.5427 80.0439 45.5427 80.5042 45.5427C81.6089 45.512 82.1612 46.4326 82.1612 48.2737ZM73.7229 48.335C73.7229 46.4939 74.2752 45.512 75.3799 45.512C75.8401 45.512 76.147 45.512 76.73 45.7882V50.8512C76.2084 51.0353 75.9629 51.0353 75.5026 51.0353C74.2445 51.066 73.7229 50.0227 73.7229 48.335ZM79.1541 55.9142V52.6002C79.4609 52.7843 80.0746 53.0605 81.0872 53.0605C83.1431 53.0605 84.6467 51.3728 84.6467 48.243C84.6467 44.8983 83.1431 43.4562 80.6883 43.4562C80.0746 43.4562 79.645 43.5175 79.1541 43.763V39.866H76.7607V43.7937C76.2697 43.5482 75.8401 43.4868 75.2264 43.4868C72.7717 43.4868 71.2681 44.9904 71.2681 48.3043C71.2681 51.4035 72.6182 53.0605 74.8275 53.0605C75.8708 53.0605 76.4845 52.7843 76.7914 52.6002V55.9142H79.1541ZM60.8967 52.9071V44.0699C59.5772 43.671 58.5646 43.5175 57.2145 43.5175C55.8644 43.5175 54.8825 43.7016 53.563 44.0699V48.6112C53.563 49.8386 53.5324 50.2068 53.4096 50.6057C53.2869 50.9432 53.1028 51.3728 52.6118 51.7104L53.2562 53.1218C55.1893 52.5695 55.9258 51.741 55.9258 49.0408V45.6961C56.5701 45.6041 56.6929 45.5734 57.2145 45.5734C57.7362 45.5734 57.8282 45.6041 58.4726 45.6961V52.9071H60.8967ZM90.5995 50.9739C90.0778 51.158 89.7096 51.1887 89.3107 51.1887C88.4516 51.1887 87.9606 50.8512 87.9606 49.9613C87.9606 49.0408 88.5743 48.7339 89.771 48.7339C90.0471 48.7339 90.354 48.7646 90.4767 48.826V49.5011C90.4767 50.2068 90.5074 50.6671 90.5995 50.9739ZM93.668 52.0479C93.0236 51.066 92.8701 50.5136 92.8701 49.2863V46.8008C92.8701 45.4814 92.7167 44.9904 92.3485 44.4688C91.8576 43.7937 91.0598 43.4868 89.5255 43.4868C88.4516 43.4868 87.4083 43.6096 86.4264 43.8551L86.7946 45.6348C87.4696 45.5427 88.1754 45.4507 88.697 45.4507C90.2926 45.4507 90.4767 45.6961 90.4767 46.8928V47.3531C90.1085 47.2611 89.7096 47.1997 89.2494 47.1997C86.8253 47.1997 85.5672 48.3657 85.5672 50.3295C85.5672 52.1399 86.9173 53.1525 88.5743 53.1525C89.188 53.1525 89.8324 53.0298 90.354 52.815C90.6609 52.6923 90.7836 52.6002 91.1825 52.324C91.428 52.6923 91.9189 53.0298 92.103 53.0912L93.668 52.0479ZM117.203 50.9739C116.681 51.158 116.313 51.1887 115.914 51.1887C115.055 51.1887 114.564 50.8512 114.564 49.9613C114.564 49.0408 115.178 48.7339 116.375 48.7339C116.681 48.7339 116.958 48.7646 117.08 48.826V49.5011C117.08 50.2068 117.142 50.6671 117.203 50.9739ZM120.272 52.0479C119.627 51.066 119.474 50.5136 119.474 49.2863V46.8008C119.474 45.4814 119.32 44.9904 118.983 44.4688C118.492 43.7937 117.663 43.4868 116.16 43.4868C115.086 43.4868 114.043 43.6096 113.061 43.8551L113.429 45.6348C114.104 45.5427 114.81 45.4507 115.331 45.4507C116.927 45.4507 117.111 45.6961 117.111 46.8928V47.3531C116.774 47.2611 116.344 47.1997 115.884 47.1997C113.46 47.1997 112.202 48.3657 112.202 50.3295C112.202 52.1399 113.552 53.1525 115.209 53.1525C115.822 53.1525 116.467 53.0298 116.988 52.815C117.295 52.6923 117.418 52.6002 117.817 52.324C118.062 52.6923 118.553 53.0298 118.737 53.0912L120.272 52.0479ZM67.7394 49.7465C67.7394 50.6364 67.4325 51.2808 66.2665 51.2808C65.8676 51.2808 65.7142 51.2808 65.2232 51.1273V48.4885C65.8676 48.3657 65.8983 48.335 66.2665 48.335C67.3712 48.335 67.7394 48.8874 67.7394 49.7465ZM62.7991 43.6403V52.4161C63.9345 52.9071 65.1925 53.1218 66.3279 53.1218C68.9054 53.1218 70.2555 51.8024 70.2555 49.6238C70.2555 47.66 69.0281 46.4326 66.7575 46.4326C66.1745 46.4326 65.8369 46.4939 65.2232 46.6474V43.6403H62.7991ZM129.109 52.9071V43.7323H126.685V47.1997H123.954V43.7323H121.53V52.9071H123.954V49.1635H126.685V52.9071H129.109ZM139.02 52.9071C139.02 52.9071 137.701 50.0841 137.394 49.4704C137.025 48.7646 136.688 48.243 135.951 48.0589V48.0282C136.442 47.9361 136.841 47.6293 137.271 46.7087C137.67 45.8189 137.793 45.6041 138.038 45.42C138.284 45.2052 138.59 45.2972 138.59 45.2972L138.713 43.6403C138.376 43.5789 137.977 43.5789 137.578 43.6096C136.933 43.6403 136.596 43.8244 136.258 44.1619C136.013 44.4074 135.829 44.7756 135.614 45.2052C135.399 45.6655 135.215 46.0337 134.97 46.5246C134.724 47.0156 134.632 47.2304 133.988 47.2304H133.589V43.7323H131.165V52.9071H133.589V49.1635H133.926C134.601 49.1635 134.724 49.3476 135.092 50.0534C135.522 50.9125 136.32 52.9071 136.32 52.9071H139.02ZM49.0831 52.9071H51.8754L47.6716 40.0808C47.242 39.9274 46.6897 39.8354 46.1066 39.8354C45.4623 39.8354 45.2475 39.9274 44.7565 40.0808L40.3072 52.9071H42.9768C42.9768 52.9071 43.345 51.7717 43.7746 50.3909H48.3773C48.7455 51.8024 49.0831 52.9071 49.0831 52.9071ZM44.3883 48.243C44.3883 48.243 45.1554 45.6655 45.2782 45.2666C45.585 44.2233 46.0453 42.5663 46.0453 42.5663H46.1066C46.1066 42.5663 46.5362 44.2847 46.8124 45.2359C46.9351 45.6041 47.6716 48.2123 47.6716 48.2123H44.3883V48.243ZM97.7797 46.7701C96.9205 46.7701 96.2455 47.4759 96.2455 48.3043C96.2455 49.1635 96.9205 49.8386 97.7797 49.8386C98.6389 49.8386 99.3139 49.1635 99.3139 48.3043C99.3139 47.4759 98.6082 46.7701 97.7797 46.7701Z" fill="#191816"/>
</svg>
