<svg width="120" height="94" viewBox="0 0 120 94" fill="none" xmlns="http://www.w3.org/2000/svg">
<g clip-path="url(#clip0_2547_40834)">
<path d="M112.938 39.6982C114.848 39.6982 116.44 40.2553 117.554 41.4491C118.748 42.5633 119.305 44.3142 119.305 46.5426V55.3767H114.848V47.2589C114.848 46.0651 114.609 45.11 114.052 44.4734C113.495 43.8367 112.699 43.5979 111.744 43.5979C110.63 43.5979 109.675 43.9162 109.038 44.6325C108.402 45.3488 108.004 46.3834 108.004 47.7364V55.3767H103.547V39.9369H107.845V41.7674C108.402 41.1307 109.197 40.5736 110.073 40.2553C110.948 39.8574 111.903 39.6982 112.938 39.6982Z" fill="#191816"/>
<path d="M92.0863 51.9545C93.2005 51.9545 94.1555 51.5566 94.9514 50.7607C95.6677 49.9649 96.0656 48.9302 96.0656 47.6569C96.0656 46.3835 95.6677 45.3489 94.9514 44.553C94.2351 43.7571 93.2801 43.3592 92.0863 43.3592C90.9721 43.3592 90.017 43.7571 89.2212 44.553C88.5049 45.3489 88.107 46.3835 88.107 47.6569C88.107 48.9302 88.5049 49.9649 89.2212 50.7607C89.9375 51.5566 90.8925 51.9545 92.0863 51.9545ZM92.0863 55.6155C90.415 55.6155 88.9824 55.2971 87.709 54.5809C86.4357 53.8646 85.401 52.9891 84.6848 51.7158C83.9685 50.522 83.5706 49.169 83.5706 47.5773C83.5706 46.0651 83.9685 44.6326 84.6848 43.4388C85.401 42.245 86.4357 41.29 87.709 40.5737C88.9824 39.8574 90.4946 39.5391 92.0863 39.5391C93.7576 39.5391 95.1901 39.8574 96.4635 40.5737C97.7369 41.29 98.7715 42.1654 99.4878 43.4388C100.204 44.6326 100.602 45.9856 100.602 47.5773C100.602 49.0894 100.204 50.522 99.4878 51.7158C98.7715 52.9095 97.7369 53.8646 96.4635 54.5809C95.1106 55.2971 93.678 55.6155 92.0863 55.6155Z" fill="#191816"/>
<path d="M80.4666 39.937H76.0098V55.4563H80.4666V39.937Z" fill="#191816"/>
<path d="M63.3556 50.9995C64.5494 50.9995 65.5044 50.6811 66.3003 49.9649C67.0961 49.2486 67.4145 48.3731 67.4145 47.1794C67.4145 46.0651 67.0165 45.1101 66.3003 44.3938C65.5044 43.6776 64.5494 43.3592 63.3556 43.3592C62.1618 43.3592 61.2067 43.6776 60.4109 44.3938C59.615 45.1101 59.2967 45.9856 59.2967 47.1794C59.2967 48.2936 59.6946 49.2486 60.4109 49.9649C61.1272 50.6016 62.1618 50.9995 63.3556 50.9995ZM71.7917 39.937V52.83C71.7917 55.6951 71.0754 57.7643 69.5633 59.1969C68.0512 60.5498 65.9023 61.2661 63.1168 61.2661C61.6047 61.2661 60.1721 61.1069 58.8192 60.709C57.4662 60.3111 56.352 59.8336 55.4765 59.1173L58.262 56.5705C58.7396 56.8093 59.2171 57.048 59.7742 57.2072C60.8088 57.5256 61.7638 57.6847 62.7985 57.6847C64.3902 57.6847 65.5044 57.3664 66.2207 56.6501C66.9369 55.9338 67.3349 54.8992 67.3349 53.4667V52.83C66.1411 54.1034 64.5494 54.74 62.4005 54.74C60.968 54.74 59.6946 54.4217 58.5008 53.785C57.307 53.1483 56.352 52.2729 55.7153 51.1587C54.999 50.0445 54.6807 48.6915 54.6807 47.2589C54.6807 45.7468 54.999 44.4734 55.7153 43.3592C56.4316 42.245 57.307 41.3696 58.5008 40.7329C59.6946 40.0962 60.968 39.7778 62.4005 39.7778C64.6289 39.7778 66.3798 40.4941 67.4941 42.0062V40.0166H71.7917V39.937Z" fill="#191816"/>
<path d="M44.8119 43.1204C43.7773 43.1204 42.9018 43.4388 42.2651 43.9959C41.5488 44.553 41.1509 45.3489 40.9917 46.3835H48.632C48.4728 45.4284 48.0749 44.6326 47.3586 44.0755C46.6424 43.3592 45.8465 43.1204 44.8119 43.1204ZM52.8501 47.7364C52.8501 47.816 52.8501 48.214 52.7705 48.9302H41.0713C41.3101 49.8853 41.7876 50.6811 42.5835 51.2382C43.3793 51.7953 44.3344 52.0341 45.5282 52.0341C46.324 52.0341 47.0403 51.8749 47.677 51.6362C47.9157 51.5566 48.1545 51.3974 48.3933 51.2382L50.8604 53.9442C49.5075 55.0584 47.677 55.6155 45.369 55.6155C43.6181 55.6155 42.1059 55.2971 40.753 54.5809C39.4 53.8646 38.3654 52.9891 37.6491 51.7158C36.9328 50.522 36.5349 49.169 36.5349 47.5773C36.5349 46.0651 36.9328 44.7122 37.6491 43.4388C38.3654 42.245 39.3204 41.29 40.5938 40.5737C41.8672 39.8574 43.2202 39.5391 44.8119 39.5391C46.324 39.5391 47.677 39.8574 48.9504 40.4941C50.1442 41.1308 51.1788 42.0858 51.8155 43.2796C52.5317 44.7122 52.8501 46.1447 52.8501 47.7364Z" fill="#191816"/>
<path d="M8.28185 43.1204C7.24723 43.1204 6.37178 43.4388 5.73509 43.9959C5.01882 44.553 4.62088 45.3489 4.46171 46.3835H12.102C11.9428 45.4284 11.5449 44.6326 10.8286 44.0755C10.1123 43.3592 9.31647 43.1204 8.28185 43.1204ZM16.3201 47.7364C16.3201 47.816 16.3201 48.214 16.2405 48.9302H4.5413C4.78006 49.8853 5.25757 50.6811 6.05344 51.2382C6.8493 51.7954 7.80433 52.0341 8.99813 52.0341C9.79399 52.0341 10.5103 51.8749 11.147 51.6362C11.3857 51.5566 11.6245 51.3974 11.8632 51.2382L14.3304 53.9442C12.9774 55.0584 11.147 55.6155 8.83895 55.6155C7.08806 55.6155 5.57592 55.2971 4.22295 54.5809C2.86999 53.8646 1.83537 52.9891 1.11909 51.7158C0.402814 50.6016 0.00488281 49.169 0.00488281 47.6569C0.00488281 46.1447 0.402814 44.7918 1.11909 43.5184C1.83537 42.3246 2.7904 41.3695 4.06378 40.6533C5.33716 39.937 6.69013 39.6187 8.28185 39.6187C9.79399 39.6187 11.147 39.937 12.4203 40.5737C13.6141 41.2104 14.6488 42.1654 15.2854 43.3592C16.0017 44.7122 16.3201 46.1447 16.3201 47.7364Z" fill="#191816"/>
<path d="M33.4312 34.0476H28.9744V55.4563H33.4312V34.0476Z" fill="#191816"/>
<path d="M20.3789 49.2485C20.936 49.8056 21.8114 50.2036 22.6869 50.2036C23.5623 50.2036 24.3582 49.8056 24.9949 49.2485C25.552 48.6914 25.9499 47.816 25.9499 46.9405C25.9499 46.0651 25.552 45.1896 24.9949 44.6325C24.4378 44.0754 23.5623 43.6775 22.6869 43.6775C21.8114 43.6775 21.0156 44.0754 20.3789 44.6325C19.8218 45.1896 19.4238 46.0651 19.4238 46.9405C19.4238 47.816 19.7422 48.6118 20.3789 49.2485Z" fill="#191816"/>
<path d="M76.2483 36.9127C76.7258 37.3902 77.4421 37.7086 78.2379 37.7086C79.0338 37.7086 79.6705 37.3902 80.2276 36.9127C80.7051 36.4352 81.0234 35.7189 81.0234 34.923C81.0234 34.1272 80.7051 33.4109 80.2276 32.9334C79.7501 32.4559 79.0338 32.1375 78.2379 32.1375C77.4421 32.1375 76.8054 32.4559 76.2483 32.9334C75.7707 33.4109 75.4524 34.1272 75.4524 34.923C75.4524 35.7189 75.7707 36.4352 76.2483 36.9127Z" fill="#191816"/>
</g>
<defs>
<clipPath id="clip0_2547_40834">
<rect width="119.427" height="93.2114" fill="white" transform="translate(0.00488281 0.0960693)"/>
</clipPath>
</defs>
</svg>
