<svg width="78" height="87" viewBox="0 0 78 87" fill="none" xmlns="http://www.w3.org/2000/svg">
<g clip-path="url(#clip0_2547_40857)">
<path d="M15.1928 44.3588L15.2024 49.2876C15.2024 50.538 15.833 51.1632 17.0942 51.1632H17.6459C18.9071 51.1632 19.5377 50.538 19.5377 49.2876V46.865H22.4541V49.1705C22.4541 52.3356 20.8383 53.9376 17.6459 53.9376H17.0153C13.8229 53.9376 12.207 52.3356 12.207 49.541V37.5059C12.207 33.9702 13.8229 32.368 17.0153 32.368H17.6459C20.8383 32.368 22.4541 33.9702 22.4541 37.1353L22.4446 44.3587L15.1928 44.3588ZM15.2024 41.4992H19.4588V37.018C19.4588 35.7676 18.8282 35.1424 17.5672 35.1424H17.0942C15.833 35.1424 15.2024 35.7676 15.2024 37.018V41.4992Z" fill="#191816"/>
<path d="M24.4002 32.6025H27.3956V33.9702C27.8626 33.4676 28.4291 33.0659 29.0598 32.7902C29.6905 32.5145 30.3717 32.3708 31.061 32.368C33.6228 32.368 34.884 34.0482 34.884 36.549V49.7565C34.884 52.2573 33.6228 53.9376 31.061 53.9376C30.3785 53.9378 29.7029 53.8031 29.0735 53.5414C28.4442 53.2798 27.8738 52.8964 27.3956 52.4136V59.2209H24.4002V32.6025ZM27.3956 50.0301C28.1518 50.7132 29.1318 51.1018 30.1545 51.1241C31.258 51.1241 31.8886 50.6162 31.8886 49.4049V36.9009C31.8886 35.6894 31.258 35.1815 30.1545 35.1815C29.1317 35.2038 28.1517 35.5925 27.3956 36.2757V50.0301Z" fill="#191816"/>
<path d="M36.692 46.3569C36.692 43.739 37.5591 42.684 39.845 41.9025L43.865 40.5348V37.018C43.865 35.7676 43.2344 35.1033 41.9732 35.1033H41.4852C40.224 35.1033 39.5934 35.7676 39.5934 37.018V40.0067H36.6769V37.1353C36.6769 33.9702 38.2928 32.368 41.4852 32.368H42.0519C45.2444 32.368 46.8604 33.9702 46.8604 37.1353V53.7031H43.865V52.3745C43.3927 52.8676 42.8243 53.2605 42.1942 53.5292C41.5641 53.7979 40.8855 53.9368 40.1996 53.9376C37.7956 53.9376 36.692 52.5699 36.692 50.2255L36.692 46.3569ZM43.865 50.1473V43.1872L41.1456 44.2079C40.042 44.6378 39.6873 45.1848 39.6873 46.3961V49.6003C39.6873 50.6162 40.1996 51.1241 41.1456 51.1241C42.0519 51.1241 42.8798 50.8116 43.865 50.1473Z" fill="#191816"/>
<path d="M58.9749 53.7031H55.9795V36.7055C55.9795 35.6504 55.4672 35.1815 54.5607 35.1815C53.7331 35.1815 52.866 35.494 51.8018 36.2365V53.7031H48.8064V32.6025H51.8018V33.9702C52.6689 33.1496 53.812 32.368 55.4672 32.368C57.0042 32.368 58.0291 32.9932 58.5808 34.0873C59.6449 33.1886 60.9061 32.368 62.6403 32.368C64.9656 32.368 66.1479 33.7748 66.1479 36.0803V53.7031H63.1525V36.7055C63.1525 35.6504 62.6403 35.1815 61.7337 35.1815C60.9061 35.1815 60.039 35.494 58.9749 36.2365V53.7031Z" fill="#191816"/>
<path d="M8.3678 34.5459V38.426L3.32693 43.1884L8.3678 47.8656V51.8306L0.671875 44.6582V41.8035L8.3678 34.5459Z" fill="#191816"/>
<path d="M77.6439 41.8035V44.6582L69.948 51.8306V47.8656L74.9889 43.1884L69.948 38.426V34.5459L77.6439 41.8035Z" fill="#191816"/>
</g>
<defs>
<clipPath id="clip0_2547_40857">
<rect width="77.1907" height="85.9293" fill="white" transform="translate(0.671875 0.144531)"/>
</clipPath>
</defs>
</svg>
