<svg width="148" height="94" viewBox="0 0 148 94" fill="none" xmlns="http://www.w3.org/2000/svg">
<g clip-path="url(#clip0_2547_40835)">
<path d="M131.668 39.942V43.2937H137.647V53.6206H141.632V43.2937H147.611V39.942" fill="#191816"/>
<path d="M110.652 39.942H114.638V49.4536L122.247 41.9349C122.609 41.5726 124.149 39.942 125.417 39.942H128.226V53.6206H124.24V45.1054L117.627 51.6277C116.812 52.4429 115.453 53.6206 113.913 53.6206H110.652V39.942Z" fill="#191816"/>
<path d="M121.794 35.0504C121.794 36.0468 121.522 36.6809 119.439 36.6809C117.355 36.6809 117.083 36.0468 117.083 35.0504H114.366C114.366 37.7679 115.906 38.4926 119.439 38.4926C122.972 38.4926 124.512 37.7679 124.512 35.0504H121.794Z" fill="#191816"/>
<path d="M104.311 53.6206H108.297L101.593 41.1196C101.14 40.2138 100.234 39.6703 99.2379 39.6703H97.4262C96.4298 39.6703 95.5239 40.2138 95.071 41.1196L88.3676 53.6206H92.3534L93.9839 50.5406H102.771L104.311 53.6206ZM95.5239 47.4607L98.3321 42.2067L101.14 47.4607H95.5239Z" fill="#191816"/>
<path d="M82.0265 49.9065C81.5736 50.45 80.4865 50.5406 78.856 50.5406H75.6855C74.689 50.5406 73.6926 50.45 73.149 49.9971C72.5149 49.4536 72.3338 48.4571 72.3338 46.736C72.3338 45.0149 72.5149 44.0184 73.149 43.4749C73.6926 43.022 74.689 42.9314 75.6855 42.9314H78.856C80.4865 42.9314 81.5736 43.1125 82.0265 43.5655C82.2983 43.8372 82.3889 44.3808 82.3889 44.6525H86.4652C86.4652 43.4749 86.2841 41.7538 85.1065 40.7573C83.8382 39.6703 81.9359 39.4891 77.2254 39.4891C74.5078 39.4891 70.6126 39.3985 69.3444 40.9385C68.2574 42.2973 68.2574 44.1996 68.2574 46.6454C68.2574 49.0913 68.348 50.9936 69.3444 52.3524C70.6126 53.8923 74.5078 53.8017 77.2254 53.8017C81.9359 53.8017 83.8382 53.7112 85.1065 52.5335C86.1935 51.5371 86.4652 49.8159 86.4652 48.6383H82.3889C82.4794 49.1818 82.2983 49.6348 82.0265 49.9065Z" fill="#191816"/>
<path d="M63.7281 40.5761C62.7316 39.8514 60.1952 39.6703 56.8435 39.6703C53.22 39.6703 49.1436 39.8514 49.1436 39.8514V53.6206H53.1294V50.6312H56.8435C60.014 50.6312 62.7316 50.45 63.7281 49.7254C64.7245 48.9101 65.0869 47.2795 65.0869 45.196C64.9963 43.2031 64.6339 41.3914 63.7281 40.5761ZM60.5575 47.0078C60.1952 47.2795 59.0176 47.3701 56.7529 47.3701H53.0389V42.8408H56.7529C58.2023 42.8408 60.2858 43.022 60.5575 43.2937C60.9199 43.5655 61.1011 44.3808 61.1011 45.1054C61.0105 45.9207 60.9199 46.736 60.5575 47.0078Z" fill="#191816"/>
<path d="M44.0708 41.0291C42.8026 39.4891 38.998 39.5797 36.0992 39.5797C33.291 39.5797 29.3958 39.4891 28.1276 41.0291C27.1311 42.3879 27.0406 44.4713 27.0406 46.736C27.0406 49.9065 27.3123 51.5371 28.3088 52.5335C29.8487 54.0735 33.3816 53.9829 36.0992 53.9829C38.8168 53.9829 42.4403 54.0735 43.9802 52.5335C44.8861 51.5371 45.2484 49.9065 45.2484 46.736C45.2484 44.4713 45.1578 42.3879 44.0708 41.0291ZM40.2662 50.0877C39.6321 50.45 38.9074 50.5406 37.7298 50.5406H34.3781C33.291 50.5406 32.4757 50.45 31.9322 50.0877C31.2981 49.5442 31.0264 48.6383 31.0264 46.736C31.0264 45.0149 31.2075 44.0184 31.8416 43.3843C32.3852 43.022 33.3816 42.8408 34.3781 42.8408H37.7298C38.7262 42.8408 39.7227 42.9314 40.3568 43.3843C40.9909 43.9278 41.172 45.0149 41.172 46.736C41.172 48.6383 40.9909 49.6348 40.2662 50.0877Z" fill="#191816"/>
<path d="M22.6924 40.6667C21.7865 39.942 18.9784 39.5797 12.5467 39.5797C6.02451 39.5797 3.03516 39.942 2.12929 40.6667C1.13284 41.482 0.861084 43.1125 0.861084 45.0149C0.861084 47.1889 1.22343 48.9101 2.21988 49.7254C3.21633 50.45 4.48454 50.6312 7.65507 50.6312H10.4632V53.6206H14.449V50.6312H17.1666C20.3372 50.6312 21.696 50.45 22.6018 49.7254C23.5983 48.9101 23.9606 47.1889 23.9606 45.0149C24.0512 43.1125 23.6889 41.482 22.6924 40.6667ZM10.4632 47.4607H7.65507C5.3904 47.4607 5.57158 47.3701 5.20923 47.0983C4.84689 46.8266 4.7563 45.9207 4.7563 45.196C4.7563 44.5619 4.84689 43.4749 5.29982 43.2937C5.57158 43.022 6.20568 42.8408 7.65507 42.8408H10.4632V47.4607ZM19.6125 47.0983C19.2501 47.3701 19.4313 47.4607 17.1666 47.4607H14.449V42.7502H17.1666C18.616 42.7502 19.2501 42.9314 19.5219 43.2031C19.8842 43.4749 20.0654 44.4713 20.0654 45.1054C20.0654 45.9207 19.9748 46.8266 19.6125 47.0983Z" fill="#191816"/>
</g>
<defs>
<clipPath id="clip0_2547_40835">
<rect width="147.099" height="93.2114" fill="white" transform="translate(0.861084 0.0960693)"/>
</clipPath>
</defs>
</svg>
