<svg width="111" height="94" viewBox="0 0 111 94" fill="none" xmlns="http://www.w3.org/2000/svg">
<path d="M34.3923 43.5663H41.295V45.8278H38.0113V61.7179H34.3923V43.5663Z" fill="#191816"/>
<path fill-rule="evenodd" clip-rule="evenodd" d="M44.923 61.7179H41.3796L43.267 43.5663H48.956L50.8434 61.7179H47.3015L46.9647 56.8973H45.2583L44.923 61.7179ZM46.0076 45.8278L45.3874 54.9036H46.8356L46.2154 45.8278H46.0076Z" fill="#191816"/>
<path d="M56.0264 55.3649V58.7869C56.0264 59.2481 56.3825 59.382 56.5902 59.382C56.9315 59.382 57.1689 59.0993 57.1689 58.7869V54.5614C57.1689 53.996 57.065 53.3712 55.7147 53.3712H54.2458V51.3774H55.7741C56.7979 51.3774 57.1689 51.1394 57.1689 50.0235V46.4229C57.1689 46.1105 56.9315 45.8278 56.5902 45.8278C56.3825 45.8278 56.0264 45.9468 56.0264 46.4229V49.3837H52.4058V46.8098C52.4058 45.5451 52.5542 43.5663 55.0915 43.5663H58.0889C60.6262 43.5663 60.7894 45.5451 60.7894 46.8098V49.7111C60.7894 51.6899 59.4095 52.2255 58.3263 52.1809V52.3594C60.7597 52.2999 60.7894 54.1746 60.7894 54.8144V58.4744C60.7894 59.754 60.6262 61.7179 58.0889 61.7179H55.0915C52.5542 61.7179 52.4058 59.754 52.4058 58.4744V55.3649H56.0264Z" fill="#191816"/>
<path d="M63.1635 43.5663H71.5471V61.7179H67.9266V45.8278H66.784V61.7179H63.1635V43.5663Z" fill="#191816"/>
<path fill-rule="evenodd" clip-rule="evenodd" d="M77.5417 61.7179H73.9212V43.5663H79.619C82.1415 43.5663 82.3047 45.5451 82.3047 46.8098V52.2999C82.3047 53.5794 82.1415 55.5434 79.619 55.5434H77.5417V61.7179ZM77.5417 45.8278V53.5497H78.0165C78.4023 53.5497 78.6842 53.2224 78.6842 52.6421V46.7354C78.6842 46.1551 78.4023 45.8278 78.0165 45.8278H77.5417Z" fill="#191816"/>
<path fill-rule="evenodd" clip-rule="evenodd" d="M87.3645 61.7179C84.8421 61.7179 84.6788 59.754 84.6788 58.4744V46.8098C84.6788 45.5451 84.8421 43.5663 87.3645 43.5663H90.3767C92.8992 43.5663 93.0624 45.5451 93.0624 46.8098V58.4744C93.0624 59.754 92.8992 61.7179 90.3767 61.7179H87.3645ZM88.8632 59.382C89.2045 59.382 89.4419 59.0993 89.4419 58.7869V46.4229C89.4419 46.1105 89.2045 45.8278 88.8632 45.8278C88.6555 45.8278 88.2994 45.9468 88.2994 46.4229V58.7869C88.2994 59.2481 88.6555 59.382 88.8632 59.382Z" fill="#191816"/>
<path d="M104.844 43.5663H109.562V61.7179H105.942V50.336H105.808L103.939 61.7179H101.045L99.1906 50.336H99.057V61.7179H95.4365V43.5663H100.14L102.499 56.3319L104.844 43.5663Z" fill="#191816"/>
<path fill-rule="evenodd" clip-rule="evenodd" d="M29.7005 18.7491C28.7087 14.396 26.3806 10.7695 25.6273 9.59598C25.5387 9.45794 25.4718 9.35384 25.4315 9.2865C24.8261 10.1941 22.6108 13.6905 21.4846 17.5589C20.2545 21.8885 20.0735 25.7271 20.4979 29.4913C20.9193 33.2704 22.5114 37.1537 22.5114 37.1537C23.3572 39.1772 24.6243 41.3643 25.4494 42.4355C26.6587 40.8584 29.4379 36.1569 30.3044 30.027C30.7866 26.6049 30.8074 23.6144 29.7005 18.7491ZM25.4315 41.2155C24.887 40.1889 24.0412 38.2398 23.9611 35.2046C23.9403 32.2885 25.1081 29.774 25.4494 29.2533C25.7535 29.774 26.7596 31.9612 26.8797 34.9517C26.9614 37.8679 25.9939 40.174 25.4315 41.2155ZM28.8339 32.0058C29.1159 30.8304 29.337 28.8664 29.3785 27.0066C29.4171 25.1617 29.2346 22.0075 28.3309 18.7194C27.4228 15.4313 25.6719 12.2919 25.4108 11.8902C25.1496 12.2919 23.7593 14.8361 22.5307 18.8087C22.2087 19.9989 21.6211 22.6026 21.5232 25.1171C21.4059 28.1672 21.8214 31.2172 21.9876 32.0653C21.9876 31.0536 22.0054 27.6762 22.6316 24.8939C23.2548 22.1117 24.4448 18.8979 25.4108 17.2613C26.4569 18.9723 27.7671 22.6919 28.23 24.9088C28.693 27.1406 28.9348 29.9823 28.8339 32.0058Z" fill="#191816"/>
<path d="M18.8849 43.5663V49.235C18.8924 49.235 18.8983 49.2201 18.9057 49.2201C20.8911 47.2264 24.1109 47.2264 26.0978 49.2201C28.0831 51.1989 28.0831 54.4275 26.0978 56.4212C26.0889 56.4361 26.08 56.4361 26.0711 56.451C26.0607 56.451 26.0503 56.4659 26.0414 56.4807C24.0605 58.4447 21.4727 59.4267 18.8849 59.4267C16.2853 59.4267 13.6857 58.4447 11.7033 56.451C8.2074 52.9545 7.79342 47.5239 10.4583 43.5663C10.8174 43.0307 11.2314 42.5248 11.7033 42.0487C13.6857 40.055 16.2853 39.073 18.8849 39.073V25.4444C8.8959 25.4444 0.798706 33.5531 0.798706 43.5663C0.798706 53.5794 8.8959 61.703 18.8849 61.703C24.0931 61.703 28.785 59.4862 32.085 55.96V43.5663H18.8849Z" fill="#191816"/>
</svg>
