<svg width="202" height="83" viewBox="0 0 202 83" fill="none" xmlns="http://www.w3.org/2000/svg">
<path d="M80.8861 42.8013C81.4401 40.4191 83.2202 39.3818 85.2663 39.3818C87.3125 39.3818 89.3179 40.4117 89.5875 42.8013H80.8861ZM92.3317 50.3295L92.6234 47.0508C87.8147 49.6923 81.8759 50.0628 80.9747 45.4391H93.1184V43.9757C92.9706 38.9965 89.1776 36.5364 85.2663 36.5364C81.2665 36.5364 77.3553 39.0854 77.3553 44.2684C77.3553 52.1152 85.7613 53.7231 92.3317 50.3295Z" fill="#191816"/>
<path d="M63.2209 42.8013C63.7749 40.4191 65.5551 39.3818 67.6012 39.3818C69.6436 39.3818 71.6528 40.4117 71.9224 42.8013H63.2209ZM74.6628 50.3295L74.9546 47.0508C70.1459 49.6923 64.207 50.0628 63.3058 45.4391H75.4495V43.9757C75.3018 38.9965 71.5087 36.5364 67.5975 36.5364C63.5976 36.5364 59.6864 39.0854 59.6864 44.2684C59.6864 52.1152 68.0961 53.7231 74.6628 50.3295Z" fill="#191816"/>
<path d="M99.072 30.4457H95.7148V51.5892H99.072V45.0872C100.357 45.0872 101.351 45.0872 102.37 46.0245C103.799 47.4879 104.852 49.3626 105.816 51.5892H109.668C108.734 48.6031 105.786 43.9461 102.662 43.9461V43.5052C105.232 43.5052 108.383 39.4633 109.229 36.9477H105.698C104.882 38.7038 103.799 40.3154 102.311 41.6343C101.318 42.5716 100.121 42.542 99.072 42.542V30.4457Z" fill="#191816"/>
<path d="M116.072 40.1375V34.6914H121.036C123.692 34.6914 124.715 36.04 124.715 37.4145C124.715 38.763 123.692 40.1375 121.036 40.1375H116.072ZM116.072 48.5105V43.0644H121.852C124.508 43.0644 125.531 44.4129 125.531 45.7874C125.531 47.136 124.453 48.5105 121.793 48.5105H116.072ZM121.764 31.6164H112.567V51.5855H122.639C126.931 51.5855 129.091 49.1551 129.091 46.2283C129.091 43.6497 127.223 41.8084 124.043 41.6009V41.1341C127.078 40.5784 128.216 38.6741 128.216 36.6846C128.216 33.9875 126.115 31.6164 121.764 31.6164Z" fill="#191816"/>
<path d="M131.673 36.944V51.5855H135.03V41.7491C136.286 40.4895 137.918 40.0523 140.578 40.0523H141.922L141.66 36.6846H140.581C138.362 36.6846 136.26 37.6516 135.444 39.6707H135.034V36.944H131.673Z" fill="#191816"/>
<path d="M146.014 44.2647C146.014 41.0452 147.835 39.404 150.287 39.404C152.271 39.404 153.656 40.019 154.882 41.2786V47.2508C153.656 48.5105 152.271 49.1255 150.287 49.1255C147.839 49.1255 146.014 47.4879 146.014 44.2647ZM154.885 36.944V39.0817H154.505C153.19 37.3552 151.661 36.4772 149.412 36.4772C144.829 36.4772 142.539 40.1968 142.539 44.2647C142.539 48.3326 144.829 52.0523 149.412 52.0523C151.661 52.0523 153.19 51.1742 154.505 49.4478H154.885V51.5855H158.243V36.944H154.885Z" fill="#191816"/>
<path d="M162.283 51.5855H165.64V36.944H162.283V51.5855ZM163.978 35.073C165.378 35.073 166.313 34.1357 166.313 32.7316C166.313 31.3275 165.378 30.3901 163.978 30.3901C162.579 30.3901 161.644 31.3275 161.644 32.7316C161.641 34.1357 162.575 35.073 163.978 35.073Z" fill="#191816"/>
<path d="M173.042 36.944H169.685V51.5855H173.042V41.2786C174.268 40.0783 175.624 39.404 177.256 39.404C179.036 39.404 180.713 40.4006 180.713 43.3867V51.5855H184.07V42.6272C184.07 38.8483 182.305 36.4772 178.659 36.4772C176.676 36.4772 174.678 37.3256 173.363 39.2002H173.042V36.944Z" fill="#191816"/>
<path d="M186.888 41.1934C186.888 43.7979 189.311 44.8241 191.18 45.2354L195.471 46.1431C196.871 46.4357 197.514 46.847 197.514 47.5472C197.514 48.6031 196.055 49.0995 193.924 49.0995C191.412 49.0995 188.524 48.1326 186.918 47.2545L187.209 50.5629C189.078 51.5299 191.501 52.056 193.747 52.056C197.92 52.056 201.015 50.6815 201.015 47.399C201.015 44.7352 198.795 43.7386 196.199 43.1829L192.288 42.3641C191.062 42.1011 190.389 41.6899 190.389 40.9897C190.389 39.9931 191.704 39.467 193.806 39.467C196.169 39.467 198.71 40.345 200.051 41.0786L199.759 37.7702C198.153 36.9514 196.081 36.4809 193.979 36.4809C190.16 36.4772 186.888 37.8257 186.888 41.1934Z" fill="#191816"/>
<path d="M47.4652 40.5562V43.7683H53.6921V47.3657C52.0117 48.34 50.2758 48.7846 48.6249 48.7846C44.6767 48.7846 41.0868 46.2135 41.0868 41.6343C41.0868 37.0551 44.6804 34.484 48.6249 34.484C51.1585 34.484 53.8546 35.5102 56.2996 37.5775L55.9377 33.4911C53.5739 31.9388 50.9738 31.2052 48.2297 31.2052C42.7414 31.2052 37.3713 34.8952 37.3713 41.6306C37.3713 48.366 42.7414 52.056 48.2297 52.056C50.9738 52.056 53.8362 51.441 57.0752 49.0402V40.5562H47.4652Z" fill="#191816"/>
<path d="M11.2485 30.9002L11.0117 28.7507C7.83378 27.7778 4.445 30.1936 2.38436 32.9312C1.2079 34.522 0.234921 36.2867 1.2375 37.8775C-0.412499 39.4091 -0.412499 42.7942 1.2375 44.3554C0.234921 45.9462 1.2079 47.7109 2.38436 49.3017C4.38951 51.9506 6.94959 53.6894 9.59846 53.6894C12.3361 53.6894 14.5448 51.4215 14.5448 48.6543V46.564C14.5448 45.1508 14.0157 44.3554 12.9835 43.2678L11.4223 41.5882C11.4519 41.4402 11.4519 41.3218 11.4519 41.1775C11.4519 40.0307 10.6269 39.2057 9.48008 39.2057C8.39242 39.2057 7.53782 40.0307 7.53782 41.1775C7.53782 42.2097 8.39242 43.0606 9.48008 43.0606C9.62806 43.0606 9.74645 43.031 9.83154 43.031L11.4519 44.7402C12.0698 45.4172 12.3657 45.9166 12.3657 46.7416V48.6543C12.3657 51.0405 10.4235 52.0394 8.27403 51.244C6.83121 50.7149 5.35879 49.6236 4.00476 47.8589C2.7987 46.1793 3.06137 45.3876 3.73839 44.914C4.32662 44.5626 4.94444 44.6181 6.00621 45.9462C5.95072 46.1201 5.92112 46.3273 5.92112 46.5344C5.92112 47.6221 6.80531 48.5063 7.86338 48.5063C8.92145 48.5063 9.77604 47.6221 9.77604 46.5344C9.77604 45.4764 8.92145 44.5922 7.86338 44.5922H7.7154C6.45015 42.9718 4.91854 41.8545 2.7987 42.9718C2.0329 42.2948 2.15128 39.879 2.7987 39.2611C4.91854 40.3784 6.45015 39.2611 7.7154 37.6407H7.86338C8.92145 37.6407 9.77604 36.7566 9.77604 35.6985C9.77604 34.6108 8.92145 33.7266 7.86338 33.7266C6.80531 33.7266 5.92112 34.6108 5.92112 35.6985C5.92112 35.9057 5.95072 36.1091 6.00991 36.2867C4.95184 37.6111 4.33032 37.6703 3.74209 37.3189C3.06507 36.849 2.7987 36.0536 4.00846 34.374C5.68435 32.195 8.56999 29.8125 11.2485 30.9002ZM14.689 51.3328L14.9258 53.4822C18.1037 54.4552 21.4925 52.0394 23.5531 49.3017C24.7296 47.7109 25.7026 45.9462 24.7 44.3554C26.35 42.8238 26.35 39.4387 24.7 37.8775C25.7026 36.2867 24.7296 34.522 23.5531 32.9312C21.548 30.2824 18.9879 28.5473 16.339 28.5473C13.6014 28.5473 11.3927 30.8151 11.3927 33.5823V35.6726C11.3927 37.0858 11.9218 37.8812 12.954 38.9689L14.5152 40.6485C14.4856 40.7965 14.4856 40.9148 14.4856 41.0591C14.4856 42.206 15.3106 43.031 16.4574 43.031C17.5451 43.031 18.3997 42.206 18.3997 41.0591C18.3997 40.027 17.5451 39.1761 16.4574 39.1761C16.3094 39.1761 16.1911 39.2057 16.106 39.2057L14.4856 37.4965C13.8677 36.8194 13.5718 36.32 13.5718 35.495V33.5823C13.5718 31.1961 15.514 30.1973 17.6635 30.9927C19.1063 31.5217 20.5787 32.6131 21.9327 34.3777C23.1388 36.0573 22.8761 36.849 22.1991 37.3226C21.6109 37.674 20.9931 37.6185 19.9313 36.2904C19.9905 36.1128 20.0201 35.9094 20.0201 35.7022C20.0201 34.6145 19.1359 33.7303 18.0778 33.7303C17.0198 33.7303 16.1652 34.6145 16.1652 35.7022C16.1652 36.7603 17.0198 37.6444 18.0778 37.6444H18.2258C19.491 39.2648 21.0227 40.3821 23.1425 39.2648C23.9083 39.9419 23.7899 42.3577 23.1425 42.9755C21.0227 41.8582 19.491 42.9755 18.2258 44.5959H18.0778C17.0198 44.5959 16.1652 45.4801 16.1652 46.5381C16.1652 47.6258 17.0198 48.51 18.0778 48.51C19.1359 48.51 20.0201 47.6258 20.0201 46.5381C20.0201 46.331 19.9905 46.1275 19.9313 45.9499C20.9894 44.6255 21.6109 44.5663 22.1991 44.9177C22.8761 45.3876 23.1425 46.183 21.9327 47.8626C20.2532 50.0379 17.3675 52.4204 14.689 51.3328Z" fill="#191816"/>
<path d="M11.3366 31.0958L11.098 28.9362C7.89516 27.9587 4.47983 30.3858 2.40304 33.1364C1.21736 34.7347 0.236761 36.5077 1.24719 38.1059C-0.415731 39.6448 -0.415731 43.0458 1.24719 44.6143C0.236761 46.2126 1.21736 47.9856 2.40304 49.5839C4.4239 52.2452 7.00404 53.9922 9.67367 53.9922C12.4328 53.9922 14.6587 51.7137 14.6587 48.9334V46.8333C14.6587 45.4135 14.1255 44.6143 13.0853 43.5215L11.5118 41.834C11.5417 41.6854 11.5417 41.5664 11.5417 41.4215C11.5417 40.2692 10.7102 39.4403 9.55435 39.4403C8.45817 39.4403 7.59688 40.2692 7.59688 41.4215C7.59688 42.4585 8.45817 43.3134 9.55435 43.3134C9.70349 43.3134 9.82281 43.2837 9.90856 43.2837L11.5417 45.0009C12.1643 45.6811 12.4626 46.1829 12.4626 47.0118V48.9334C12.4626 51.3309 10.5051 52.3344 8.33885 51.5353C6.88473 51.0038 5.40077 49.9073 4.03613 48.1343C2.82063 46.4468 3.08536 45.6514 3.76768 45.1756C4.36051 44.8225 4.98318 44.8782 6.05327 46.2126C5.99734 46.3873 5.96751 46.5955 5.96751 46.8036C5.96751 47.8964 6.85863 48.7847 7.92499 48.7847C8.99134 48.7847 9.85263 47.8964 9.85263 46.8036C9.85263 45.7406 8.99134 44.8522 7.92499 44.8522H7.77584C6.50069 43.2242 4.95708 42.1017 2.82063 43.2242C2.04883 42.544 2.16814 40.1168 2.82063 39.4961C4.95708 40.6186 6.50069 39.4961 7.77584 37.8681H7.92499C8.99134 37.8681 9.85263 36.9797 9.85263 35.9167C9.85263 34.8239 8.99134 33.9355 7.92499 33.9355C6.85863 33.9355 5.96751 34.8239 5.96751 35.9167C5.96751 36.1248 5.99734 36.3292 6.05699 36.5077C4.99063 37.8383 4.36424 37.8978 3.77141 37.5447C3.08909 37.0726 2.82063 36.2735 4.03986 34.586C5.72888 32.3967 8.63713 30.003 11.3366 31.0958ZM14.8041 51.6245L15.0427 53.784C18.2456 54.7616 21.6609 52.3344 23.7377 49.5839C24.9233 47.9856 25.9039 46.2126 24.8935 44.6143C26.5564 43.0755 26.5564 39.6745 24.8935 38.1059C25.9039 36.5077 24.9233 34.7347 23.7377 33.1364C21.7168 30.475 19.1367 28.7318 16.467 28.7318C13.7079 28.7318 11.482 31.0103 11.482 33.7906V35.8906C11.482 37.3105 12.0152 38.1097 13.0554 39.2024L14.6289 40.8899C14.5991 41.0386 14.5991 41.1576 14.5991 41.3025C14.5991 42.4548 15.4305 43.2837 16.5864 43.2837C17.6825 43.2837 18.5438 42.4548 18.5438 41.3025C18.5438 40.2655 17.6825 39.4106 16.5864 39.4106C16.4372 39.4106 16.3179 39.4403 16.2321 39.4403L14.5991 37.7231C13.9764 37.0429 13.6781 36.5411 13.6781 35.7122V33.7906C13.6781 31.3931 15.6356 30.3896 17.8019 31.1887C19.256 31.7202 20.7399 32.8167 22.1046 34.5897C23.3201 36.2772 23.0554 37.0726 22.373 37.5484C21.7802 37.9015 21.1575 37.8458 20.0874 36.5114C20.1471 36.333 20.1769 36.1285 20.1769 35.9204C20.1769 34.8276 19.2858 33.9392 18.2195 33.9392C17.1531 33.9392 16.2918 34.8276 16.2918 35.9204C16.2918 36.9834 17.1531 37.8718 18.2195 37.8718H18.3686C19.6437 39.4998 21.1874 40.6223 23.3238 39.4998C24.0956 40.18 23.9763 42.6072 23.3238 43.2279C21.1874 42.1054 19.6437 43.2279 18.3686 44.8559H18.2195C17.1531 44.8559 16.2918 45.7443 16.2918 46.8073C16.2918 47.9001 17.1531 48.7885 18.2195 48.7885C19.2858 48.7885 20.1769 47.9001 20.1769 46.8073C20.1769 46.5992 20.1471 46.3947 20.0874 46.2163C21.1538 44.8857 21.7802 44.8262 22.373 45.1793C23.0554 45.6514 23.3238 46.4505 22.1046 48.138C20.4118 50.3236 17.5036 52.7173 14.8041 51.6245Z" fill="#191816"/>
</svg>
