<svg width="59" height="94" viewBox="0 0 59 94" fill="none" xmlns="http://www.w3.org/2000/svg">
<path d="M19.7539 52.2757L17.7098 49.1419H15.7159V52.2757H13.0589V41.4862H17.76C20.417 41.4862 22.2048 42.9245 22.2048 45.2886C22.2048 46.6758 21.5417 47.8569 20.417 48.5254L22.9208 52.2757H19.7539ZM15.6657 46.7779H17.6587C18.6803 46.7779 19.4985 46.2134 19.4985 45.3396C19.4985 44.4659 18.6803 43.9013 17.6587 43.9013H15.6657V46.7779ZM26.8047 45.802H31.5569V48.063H26.8047V49.9126H32.2209V52.2246H24.0966V41.4352H32.2209V43.7472H26.8047V45.802ZM44.1261 46.881C44.1261 50.0667 41.7245 52.3268 38.3523 52.3268H34.0598V41.5382H38.3523C41.7245 41.5382 44.1261 43.6952 44.1261 46.881ZM41.418 46.881C41.418 45.2366 40.0899 43.9524 38.3523 43.9524H36.7169V49.9117H38.3523C40.0899 49.9117 41.418 48.5765 41.418 46.881ZM48.2645 41.5382V52.3277H45.6074V41.5382H48.2645ZM58.484 43.9013H55.4183V52.2757H52.7613V43.9013H49.6956V41.4862H58.484V43.9013ZM8.666 48.4223C8.25736 49.3991 7.38811 50.0148 6.21327 50.0148C4.47566 50.0148 3.24975 48.7306 3.24975 46.9321C3.24975 45.1344 4.47566 43.8494 6.21327 43.8494C7.38811 43.8494 8.25646 44.4148 8.666 45.4427H11.4763C10.9144 42.9765 8.9214 41.3321 6.21327 41.3321C2.99435 41.3321 0.541626 43.6952 0.541626 46.933C0.541626 50.1689 2.99435 52.5329 6.21327 52.5329C8.9214 52.5329 10.9144 50.8885 11.4763 48.4223H8.666ZM10.5049 62.6028C10.5049 64.4013 9.07463 65.5825 6.67299 65.5825H1.25674V54.793H6.36651C8.71708 54.793 10.0451 55.9239 10.0451 57.6705C10.0451 58.6473 9.48327 59.7253 8.56384 60.0336C9.89191 60.3419 10.5049 61.4728 10.5049 62.6028ZM3.96487 57.0019V59.2629H5.95787C6.97947 59.2629 7.54135 58.7494 7.54135 58.0818C7.54135 57.4133 6.97947 57.0539 5.95787 57.0539H3.96487V57.0019ZM7.8989 62.2435C7.8989 61.5749 7.33703 61.2156 6.36651 61.2156H3.91379V63.3735H6.31543C7.43919 63.3735 7.8989 62.9111 7.8989 62.2435ZM18.7825 63.7328H14.2355L13.5195 65.5825H10.6581L15.206 54.793H17.76L22.3079 65.5825H19.4474L18.7825 63.7328ZM17.9141 61.5239L16.483 57.8766L15.0528 61.5239H17.9141ZM33.0893 54.793V65.5825H31.0461L25.8844 59.6742V65.5825H23.2282V54.793H25.2714L30.4331 60.8562V54.7921L33.0893 54.793ZM39.5782 61.5758L37.9947 63.4246V65.6353H35.3377V54.8458H37.9947V59.7782L42.2872 54.8458H45.4542L41.3669 59.5721L45.8117 65.6353H42.4907L39.5782 61.5758ZM10.8633 28.2306V39.0201H8.20628V34.9606H3.86271V39.0201H1.20566V28.2306H3.86271V32.5464H8.20628V28.2306H10.8633ZM41.4691 39.0201H38.812V33.6253L36.4104 37.3246H34.9291L32.5274 33.5743V39.0201H29.8704V28.2306H31.8634L35.6451 33.9847L39.4241 28.2306H41.4171V39.0201H41.4691ZM46.3745 32.4953H51.1258V34.7545H46.3745V36.6041H51.7908V38.9161H43.6664V28.1275H51.7908V30.4396H46.3745V32.4953Z" fill="#191816"/>
<path d="M20.3668 27.7682C16.1254 27.7682 12.7022 31.057 12.7022 35.1156C12.7022 36.5539 13.1108 37.89 13.8779 39.0201H17.5566C16.9819 38.5788 16.5168 38.0108 16.1977 37.3602C15.8786 36.7097 15.714 35.9943 15.7168 35.2697C15.7168 32.7005 17.812 30.5937 20.3668 30.5937C22.9208 30.5937 25.016 32.7005 25.016 35.2697C25.016 36.8111 24.3009 38.1463 23.1771 39.0201H26.8558C27.5709 37.89 28.0306 36.5539 28.0306 35.1156C28.0306 31.0561 24.6074 27.7682 20.3668 27.7682Z" fill="#191816"/>
<path d="M17.863 36.2967C18.2215 37.3757 19.1911 38.1463 20.3669 38.1463C21.5417 38.1463 22.5131 37.3757 22.8707 36.2967H17.863Z" fill="#191816"/>
</svg>
