<svg width="102" height="94" viewBox="0 0 102 94" fill="none" xmlns="http://www.w3.org/2000/svg">
<path d="M62.8042 36.1555C61.9617 35.6382 61.0009 35.2982 59.9514 35.1356C58.8872 34.9583 57.8378 34.8696 56.7883 34.8696C55.7832 34.8696 54.7633 34.9139 53.7582 35.0026C52.7383 35.0913 51.8071 35.2243 50.9646 35.3721V56.302H55.1033V49.0298C55.2067 49.0445 55.3693 49.0741 55.6058 49.0889C55.8275 49.1037 56.0788 49.1184 56.3153 49.1332C56.5666 49.148 56.7883 49.148 57.01 49.148H57.4978C58.5473 49.148 59.5524 49.015 60.5279 48.7489C61.5034 48.4829 62.3755 48.069 63.1294 47.4778C63.898 46.9013 64.504 46.1475 64.9622 45.231C65.4352 44.3146 65.6569 43.1913 65.6569 41.861C65.6569 40.3977 65.3908 39.2004 64.8587 38.284C64.3266 37.3823 63.6467 36.6728 62.8042 36.1555ZM60.9418 43.7086C60.6905 44.1964 60.3505 44.5659 59.9219 44.8467C59.508 45.1128 59.035 45.3049 58.4881 45.3936C57.956 45.4971 57.4239 45.5414 56.877 45.5414H56.5075C56.3449 45.5414 56.1527 45.5267 55.9754 45.5267C55.798 45.5119 55.6206 45.4971 55.458 45.4823C55.3102 45.4675 55.1772 45.438 55.1033 45.4232V38.5796C55.325 38.5353 55.6206 38.5057 55.9754 38.4761C56.3301 38.4466 56.7144 38.4318 57.1135 38.4318C57.6308 38.4318 58.1482 38.4761 58.6507 38.5796C59.1533 38.6831 59.5967 38.8604 59.9958 39.1265C60.3949 39.3926 60.7053 39.7325 60.9418 40.1759C61.1783 40.6046 61.2965 41.1515 61.2965 41.8166C61.3113 42.6 61.193 43.2356 60.9418 43.7086Z" fill="#191816"/>
<path d="M77.7338 42.0828C77.1721 41.6246 76.5365 41.2846 75.8123 41.0925C75.088 40.8856 74.3342 40.7969 73.5803 40.7969C71.2893 40.7969 69.5008 41.462 68.2296 42.7775C66.9732 44.1078 66.3376 46.1033 66.3376 48.7491C66.3376 51.2323 66.8993 53.1686 68.0375 54.5875C69.1608 56.0065 70.9493 56.716 73.3734 56.716C74.5263 56.716 75.6349 56.5534 76.6696 56.2135C77.7042 55.8883 78.532 55.4744 79.138 54.9866L77.9555 52.5478C77.9555 52.5478 77.1869 52.9173 76.3444 53.1833C75.6792 53.4051 74.955 53.5529 74.1272 53.5529C72.7969 53.5529 71.851 53.2277 71.2597 52.5921C70.6685 51.9565 70.2694 50.9958 70.2103 49.7246H79.3153C79.4188 49.1925 79.4927 48.7047 79.5371 48.2169C79.5962 47.7292 79.611 47.2857 79.611 46.8571C79.611 45.6894 79.4484 44.7138 79.1084 43.9304C78.7537 43.1766 78.3102 42.541 77.7338 42.0828ZM75.9601 47.3005L70.3285 47.2414C70.4172 46.2215 70.7276 45.3938 71.2302 44.8025C71.7475 44.1965 72.3092 43.8861 73.536 43.8565C74.4228 43.827 75.1176 44.2113 75.5314 44.7877C75.9453 45.379 76.034 46.2215 75.9601 47.3005Z" fill="#191816"/>
<path d="M89.9283 53.5972C87.1051 53.5972 85.7748 52.0157 85.7748 48.823C85.7748 45.4234 87.519 43.8714 90.2239 43.8714C91.1699 43.8714 92.3672 44.1078 92.3672 44.1078L92.9436 41.2551C91.7907 40.9595 90.5491 40.8412 89.544 40.8412C84.0898 40.8412 81.7249 44.5069 81.7249 48.5865C81.7249 52.6365 83.7351 56.6421 89.2188 56.6421C90.963 56.6421 92.4115 56.2874 93.1506 56.0509L92.6184 53.3164C92.6037 53.346 90.8447 53.5972 89.9283 53.5972Z" fill="#191816"/>
<path d="M98.5603 45.5118C99.7871 45.5118 100.792 44.5067 100.792 43.2798C100.792 42.053 99.8019 41.0479 98.5603 41.0479C97.3335 41.0479 96.3284 42.0382 96.3284 43.2798C96.3284 44.5067 97.3335 45.5118 98.5603 45.5118Z" fill="#191816"/>
<path d="M98.5603 52.0746C97.3335 52.0746 96.3284 53.0798 96.3284 54.3066C96.3284 55.5334 97.3335 56.5237 98.5603 56.5237C99.7871 56.5237 100.792 55.5334 100.792 54.3066C100.792 53.065 99.8019 52.0746 98.5603 52.0746Z" fill="#191816"/>
<path d="M25.6443 48.3054L24.3879 50.4486H24.2844L24.4618 48.3941V41.2105H20.53V56.3019H23.0132L28.3787 49.4731L29.6795 47.2707H29.7681L29.6203 49.414V56.3019H33.5373V41.2105H31.0689L25.6443 48.3054Z" fill="#191816"/>
<path d="M4.70035 41.6097C4.61167 43.4574 4.46386 45.0389 4.30127 46.3692C4.1239 47.6995 3.93174 48.7933 3.71003 49.6358C3.48831 50.4931 3.22226 51.1435 2.92664 51.5869C2.70492 51.9712 2.43886 52.2373 2.12846 52.3999C1.81806 52.5624 1.50766 52.6364 1.18248 52.6364C1.06423 52.6364 0.945983 52.6216 0.812954 52.6068C0.694706 52.592 0.576459 52.5477 0.44343 52.5181L0 56.0803C0.29562 56.2281 0.606021 56.3316 0.916421 56.4055C1.22682 56.4794 1.61113 56.509 2.06934 56.509C2.39452 56.509 2.73448 56.4794 3.11879 56.4055C3.48831 56.3316 3.87262 56.2134 4.25692 56.036C4.62645 55.8438 5.01076 55.6073 5.35072 55.3117C5.70546 55.0161 6.01586 54.6318 6.2967 54.1588C6.74013 53.4493 7.10966 52.6216 7.37571 51.6608C7.65655 50.7 7.87827 49.5767 8.05564 48.3351C8.21823 47.0787 8.36604 45.6597 8.46951 44.0929C8.57297 42.5262 8.66166 40.782 8.73556 38.8753H13.229V56.3168H17.3677V35.1652H4.92207C4.87773 37.6336 4.80382 39.7769 4.70035 41.6097Z" fill="#191816"/>
<path d="M35.8296 44.684H40.1456V56.3019H44.1956V44.684H48.3934V41.2105H35.8296V44.684Z" fill="#191816"/>
</svg>
