<svg width="112" height="94" viewBox="0 0 112 94" fill="none" xmlns="http://www.w3.org/2000/svg">
<g clip-path="url(#clip0_2547_40856)">
<path d="M28.2877 55.2011H17.4267V39.3394H21.4787V51.5601H28.246V55.2011H28.2877Z" fill="#191816"/>
<path d="M34.47 39.3394V49.2164C34.47 50.5975 35.6397 51.9367 37.227 51.9367C38.6891 51.9367 39.9841 50.5975 39.9841 49.2164V39.3394H44.036V49.2164C44.036 53.276 40.2347 55.4104 37.1853 55.4104C34.1358 55.4104 30.3763 53.3597 30.3763 49.2164V39.3394H34.47Z" fill="#191816"/>
<path d="M80.671 47.2912C80.671 52.2715 76.9532 55.4941 72.4835 55.4941C68.0138 55.4941 64.2542 52.3134 64.2542 47.2912C64.2542 42.3109 67.972 39.0464 72.4835 39.0464C76.9532 39.0046 80.671 42.3527 80.671 47.2912ZM72.4835 51.853C74.5304 51.853 76.619 50.723 76.619 47.2912C76.619 43.9849 74.5304 42.7294 72.4835 42.7294C70.3531 42.7294 68.348 44.236 68.348 47.2912C68.348 50.3045 70.4784 51.853 72.4835 51.853Z" fill="#191816"/>
<path d="M93.9967 42.855H87.4801V45.8264H93.8296V49.3001H87.4801V55.2011H83.5116V39.3394H93.9967V42.855Z" fill="#191816"/>
<path d="M109.996 39.3394V42.8131H105.526V55.2011H101.474V42.8131H97.0879V39.3394H109.996Z" fill="#191816"/>
<path d="M21.604 31.1783L29.5826 23.1428L37.4777 31.0528V25.9887L29.5826 18.1207L21.604 26.0724V31.1783Z" fill="#191816"/>
<path d="M13.4164 55.2011L5.47956 47.2493L13.4582 39.2975H8.40367L0.466797 47.2493L8.40367 55.2011H13.4164Z" fill="#191816"/>
<path d="M37.4777 63.4875L29.5826 71.3138L21.604 63.362V68.3842L29.5826 76.3778L37.4777 68.5097V63.4875Z" fill="#191816"/>
<path d="M56.4427 51.9786L59.6175 55.2011H64.672L58.9909 49.4675L56.4427 51.9786Z" fill="#191816"/>
<path d="M58.9908 45.0312L64.7555 39.2975H59.7428L56.4427 42.5201L58.9908 45.0312Z" fill="#191816"/>
<path d="M45.7069 39.3394L53.602 47.2494L45.7069 55.2011H50.7615L58.6148 47.2494L50.7615 39.3394H45.7069Z" fill="#191816"/>
</g>
<defs>
<clipPath id="clip0_2547_40856">
<rect width="110.689" height="93.2114" fill="white" transform="translate(0.466797 0.643555)"/>
</clipPath>
</defs>
</svg>
