<svg width="159" height="94" viewBox="0 0 159 94" fill="none" xmlns="http://www.w3.org/2000/svg">
<path d="M16.8795 32.8211V47.0935C16.8795 47.7609 16.3661 48.223 15.7501 48.223H14.0559C13.9532 48.223 13.9018 48.3256 13.9018 48.377V60.3391C14.3126 60.3391 14.7233 60.4418 15.1853 60.4418C22.8349 60.4418 29.047 54.2297 29.047 46.5801C29.047 39.5466 23.7591 33.6425 16.8795 32.8211ZM16.5715 54.1784C15.596 54.1784 14.8773 53.3569 14.8773 52.4842C14.8773 51.5087 15.6987 50.7899 16.5715 50.7899C17.547 50.7899 18.2657 51.6114 18.2657 52.4842C18.3684 53.4083 17.547 54.1784 16.5715 54.1784ZM20.6273 54.1784C19.6519 54.1784 18.9331 53.3569 18.9331 52.4842C18.9331 51.5087 19.7546 50.7899 20.6273 50.7899C21.6028 50.7899 22.3215 51.6114 22.3215 52.4842C22.3215 53.3569 21.6541 54.1784 20.6273 54.1784ZM24.7345 54.1784C23.7591 54.1784 23.0403 53.3569 23.0403 52.4842C23.0403 51.5087 23.8617 50.7899 24.7345 50.7899C25.71 50.7899 26.4287 51.6114 26.4287 52.4842C26.4287 53.3569 25.71 54.1784 24.7345 54.1784Z" fill="#191816"/>
<path d="M15.1853 32.7697C7.53571 32.7697 1.32361 38.9818 1.32361 46.6314C1.32361 53.3569 5.99552 58.8502 12.259 60.1337V47.6582C12.259 47.0934 12.7724 46.6314 13.2858 46.5287H14.98C15.0826 46.5287 15.134 46.426 15.134 46.3747L15.1853 32.7697ZM12.5157 44.1671C11.5402 44.1671 10.8214 43.3456 10.8214 42.4729C10.8214 41.4974 11.6429 40.7786 12.5157 40.7786C13.4911 40.7786 14.2099 41.6001 14.2099 42.4729C14.2099 43.3456 13.4398 44.1671 12.5157 44.1671Z" fill="#191816"/>
<path d="M153.956 40.3166V45.5532H146.974V40.3166H143.432V54.1783H146.974V48.5822H153.956V54.1783H157.396V40.3166H153.956Z" fill="#191816"/>
<path d="M96.2507 41.9082C95.6859 40.676 94.5565 40.0086 93.427 40.0086C92.2975 40.0086 91.1167 40.676 90.6033 41.9082L85.0073 54.2297H88.7037L89.9359 51.3033H97.1234L98.3556 54.2297H102.052L96.2507 41.9082ZM90.9113 48.531L93.0163 43.4484C93.1189 43.2943 93.1703 43.2943 93.273 43.2943C93.3756 43.2943 93.5297 43.2943 93.5297 43.4484L95.6346 48.531H90.9113Z" fill="#191816"/>
<path d="M54.9736 37.8523C53.3307 37.8523 52.3039 38.7251 51.5338 40.4706L47.0673 50.8926L42.5494 40.4193C41.8306 38.7251 40.7525 37.801 39.1096 37.801C37.5695 37.801 36.0293 38.8278 36.0293 41.2407V54.127H39.469V41.7028L44.0383 52.0221C44.603 53.5109 45.6811 54.3837 47.0673 54.3837C48.5561 54.3837 49.5316 53.5109 50.0963 52.0221L54.6656 41.7028V54.281H58.1053V41.3947C58.054 38.9818 56.5138 37.8523 54.9736 37.8523Z" fill="#191816"/>
<path d="M64.1634 51.2519C64.0094 51.2519 63.804 51.0979 63.804 50.8926V48.4283H72.4291V45.6046H63.804V43.4996C63.804 43.3456 63.958 43.1403 64.1634 43.1403H72.7371V40.2139H62.4692C61.237 40.2139 60.4156 41.1894 60.4156 42.2675V51.9707C60.4156 52.9975 61.2884 54.0243 62.4692 54.0243H72.7371V51.0979H64.1634V51.2519Z" fill="#191816"/>
<path d="M78.5385 54.1783V43.6023C78.5385 43.4483 78.6925 43.2429 78.8979 43.2429H87.4716V40.3166H77.2037C75.9715 40.3166 75.1501 41.292 75.1501 42.3701V54.1269L78.5385 54.1783Z" fill="#191816"/>
<path d="M141.173 47.2988C141.173 42.4729 139.068 40.2139 133.831 40.2139H132.599C127.362 40.2139 125.258 42.5242 125.258 47.2988C125.258 52.022 127.362 54.3837 132.599 54.3837H133.729C139.068 54.281 141.173 52.022 141.173 47.2988ZM133.729 51.4573H132.599C129.775 51.4573 128.595 50.1738 128.595 47.2988C128.595 44.5264 129.57 43.1403 132.599 43.1403H133.729C136.655 43.1403 137.733 44.5264 137.733 47.2988C137.733 50.1225 136.655 51.4573 133.729 51.4573Z" fill="#191816"/>
<path d="M115.657 38.1603H108.778C103.644 38.1603 101.59 40.7786 101.59 45.2452C101.59 45.964 101.693 46.6314 101.744 47.1961C102.309 50.3792 104.208 52.3301 108.983 52.3301H110.523V54.127H113.963V52.3301H115.452C120.278 52.3301 122.177 50.3792 122.691 47.1961C122.793 46.6314 122.845 45.964 122.845 45.2452C122.793 40.7786 120.688 38.1603 115.657 38.1603ZM108.88 49.4551C106.519 49.4551 105.697 48.5823 105.184 47.1448C105.03 46.6314 105.03 45.9126 105.03 45.1939C105.03 42.2675 106.416 41.0353 108.367 41.0353H110.472V49.4551H108.88ZM119.251 47.2988C118.737 48.685 117.865 49.6091 115.554 49.6091H114.014V41.138H116.119C118.07 41.138 119.456 42.3702 119.456 45.2965C119.405 46.0666 119.405 46.6827 119.251 47.2988Z" fill="#191816"/>
</svg>
