<svg width="163" height="36" viewBox="0 0 163 36" fill="none" xmlns="http://www.w3.org/2000/svg">
<path d="M15.9828 6.96308V10.5306C15.9828 10.9165 15.9709 10.9165 15.948 11.3487C16.1329 10.9276 16.3157 10.6818 16.4995 10.4259L18.6946 7.47892V6.96308H19.57V12.9084H18.6946V9.39922C18.6946 9.19067 18.7085 8.832 18.7423 8.5499C18.6946 8.65569 18.6141 8.85416 18.2136 9.38008L15.9838 12.3371V12.9084H15.1113V6.96308H15.9828ZM20.6392 8.48038C20.7013 8.18322 20.8313 7.90502 21.019 7.66823C21.2066 7.43144 21.4465 7.24269 21.7193 7.11723C21.928 7.01245 22.3623 6.84823 23.0886 6.84823C23.5825 6.84823 24.1688 6.91674 24.5822 7.17365C25.1336 7.51217 25.3065 8.026 25.3065 8.44613C25.3087 8.62122 25.2763 8.79498 25.2111 8.95712C25.1459 9.11927 25.0493 9.26652 24.927 9.39016C24.6999 9.60518 24.4079 9.73618 24.0982 9.76192V9.7851C24.445 9.80625 24.8465 9.97149 25.0999 10.2395C25.3195 10.4722 25.4665 10.8208 25.4665 11.2399C25.4665 11.9281 25.076 12.3834 24.7312 12.6162C24.1916 12.9879 23.4901 13.0232 23.0092 13.0232C22.5362 13.0232 21.7203 12.999 21.1341 12.4731C20.8055 12.1651 20.5838 11.7576 20.5021 11.3115L21.3527 11.1351C21.4202 11.4958 21.5922 11.7286 21.6866 11.8223C21.9042 12.057 22.2967 12.2988 22.9615 12.2988C23.3063 12.2988 23.7544 12.2313 24.0287 12.0449C24.1626 11.9628 24.2727 11.8461 24.3477 11.7069C24.4228 11.5676 24.4601 11.4107 24.456 11.252C24.456 10.8803 24.3158 10.6445 24.1787 10.5176C23.8578 10.2133 23.3977 10.181 23.0191 10.181H22.3633V9.45967H23.0191C23.2606 9.45967 23.6163 9.41434 23.8339 9.30754C24.2602 9.11108 24.3417 8.77256 24.3417 8.4693C24.3425 8.3442 24.3136 8.22075 24.2573 8.10939C24.2011 7.99803 24.1193 7.90204 24.0187 7.82954C23.7902 7.64315 23.3867 7.57161 22.9962 7.57161C22.6624 7.57161 22.25 7.64315 21.9042 7.93129C21.6704 8.1275 21.5118 8.40057 21.456 8.70304L20.6392 8.48038ZM30.7986 6.96308V12.187H31.3968V14.5042H30.592V12.9094H26.6967V14.5042H25.8908V12.187H26.3281C26.5501 11.8555 26.7351 11.5 26.8796 11.1271C27.3058 10.0299 27.3516 8.86424 27.3853 7.50109L27.3973 6.96308H30.7986ZM28.1207 8.00484C28.0859 8.87633 27.9835 10.3231 27.6039 11.3487C27.4877 11.65 27.3048 12.0459 27.2363 12.187H29.9242V7.68949H28.1306L28.1207 8.00484ZM32.0686 8.47031C32.322 7.20186 33.2749 6.85024 34.5498 6.85024C34.9423 6.85024 35.7005 6.86233 36.2172 7.28246C36.8502 7.79528 36.8601 8.60934 36.8601 9.38109V11.6621C36.8601 11.9895 36.8949 12.3865 37.0102 12.9104H36.09C36.0337 12.5434 35.9989 12.1733 35.9857 11.8021C35.8267 12.1396 35.3199 13.0262 33.9417 13.0262C33.1934 13.0262 32.7214 12.7713 32.4342 12.5023C32.2633 12.3421 32.1278 12.1469 32.0369 11.9296C31.9459 11.7123 31.9015 11.4779 31.9066 11.2419C31.9066 10.44 32.3567 9.9735 32.6996 9.74278C33.412 9.25112 34.3322 9.23702 35.2285 9.23702H35.9857V8.99522C35.9857 8.67785 35.9648 8.28291 35.7581 8.00383C35.458 7.5968 34.9522 7.57161 34.5389 7.57161C34.0559 7.57161 33.0454 7.64315 32.9062 8.60833L32.0686 8.47031ZM35.2404 9.96141C34.3193 9.96141 33.7916 10.0783 33.4697 10.2516C33.288 10.3424 33.1355 10.4836 33.0296 10.6586C32.9238 10.8337 32.8689 11.0356 32.8715 11.2409C32.8715 11.4747 32.9649 11.8122 33.2988 12.0328C33.4597 12.1507 33.735 12.2555 34.1374 12.2555C34.4032 12.2549 34.6655 12.1949 34.9058 12.0798C35.1461 11.9647 35.3584 11.7973 35.5276 11.5895C35.8267 11.2188 35.9857 10.6727 35.9857 10.2516V9.96141H35.2404ZM41.9508 6.96308V7.68949H40.1124V12.9094H39.239V7.68949H37.3997V6.96308H41.9508ZM47.2481 11.2873C47.0865 11.817 46.7496 12.2739 46.2942 12.5809C45.8351 12.8953 45.3531 13.0242 44.7887 13.0242C43.962 13.0242 43.3062 12.7451 42.8014 12.1608C42.2836 11.5664 42.0889 10.8107 42.0889 9.98257C42.0889 8.39978 42.9623 6.84924 44.8116 6.84924C46.9957 6.84924 47.3514 8.8995 47.3514 9.85663V10.0652H43.0985C43.0866 10.4592 43.1536 10.8516 43.2952 11.2188C43.5824 11.9291 44.11 12.2555 44.8235 12.2555C45.4555 12.2555 45.8351 11.9754 46.0418 11.7427C46.2037 11.5664 46.3289 11.3236 46.3985 11.113L47.2481 11.2873ZM46.3409 9.34381C46.3289 8.98212 46.2375 8.5499 46.0656 8.25974C45.9383 8.043 45.756 7.86483 45.5378 7.7438C45.3195 7.62277 45.0732 7.56331 44.8245 7.57161C44.2511 7.57161 43.8119 7.85069 43.5496 8.17813C43.2989 8.51466 43.1582 8.92222 43.1472 9.34381H46.3409ZM52.454 6.96308V12.9084H51.5816V7.68949H49.6965C49.6051 10.3453 49.5028 11.1372 49.3299 11.6601C48.9384 12.8157 48.0301 12.9084 47.6277 12.9084H47.582V12.1376H47.6734C47.9397 12.1255 48.3412 11.9281 48.5608 11.523C48.7327 11.2067 48.8589 10.6254 48.9165 7.63005L48.9284 6.96308H52.454ZM54.7544 6.96308V9.30653H56.388C56.8451 9.30653 57.4214 9.35489 57.8348 9.76192C58.0306 9.9604 58.3058 10.3553 58.3058 11.0666C58.3058 11.6389 58.1458 12.1265 57.7186 12.5013C57.3171 12.861 56.8809 12.9084 56.5381 12.9084H53.8819V6.96308H54.7544ZM54.7544 12.187H56.1227C56.3761 12.187 56.697 12.187 56.9842 11.9401C57.1919 11.7548 57.34 11.4505 57.34 11.0566C57.34 10.5901 57.1333 10.3453 56.9504 10.2163C56.7298 10.0783 56.387 10.0299 56.1555 10.0299H54.7534L54.7544 12.187ZM62.8619 9.04156C62.818 8.72192 62.7087 8.41511 62.5409 8.14085C62.3809 7.91014 62.047 7.61695 61.4727 7.61695C60.9669 7.61695 60.5992 7.86178 60.3459 8.2819C60.0259 8.80681 59.9663 9.48083 59.9663 9.9604C59.9663 11.0777 60.2763 11.5664 60.3459 11.6601C60.5406 11.9512 60.8854 12.2535 61.4598 12.2535C61.897 12.2535 62.2209 12.1044 62.4833 11.7679C62.69 11.4979 62.8152 11.1392 62.8619 10.8017L63.6896 10.9508C63.6081 11.523 63.3577 12.0459 63.0219 12.3955C62.6085 12.8278 62.0679 13.0252 61.4359 13.0252C60.7016 13.0252 60.173 12.7562 59.8281 12.4429C59.2538 11.9059 58.9547 10.9518 58.9547 9.94831C58.9547 9.15742 59.1276 8.43404 59.5648 7.81644C59.9653 7.25828 60.5506 6.84924 61.4936 6.84924C62.1365 6.84924 62.677 7.0457 63.0914 7.52527C63.4233 7.91114 63.6191 8.45822 63.6886 8.88842L62.8619 9.04156ZM68.4583 6.96308V7.68949H66.619V12.9094H65.7465V7.68949H63.9072V6.96308H68.4583ZM71.7404 6.96308C72.2114 6.96308 72.7162 6.98928 73.1077 7.221C73.3264 7.34996 73.7288 7.67539 73.7288 8.36452C73.7288 8.76047 73.6135 9.09899 73.3363 9.35489C73.2439 9.43449 72.9925 9.65815 72.5791 9.72767V9.74984C73.0034 9.78409 73.4277 9.97249 73.6702 10.2153C73.7845 10.3312 74.0617 10.6586 74.0617 11.2309C74.0617 11.7759 73.8321 12.2424 73.4526 12.5467C73.0044 12.8963 72.4996 12.9084 72.0276 12.9084H69.1449V6.96308H71.7404ZM70.0154 9.44658H71.647C71.9233 9.44658 72.28 9.42542 72.5344 9.14533C72.6814 8.98413 72.7619 8.73528 72.7619 8.4693C72.7669 8.36089 72.7465 8.25282 72.7025 8.15391C72.6585 8.05499 72.592 7.96801 72.5086 7.90006C72.2681 7.68949 71.9918 7.68949 71.7265 7.68949H70.0154V9.44658ZM70.0154 12.187H71.8567C72.28 12.187 72.591 12.0691 72.7749 11.8948C72.9577 11.7215 73.0491 11.4404 73.0491 11.1744C73.0538 11.0284 73.0242 10.8834 72.9627 10.7513C72.9012 10.6192 72.8095 10.5039 72.6954 10.4148C72.4062 10.1931 71.9928 10.17 71.7752 10.17H70.0154V12.187ZM77.4213 6.84924C78.9387 6.84924 80.0645 7.99174 80.0645 9.93824C80.0645 11.8837 78.9387 13.0242 77.4213 13.0242C75.905 13.0242 74.7801 11.8827 74.7801 9.93824C74.7801 7.99174 75.905 6.84924 77.4213 6.84924ZM79.055 9.93924C79.055 7.99174 78.1239 7.61796 77.4213 7.61796C76.7208 7.61796 75.7897 7.99174 75.7897 9.93924C75.7897 11.8847 76.7208 12.2545 77.4213 12.2545C78.1249 12.2535 79.055 11.8837 79.055 9.93924ZM17.6194 18.7881L19.6525 26.2346L21.7313 18.7881H24.1499V29.113H22.5471V20.3085L20.1275 29.113H18.9122L16.5353 20.2923V29.113H15.1094V18.7881H17.6194ZM29.9461 18.7881L32.6777 29.111H30.9566L30.3177 26.5217H27.3486L26.7275 29.111H25.1068L28.0461 18.7881H29.9461ZM28.8331 20.4576L27.6924 25.1676H29.9908L28.8331 20.4576ZM35.3795 18.7881V23.074H38.3785V18.7881H40.0707V29.113H38.3785V24.4896H35.3795V29.113H33.6883V18.7881H35.3795ZM43.5138 18.7881V23.074H46.5108V18.7881H48.204V29.113H46.5108V24.4896H43.5138V29.113H41.8226V18.7881H43.5138ZM51.666 27.1695V29.0223L50.5382 31.2933H49.8098L50.7459 29.111H49.9599V27.1695H51.666ZM56.711 18.7881V24.9107C56.711 25.3621 56.6364 25.6492 56.5917 26.16C56.9037 25.3792 56.9643 25.2573 56.9922 25.1979L59.9027 19.5085V18.7881H61.5949V29.113H59.9027V22.9531C59.9027 22.6852 59.9464 22.533 60.0219 21.6152C59.695 22.3376 59.8421 22.0978 59.5459 22.671L56.71 28.2697V29.114H55.0177V18.7881H56.711ZM66.463 18.7881C67.25 18.7881 68.036 18.7881 68.6312 19.1639C69.2095 19.5397 69.6696 20.3085 69.6696 21.3744C69.6696 22.2469 69.4013 22.7285 69.1936 22.9844C68.9402 23.2866 68.5547 23.5254 68.1552 23.6634C68.6312 23.7823 69.0018 24.0382 69.2672 24.3113C69.8485 24.8976 69.9796 25.5898 69.9796 26.2074C69.9796 27.6068 69.3119 28.299 68.822 28.6153C68.1115 29.0818 67.2937 29.112 66.5077 29.112H63.3458V18.7881H66.463ZM66.1072 23.0458C66.5077 23.0458 67.1307 22.9995 67.4278 22.7869C67.7826 22.532 67.9475 21.9305 67.9475 21.5396C67.9475 21.1195 67.7826 20.6369 67.4726 20.3971C67.1466 20.1392 66.5951 20.1392 66.2702 20.1392H65.037V23.0458H66.1072ZM66.3885 27.7569C66.6707 27.7569 67.1913 27.7267 67.6057 27.4557C68.185 27.0799 68.2586 26.5207 68.2586 26.0855C68.2586 25.8286 68.2139 25.1233 67.6643 24.7153C67.2649 24.416 66.7442 24.4009 66.2712 24.4009H65.038V27.7569H66.3885ZM75.3684 18.7881L78.1 29.111H76.378L75.739 26.5217H72.7709L72.1488 29.111H70.5291L73.4685 18.7881H75.3684ZM74.2545 20.4576L73.1137 25.1676H75.4121L74.2545 20.4576ZM80.8018 18.7881V23.074H83.7988V18.7881H85.494V29.113H83.7988V24.4896H80.8018V29.113H79.1096V18.7881H80.8018ZM92.9685 19.5841C94.1113 20.8172 94.2007 23.0599 94.2007 23.9486C94.2007 24.8069 94.1113 27.1091 92.9685 28.3141C92.5243 28.7815 91.7205 29.3034 90.5479 29.3034C89.5254 29.3034 88.6788 28.9004 88.1293 28.3272C87.7576 27.9363 86.8822 26.8068 86.8822 23.9637C86.8822 22.9693 86.9995 20.7266 88.1293 19.5548C88.5595 19.1005 89.3605 18.5917 90.5479 18.5917C91.7383 18.5917 92.5074 19.0884 92.9685 19.5841ZM88.8716 21.6313C88.7543 22.1572 88.6629 23.3148 88.6629 23.9486C88.6629 24.5793 88.7543 25.7399 88.8716 26.2668C89.0792 27.1554 89.5681 27.8899 90.5489 27.8899C91.0994 27.8899 91.8566 27.6814 92.1974 26.2668C92.3445 25.6502 92.42 24.9107 92.42 23.9486C92.42 22.8333 92.3167 22.1411 92.1974 21.6313C92.0484 21.0439 91.6767 20.0062 90.5489 20.0062C90.2538 20.0062 89.2273 20.0959 88.8716 21.6313ZM98.7309 18.7881C99.5179 18.7881 100.305 18.7881 100.899 19.1639C101.477 19.5397 101.938 20.3085 101.938 21.3744C101.938 22.2469 101.67 22.7285 101.463 22.9844C101.209 23.2866 100.824 23.5254 100.423 23.6634C100.899 23.7823 101.27 24.0382 101.537 24.3113C102.116 24.8976 102.25 25.5898 102.25 26.2074C102.25 27.6068 101.58 28.299 101.092 28.6153C100.378 29.0818 99.5616 29.112 98.7746 29.112H95.6137V18.7881H98.7309ZM98.3732 23.0458C98.7736 23.0458 99.3977 22.9995 99.6938 22.7869C100.052 22.532 100.214 21.9305 100.214 21.5396C100.214 21.1195 100.052 20.6369 99.7395 20.3971C99.4126 20.1392 98.8631 20.1392 98.5371 20.1392H97.305V23.0458H98.3732ZM98.6564 27.7569C98.9396 27.7569 99.4603 27.7267 99.8736 27.4557C100.453 27.0799 100.526 26.5207 100.526 26.0855C100.526 25.8286 100.483 25.1233 99.9333 24.7153C99.5328 24.416 99.0141 24.4009 98.5391 24.4009H97.3069V27.7569H98.6564ZM107.72 18.7881V24.9107C107.72 25.3621 107.645 25.6492 107.602 26.16C107.912 25.3792 107.974 25.2573 108.002 25.1979L110.911 19.5085V18.7881H112.603V29.113H110.911V22.9531C110.911 22.6852 110.955 22.533 111.03 21.6152C110.704 22.3376 110.851 22.0978 110.554 22.671L107.719 28.2697V29.114H106.027V18.7881H107.72ZM121.561 18.4859V19.8087H121.634C122.126 19.8087 123.18 19.84 124.056 20.5906C124.605 21.057 125.287 22.0192 125.287 23.737C125.287 25.0911 124.886 26.1006 124.337 26.6859C123.595 27.4849 122.599 27.6672 121.561 27.6945V29.2148H119.931V27.6945C118.889 27.6672 117.893 27.4849 117.154 26.6859C116.602 26.1006 116.203 25.0911 116.203 23.737C116.203 22.0192 116.886 21.057 117.435 20.5906C118.31 19.84 119.364 19.8087 119.855 19.8087H119.931V18.4859H121.561ZM119.975 21.1638H119.871C119.234 21.1638 118.623 21.3744 118.283 21.7331C117.763 22.2781 117.718 23.2715 117.718 23.7521C117.718 24.7767 117.895 25.6049 118.579 26.0401C119.039 26.3253 119.708 26.3555 119.975 26.3414V21.1638ZM121.516 26.3424C121.784 26.3575 122.452 26.3263 122.912 26.0411C123.595 25.6049 123.773 24.7767 123.773 23.7531C123.773 23.2725 123.729 22.2791 123.209 21.7341C123.09 21.6152 122.63 21.1648 121.62 21.1648H121.516V26.3424ZM132.405 18.7881V20.2007H128.264V23.074H131.513V24.4896H128.264V27.6965H132.477V29.113H126.57V18.7881H132.405ZM136.078 18.7881C137.146 18.7881 138.214 18.8456 139 19.6445C139.476 20.1261 139.817 20.925 139.817 21.9769C139.817 22.7144 139.609 23.5405 139.148 24.0836C138.363 25.0326 137.099 25.076 136.121 25.076H135.231V29.111H133.538V18.7881H136.078ZM135.232 23.7239H136.078C136.76 23.7239 137.399 23.7078 137.769 23.1204C137.859 22.9693 138.036 22.6217 138.036 21.9456C138.036 21.584 137.991 21.057 137.695 20.6671C137.31 20.1412 136.773 20.1412 136.078 20.1412H135.232V23.7239ZM146.808 20.1402H142.652V23.0005H144.389C144.848 23.0005 145.828 23.0468 146.569 23.6765C146.956 24.0251 147.475 24.7012 147.475 25.9646C147.475 26.7937 147.238 27.6965 146.748 28.2687C146.08 29.0495 145.205 29.111 144.656 29.111H140.959V18.7881H146.808V20.1402ZM142.652 27.7569H144.18C144.626 27.7569 145.085 27.5756 145.338 27.3035C145.59 27.0345 145.753 26.5822 145.753 25.9938C145.753 25.7399 145.724 25.1676 145.338 24.7918C145.07 24.5359 144.567 24.3546 144.091 24.3546H142.652V27.7569ZM154.68 18.7881V20.2007H150.54V23.074H153.789V24.4896H150.54V27.6965H154.757V29.113H148.847V18.7881H154.68ZM158.354 18.7881C159.422 18.7881 160.491 18.8456 161.277 19.6445C161.753 20.1261 162.095 20.925 162.095 21.9769C162.095 22.7144 161.886 23.5405 161.427 24.0836C160.639 25.0326 159.378 25.076 158.4 25.076H157.507V29.111H155.817V18.7881H158.354ZM157.507 23.7239H158.354C159.038 23.7239 159.677 23.7078 160.046 23.1204C160.137 22.9693 160.315 22.6217 160.315 21.9456C160.315 21.584 160.269 21.057 159.974 20.6671C159.585 20.1412 159.053 20.1412 158.354 20.1412H157.507V23.7239ZM5.22021 31.8897V4.70225H8.90678V0.819336H0.431641V35.7736H8.90678V31.8897" fill="#191816"/>
</svg>
