<svg width="171" height="94" viewBox="0 0 171 94" fill="none" xmlns="http://www.w3.org/2000/svg">
<path fill-rule="evenodd" clip-rule="evenodd" d="M18.1469 55.8555H10.9437L3.26959 41.99L5.21905 38.4684C5.91452 37.2122 7.86447 37.2122 8.55995 38.4684L14.5466 49.2829L20.5308 38.4692C21.2261 37.2128 23.1762 37.2126 23.8719 38.469L25.821 41.99L18.1469 55.8555ZM8.53439 55.8772H4.09406L0.832409 49.9553C0.275778 48.9526 0.275943 47.7659 0.832738 46.7634L2.18172 44.3343L8.53439 55.8772ZM25.1577 55.8555L28.5474 49.7137C29.0989 48.7144 29.0989 47.5319 28.5474 46.5327L27.045 43.8106L20.3972 55.8555H25.1577Z" fill="#191816"/>
<path fill-rule="evenodd" clip-rule="evenodd" d="M63.2114 37.5262L55.5339 52.7567L47.8516 37.5262H45.2732V55.8772H47.69V43.3672C47.69 43.23 47.681 43.0324 47.668 42.7904C47.6591 42.544 47.646 42.3178 47.6199 42.1159V41.8376C47.7594 42.2009 48.0001 42.7091 48.3411 43.3595L54.5506 55.8772H56.4078L62.5733 43.3792C62.6172 43.2865 62.7004 43.1169 62.8269 42.8667C62.9446 42.6208 63.0326 42.3903 63.0759 42.1845C63.124 41.9787 63.1549 41.8618 63.181 41.8376V42.1159C63.1549 42.3178 63.1413 42.544 63.1329 42.7904C63.1152 43.0324 63.111 43.23 63.111 43.3672V55.8772H65.6632V37.5262H63.2114Z" fill="#191816"/>
<path fill-rule="evenodd" clip-rule="evenodd" d="M87.4042 52.4728C85.9975 53.9843 84.1892 54.7399 81.9921 54.7399C79.795 54.7399 77.9867 53.9843 76.5674 52.4728C75.152 50.9618 74.438 49.0386 74.438 46.6994C74.438 44.3434 75.152 42.4117 76.5674 40.9133C77.9867 39.4145 79.795 38.6589 81.9921 38.6589C84.1892 38.6589 85.9975 39.4185 87.4042 40.926C88.8115 42.4371 89.513 44.3602 89.513 46.6994C89.513 49.0386 88.8115 50.9618 87.4042 52.4728ZM89.2889 39.385C87.371 37.466 84.9371 36.5067 81.9921 36.5067C79.0471 36.5067 76.6092 37.466 74.6827 39.385C72.7475 41.3035 71.7802 43.7403 71.7802 46.6994C71.7802 49.6585 72.7475 52.0953 74.6827 54.0138C76.6092 55.9329 79.0471 56.8967 81.9921 56.8967C84.9371 56.8967 87.371 55.9329 89.2889 54.0138C91.2114 52.0953 92.1702 49.6585 92.1702 46.6994C92.1702 43.7403 91.2114 41.3035 89.2889 39.385Z" fill="#191816"/>
<path fill-rule="evenodd" clip-rule="evenodd" d="M96.2482 37.5262L97.6511 39.5771H104.122V55.8772H106.721V39.5771H113.196L114.599 37.5262H96.2482Z" fill="#191816"/>
<path fill-rule="evenodd" clip-rule="evenodd" d="M121.736 55.8772H124.794V37.5262H121.736V55.8772Z" fill="#191816"/>
<path fill-rule="evenodd" clip-rule="evenodd" d="M146.765 39.5771L148.243 37.5262H134.989V55.8772H137.728V47.2226H144.727L146.205 45.176H137.728V39.5771H146.765Z" fill="#191816"/>
<path fill-rule="evenodd" clip-rule="evenodd" d="M167.906 37.5262L161.564 46.9882L155.227 37.5262H152.321L160.164 48.9864V55.8772H162.837V48.9864L170.672 37.5262H167.906Z" fill="#191816"/>
</svg>
