<svg width="93" height="94" viewBox="0 0 93 94" fill="none" xmlns="http://www.w3.org/2000/svg">
<path fill-rule="evenodd" clip-rule="evenodd" d="M0.740234 34.336C0.740234 32.5682 2.19591 31.133 3.99454 31.133H30.038C31.8344 31.133 33.2925 32.5682 33.2925 34.336V59.9699C33.2925 61.7391 31.8344 63.1744 30.038 63.1744H3.99454C2.19591 63.1744 0.740234 61.7391 0.740234 59.9699V34.336ZM86.9793 51.3869C89.2016 51.3869 91.1441 51.1395 91.1441 51.1395L91.4581 55.069C91.4581 55.069 88.6705 55.4059 86.5723 55.4059C81.3724 55.4059 78.8661 54.0246 78.8661 49.0843V45.1872C78.8661 40.707 80.9344 38.8662 86.6038 38.8662C88.7325 38.8662 91.2062 39.2041 91.2062 39.2041L90.9271 43.1313C90.9271 43.1313 88.9834 42.8562 86.9793 42.8562C84.1922 42.8562 83.7226 43.6835 83.7226 45.8617V48.4085C83.7226 50.5262 84.2548 51.3869 86.9793 51.3869ZM67.4708 43.2016H62.7726L62.4902 39.1436H77.3372L77.0548 43.2016H72.3566V55.1644H67.4708V43.2016ZM52.8143 53.5579L55.4126 47.4159H55.6983L56.2377 55.1644H60.9607L59.8837 39.1442H55.3184L51.3878 48.246H51.1015L47.0087 39.1442H42.5082L41.43 55.1644H46.029L46.5058 47.4159H46.7872L49.7071 53.5579H52.8143ZM8.86151 49.5315C8.86151 53.9395 11.3817 58.3875 17.0146 58.3875C22.6519 58.3875 25.1748 53.9395 25.1748 49.5315C25.1748 46.5163 24.1409 43.0447 22.4082 40.2426C20.7353 37.5389 18.719 35.9244 17.0146 35.9244C15.3123 35.9244 13.2983 37.5389 11.6276 40.2426C9.89594 43.0447 8.86151 46.5163 8.86151 49.5315Z" fill="#191816"/>
</svg>
