<svg width="209" height="94" viewBox="0 0 209 94" fill="none" xmlns="http://www.w3.org/2000/svg">
<g clip-path="url(#clip0_2547_40843)">
<path d="M120.671 40.3206H132.657V43.0194H131.8C131.8 43.0194 131.629 41.6413 130.259 41.6413H128.148V54.0444H125.18V41.5838H123.011C121.869 41.5838 121.584 42.5026 121.47 42.962H120.614V40.3206H120.671Z" fill="#191816"/>
<path d="M145.727 40.3206H147.896V54.0444H144.985V44.4549L137.85 54.0444H135.682V42.8471C135.682 41.2393 134.312 41.0096 134.312 41.0096V40.3206H138.592V49.9674L145.727 40.3206Z" fill="#191816"/>
<path d="M83.0009 54.0444H79.2339L76.5513 48.9338C76.5513 48.9338 75.7523 47.3834 74.8961 47.3834H73.8117V53.987H70.8438V42.8471C70.8438 41.2393 69.4169 41.1245 69.4169 41.1245V40.3206H73.8117V46.0627H75.1244C75.1244 46.0627 75.9806 46.0053 76.7226 44.7995C79.0627 41.0096 78.7202 40.3206 79.7476 40.3206H82.6584V41.2393C80.6608 41.2393 80.033 45.3737 78.0924 46.6944C79.0627 47.0389 79.4051 47.9577 81.5169 51.8049C81.5169 51.8049 82.0306 53.1256 83.058 53.1256V54.0444H83.0009Z" fill="#191816"/>
<path d="M154.117 45.7183H161.194V44.9718C161.194 43.0195 159.596 41.4116 157.656 41.4116C155.715 41.4116 154.117 43.0195 154.117 44.9718V45.7183ZM163.706 51.0585C162.336 52.9534 160.281 54.2741 157.656 54.2741C154.06 54.2741 150.578 51.4605 150.578 47.7281V46.9241C150.578 42.9046 153.774 40.0909 157.656 40.0909C161.537 40.0909 164.562 43.3066 164.562 47.1538H154.117V49.3933C154.117 51.3456 155.715 52.9534 157.998 52.9534C159.996 52.9534 161.366 52.0921 162.507 50.9437L163.706 51.0585Z" fill="#191816"/>
<path d="M93.2172 40.0909C91.562 40.0909 89.9639 40.8374 89.2219 41.8136V40.3206H84.8842V41.1245C84.8842 41.1245 86.254 41.3542 86.254 42.8472V60.3034H89.2219V52.5515C90.5917 54.1593 92.4181 54.2167 92.9889 54.2167C96.813 54.1593 99.4385 51.1734 99.4385 47.4409V46.637C99.4385 42.6175 96.9842 40.0909 93.2172 40.0909ZM95.9568 49.3359C95.9568 51.0585 94.7012 52.7238 92.8748 52.8386H92.5894C90.9342 52.8386 89.5073 51.5753 89.279 50.312V44.3402C89.3931 42.962 90.82 41.4116 92.5894 41.4116H93.1601C93.1601 41.4116 95.8998 41.5839 95.9568 44.9144V49.3359Z" fill="#191816"/>
<path d="M48.1847 40.0909C43.0478 40.0909 40.936 44.1105 40.936 46.6945V47.8429C40.936 50.8863 43.904 54.2167 48.1847 54.2167C52.18 54.2167 55.4903 51.2308 55.4903 47.7281V46.8093C55.4903 43.364 52.7507 40.0909 48.1847 40.0909ZM51.9516 49.221C51.9516 51.1734 50.4106 52.9535 48.1847 52.9535C45.9587 52.9535 44.4747 51.2308 44.4747 49.221V44.857C44.4747 42.9046 46.1299 41.3542 48.1847 41.3542C50.4106 41.3542 51.9516 42.962 51.9516 44.9144V49.221Z" fill="#191816"/>
<path d="M118.616 40.3206H114.278V41.1245C114.278 41.1245 115.705 41.3542 115.705 42.962V54.1018H118.616V40.3206Z" fill="#191816"/>
<path d="M105.888 45.5459V40.3206H101.607V41.1245C101.607 41.1245 102.92 41.2393 102.92 42.8471V54.0444H109.598C112.223 54.0444 114.05 52.4366 114.05 50.1971V49.5081C114.05 47.0389 112.223 45.4885 109.427 45.4885H105.888V45.5459ZM105.888 52.6663V46.9241H108.399C109.769 46.9241 110.854 48.0151 110.854 49.6229V50.1971C110.854 51.5178 109.655 52.6663 108.342 52.6663H105.888Z" fill="#191816"/>
<path d="M56.004 40.3206H67.9899V43.0194H67.1337C67.1337 43.0194 66.9625 41.6413 65.5927 41.6413H63.4809V54.0444H60.513V41.5838H58.3441C57.2026 41.5838 56.9172 42.5026 56.803 42.962H55.9469V40.3206H56.004Z" fill="#191816"/>
<path d="M15.9368 31.1331C7.14716 31.1331 0.0126953 38.3108 0.0126953 47.1538C0.0126953 55.9967 7.14716 63.1745 15.9368 63.1745C24.7265 63.1745 31.8609 55.9967 31.8609 47.1538C31.8609 38.3108 24.7265 31.1331 15.9368 31.1331ZM12.5694 55.0206C12.6835 55.078 13.1401 55.3651 13.2543 55.9393C13.3113 56.3413 13.2543 56.6858 13.083 57.0303C12.8547 57.4323 12.4552 57.662 11.9415 57.662C11.6561 57.662 11.4278 57.6046 11.1425 57.4897L10.4005 57.1452C7.14716 55.4225 5.14951 51.9198 5.14951 48.0151V46.4073C5.14951 42.5026 7.14716 38.9999 10.4576 37.2772C10.5146 37.2772 11.1995 36.9327 11.1995 36.9327C11.4278 36.8178 11.7132 36.7604 11.9986 36.7604C12.5123 36.7604 12.9118 36.9901 13.1401 37.392C13.3113 37.7366 13.3684 38.0811 13.3113 38.4831C13.1401 39.0573 12.5694 39.287 12.5694 39.287C10.6859 40.1483 9.43019 42.1006 9.43019 44.2827V49.9674C9.43019 52.2069 10.6859 54.1592 12.5694 55.0206ZM26.7241 47.9577C26.7241 51.8624 24.7265 55.3651 21.4732 57.0878L20.7312 57.4323C20.5029 57.5471 20.2175 57.6046 19.9321 57.6046C19.4184 57.6046 19.0189 57.3749 18.7906 56.9729C18.6194 56.6284 18.5623 56.2838 18.6194 55.8819C18.7335 55.3077 19.1901 55.0206 19.3043 54.9631C21.2449 54.1018 22.4434 52.0921 22.4434 49.9674V44.3401C22.4434 42.1581 21.1878 40.2057 19.3043 39.3444C19.3043 39.3444 18.7335 39.0573 18.6194 38.4256C18.5623 38.0237 18.6194 37.6792 18.7906 37.3346C19.0189 36.9327 19.4184 36.703 19.9321 36.703C20.2175 36.703 20.4458 36.7604 20.7312 36.8752C20.7312 36.8752 21.4161 37.2198 21.4732 37.2198C24.7265 38.9424 26.7812 42.4452 26.7812 46.3499V47.9577H26.7241Z" fill="#191816"/>
<path d="M185.109 47.3835H184.31V49.7952H185.052C185.965 49.7952 186.536 49.3933 186.536 48.5894C186.536 47.7855 186.022 47.3835 185.109 47.3835ZM184.995 50.5992H183.34V43.8234H186.821L186.936 44.6847H184.253V46.5796H185.109C186.536 46.5796 187.392 47.2687 187.392 48.532C187.449 49.9101 186.479 50.5992 184.995 50.5992Z" fill="#191816"/>
<path d="M190.417 47.728H192.586L191.502 44.8569L190.417 47.728ZM191.045 43.7659H191.958L194.584 50.4842L193.671 50.6565L192.872 48.5319H190.132L189.39 50.5417H188.42L191.045 43.7659Z" fill="#191816"/>
<path d="M200.348 50.5992V47.4409H196.924V50.5992H196.01V43.8234H196.924V46.637H200.348V43.8234H201.261V50.5992H200.348Z" fill="#191816"/>
<path d="M206.969 43.8234L204.172 46.8667V43.8234H203.259V50.5992H204.172V47.1538L207.312 50.6566L208.282 50.4269L205.143 46.9816L208.111 43.8234H206.969Z" fill="#191816"/>
<path d="M174.265 31.1331H173.694V63.1745H174.265V31.1331Z" fill="#191816"/>
</g>
<defs>
<clipPath id="clip0_2547_40843">
<rect width="208.269" height="93.2114" fill="white" transform="translate(0.0126953 0.547974)"/>
</clipPath>
</defs>
</svg>
