<svg width="134" height="94" viewBox="0 0 134 94" fill="none" xmlns="http://www.w3.org/2000/svg">
<g clip-path="url(#clip0_2547_40832)">
<path fill-rule="evenodd" clip-rule="evenodd" d="M14.2426 47.1305C15.0559 41.3269 12.8647 38.4409 8.5176 38.4409C6.26615 38.4409 4.47077 38.9741 3.18205 39.6958L0 62.4091H4.06529L5.0232 55.5697C5.3765 55.7267 5.91286 55.9152 6.94544 55.9152C10.5105 55.9152 13.4822 52.5579 14.2426 47.1305ZM10.1636 47.2248C9.78143 49.9538 8.75687 53.0283 6.34885 53.0283C5.97388 53.0283 5.64307 52.9349 5.37007 52.8721L6.95187 41.5783C7.25136 41.4526 7.63998 41.3584 8.14022 41.3584C10.3603 41.3584 10.582 44.2444 10.1636 47.2248Z" fill="#191816"/>
<path fill-rule="evenodd" clip-rule="evenodd" d="M27.3836 54.7231L28.7935 44.652C29.4439 40.0092 27.2872 38.4409 24.1284 38.4409C21.596 38.4409 19.8062 39.1626 18.7616 39.6958L19.2329 42.362C20.2053 41.8916 21.5133 41.484 22.9208 41.484C24.3902 41.484 25.2228 42.2363 24.9988 43.8369L24.9201 44.4015C20.3329 44.9976 16.9542 46.3468 16.3479 50.6755C15.8774 54.0328 17.6383 55.9773 21.6722 55.9773C24.2987 55.9773 26.0539 55.5068 27.3836 54.7231ZM23.7246 52.9349C23.3946 53.0598 22.8092 53.2168 22.2463 53.2168C20.6517 53.2168 19.9435 52.2446 20.1852 50.5192C20.528 48.0721 21.9332 47.1933 24.5773 46.8486L23.7246 52.9349Z" fill="#191816"/>
<path d="M40.9154 38.4723C37.0637 38.2838 34.8355 38.7856 33.1759 39.6958L30.9389 55.6639H34.9728L36.9248 41.7345C37.759 41.3584 38.827 41.3269 39.699 41.7973L40.9154 38.4723Z" fill="#191816"/>
<path fill-rule="evenodd" clip-rule="evenodd" d="M51.1513 54.7231L52.562 44.652C53.2124 40.0092 51.0557 38.4409 47.8969 38.4409C45.3637 38.4409 43.5739 39.1626 42.5301 39.6958L43.0006 42.362C43.9738 41.8916 45.2818 41.484 46.6885 41.484C48.1587 41.484 48.9914 42.2363 48.7673 43.8369L48.6878 44.4015C44.1014 44.9976 40.7227 46.3468 40.1164 50.6755C39.6459 54.0328 41.406 55.9773 45.4399 55.9773C48.0672 55.9773 49.8216 55.5068 51.1513 54.7231ZM47.4931 52.9349C47.1623 53.0598 46.5777 53.2168 46.0149 53.2168C44.4194 53.2168 43.712 52.2446 43.9537 50.5192C44.2958 48.0721 45.7017 47.1933 48.345 46.8486L47.4931 52.9349Z" fill="#191816"/>
<path fill-rule="evenodd" clip-rule="evenodd" d="M66.3551 55.7896L68.6089 39.6958C67.7409 38.9741 66.2828 38.4409 63.9061 38.4409C59.0595 38.4409 56.2211 41.7345 55.3901 47.6638C54.6827 52.715 56.4459 55.9773 59.7613 55.9773C60.981 55.9773 61.8024 55.6953 62.3548 55.3192L62.232 56.1972C61.9638 58.111 60.9753 59.366 58.8797 59.366C57.285 59.366 56.1625 58.8956 55.6029 58.4243L54.1174 61.4361C55.1604 62.252 56.6892 62.7225 59.1599 62.7225C62.8502 62.7225 65.6862 60.5581 66.3551 55.7896ZM62.729 52.6522C62.1171 52.9969 61.6755 53.0283 61.2371 53.0283C59.3919 53.0283 59.0202 50.5506 59.4642 47.3818C59.9829 43.6798 61.054 41.3898 63.0558 41.3898C63.5873 41.3898 64.0121 41.484 64.2754 41.6089L62.729 52.6522Z" fill="#191816"/>
<path fill-rule="evenodd" clip-rule="evenodd" d="M83.1389 47.1934C83.8422 42.1743 82.3632 38.4409 78.204 38.4409C74.0761 38.4409 71.5203 42.1743 70.8169 47.1934C70.1144 52.2132 71.6199 55.9773 75.7478 55.9773C79.907 55.9773 82.4355 52.2132 83.1389 47.1934ZM79.1137 47.1305C78.6874 50.1737 78.0225 52.6836 76.2087 52.6836C74.4575 52.6836 74.4655 50.1737 74.8959 47.0991C75.3262 44.0245 75.9999 41.4526 77.7824 41.4526C79.5963 41.4526 79.5441 44.056 79.1137 47.1305Z" fill="#191816"/>
<path d="M97.0883 55.6639L98.7633 43.7112C99.2643 40.1348 97.5934 38.4409 93.4655 38.4409C90.9017 38.4409 88.9232 38.9427 87.4731 39.6958L85.2361 55.6639H89.2701L91.222 41.7345C91.6902 41.5154 92.1101 41.4212 92.9548 41.4212C94.3929 41.4212 94.873 42.2363 94.6667 43.7112L92.9917 55.6639H97.0883Z" fill="#191816"/>
<path fill-rule="evenodd" clip-rule="evenodd" d="M103.838 53.4859C103.838 52.2293 102.817 51.2047 101.564 51.2047C100.305 51.2047 99.2901 52.2293 99.2901 53.4859C99.2901 54.7489 100.305 55.767 101.564 55.767C102.817 55.767 103.838 54.7489 103.838 53.4859ZM103.453 53.4859C103.453 54.5298 102.605 55.3804 101.564 55.3804C100.523 55.3804 99.6755 54.5298 99.6755 53.4859C99.6755 52.4419 100.523 51.5913 101.564 51.5913C102.605 51.5913 103.453 52.4419 103.453 53.4859ZM102.714 54.7424L101.808 53.6083C102.194 53.5116 102.438 53.2088 102.438 52.8608C102.438 52.545 102.206 52.0875 101.429 52.0875C101.147 52.0875 100.896 52.1455 100.703 52.2422V54.7424H101.191V53.6599H101.294L102.116 54.7424H102.714ZM101.943 52.8737C101.943 53.2281 101.712 53.3054 101.281 53.3054H101.191V52.5064C101.243 52.4806 101.314 52.4677 101.403 52.4677C101.551 52.4677 101.943 52.4871 101.943 52.8737Z" fill="#191816"/>
<path d="M133.54 29.4708L129.666 25.4506L86.1702 27.3725L133.54 29.4708Z" fill="#191816"/>
<path d="M125.921 21.5496L94.9182 22.9246L128.69 24.4244L125.921 21.5496Z" fill="#191816"/>
<path d="M122.816 18.3261L102.227 19.2468L124.672 20.252L122.816 18.3261Z" fill="#191816"/>
<path d="M120.188 15.5971L108.4 16.1327L121.268 16.7183L120.188 15.5971Z" fill="#191816"/>
<path d="M117.884 13.2039L113.245 13.6993L118.605 13.9562L117.884 13.2039Z" fill="#191816"/>
<path d="M133.54 30.0508L129.666 34.0718L86.1702 32.1491L133.54 30.0508Z" fill="#191816"/>
<path d="M125.921 37.9728L94.9182 36.5978L128.69 35.0972L125.921 37.9728Z" fill="#191816"/>
<path d="M122.816 41.1963L102.227 40.2757L124.672 39.2696L122.816 41.1963Z" fill="#191816"/>
<path d="M120.188 43.9255L108.4 43.3898L121.268 42.8043L120.188 43.9255Z" fill="#191816"/>
<path d="M117.884 46.3177L113.245 45.8231L118.605 45.5661L117.884 46.3177Z" fill="#191816"/>
</g>
<defs>
<clipPath id="clip0_2547_40832">
<rect width="133.991" height="93.2114" fill="white" transform="translate(0 0.0960693)"/>
</clipPath>
</defs>
</svg>
