<svg width="77" height="24" viewBox="0 0 77 24" fill="none" xmlns="http://www.w3.org/2000/svg">
<g clip-path="url(#clip0_2547_40862)">
<path d="M15.828 0.654785L8.12012 8.42263H15.828V23.9576L23.5365 16.2085V0.654785H15.828Z" fill="#191816"/>
<path d="M8.11969 23.9576L15.8283 16.1898H8.11969V0.654785L0.411133 8.40395V23.9576H8.11969Z" fill="#191816"/>
<path d="M31.2441 20.0739H35.2907V8.03399H41.457V20.0739H45.5035V4.53894H31.2441V20.0739ZM70.554 10.3596H67.0966V8.03399H74.7955V4.53894H63.05V20.0746C63.05 20.0746 68.8229 20.0746 70.7469 20.0746C73.8328 20.0746 76.1448 18.5157 76.1448 15.2171C76.1448 11.9124 73.8321 10.3596 70.554 10.3596ZM70.1688 16.7726H67.0973V13.6686H70.1688C71.1232 13.6686 72.0901 14.0477 72.0901 15.2164C72.0901 16.3852 71.1232 16.7726 70.1688 16.7726ZM55.4088 16.7637C52.7081 16.7637 51.1892 14.7681 51.1892 12.3013C51.1892 10.3209 52.2947 7.83471 55.3319 7.83471C57.2278 7.83471 58.4507 9.00272 58.8847 9.5466L61.3457 7.06664C59.8611 5.28141 57.6322 4.14453 55.1396 4.14453C50.6694 4.14453 47.1419 7.47835 47.1419 12.3006C47.1419 16.8052 50.6694 20.4566 55.1396 20.4566C57.8155 20.4566 60.1873 19.1467 61.6609 17.1297L59.1841 14.6338C58.4013 15.8717 57.1227 16.7637 55.4088 16.7637Z" fill="#191816"/>
</g>
<defs>
<clipPath id="clip0_2547_40862">
<rect width="75.7343" height="23.3029" fill="white" transform="translate(0.411133 0.654785)"/>
</clipPath>
</defs>
</svg>
