<svg width="121" height="94" viewBox="0 0 121 94" fill="none" xmlns="http://www.w3.org/2000/svg">
<path fill-rule="evenodd" clip-rule="evenodd" d="M31.7486 31.6805H0.254639V63.1745H31.7486V31.6805ZM30.8376 32.5907H1.16553V62.2635H30.8376V32.5907Z" fill="#191816"/>
<path fill-rule="evenodd" clip-rule="evenodd" d="M2.73993 56.2683L6.61061 60.214L15.6795 51.0129L25.0518 60.4036L28.9791 56.5145L19.7009 47.2376L21.4845 45.5113V41.8308L22.604 40.8824V43.7658L24.0461 44.942L28.3525 40.6356L29.7372 41.6979C30.5534 38.6815 25.8291 31.8326 21.9209 35.6269L17.367 40.1419L18.297 41.2615L15.9822 43.519L13.7438 41.3181L14.9199 40.2551L9.93039 35.4367C6.17425 32.344 2.32265 37.0499 2.1897 41.6406L3.55538 40.5026L7.74789 45.0183L9.24653 43.7665V40.9963L10.1758 41.6979V45.3217L11.997 47.1429L2.73993 56.2683Z" fill="#191816"/>
<path fill-rule="evenodd" clip-rule="evenodd" d="M39.7925 35.4558V38.1878H40.9686C42.5811 37.8844 42.1448 35.5697 40.9686 35.4558H39.7925ZM36.4536 32.7428V45.1131H39.7925V41.091L42.6384 45.1131H46.5848L43.0754 40.1617C47.1357 38.1885 45.6179 32.8001 41.3491 32.7435H36.4536V32.7428ZM51.8968 38.9276C52.9973 38.9276 53.8884 39.7622 53.8884 40.7869C53.8884 41.811 52.9966 42.6463 51.8968 42.6463C50.8154 42.6463 49.9236 41.811 49.9236 40.7869C49.9236 39.7622 50.8154 38.9276 51.8968 38.9276ZM51.1945 36.1956C52.1054 36.1956 52.9591 36.499 53.6607 36.9919V36.5181H56.9239L56.943 45.1124H53.6416L53.6607 44.5813C52.9591 45.0742 52.1054 45.3592 51.1945 45.3592C48.7659 45.3592 46.7743 43.3104 46.7743 40.7869C46.7743 38.2635 48.7666 36.1956 51.1945 36.1956ZM58.67 36.5181H62.1418V45.1124H58.67V36.5181ZM60.4148 31.6042C61.4211 31.6042 62.2366 32.4387 62.2366 33.4444C62.2366 34.4501 61.4211 35.2847 60.4148 35.2847C59.3907 35.2847 58.5746 34.4494 58.5746 33.4444C58.5752 32.4394 59.3907 31.6042 60.4148 31.6042ZM86.7678 36.5181H90.2396V45.1124H86.7678V36.5181ZM88.4941 31.6042C89.5189 31.6042 90.3344 32.4387 90.3344 33.4444C90.3344 34.4501 89.5189 35.2847 88.4941 35.2847C87.4885 35.2847 86.673 34.4494 86.673 33.4444C86.673 32.4394 87.4885 31.6042 88.4941 31.6042ZM62.7868 36.5181V39.2501H63.9821V45.1124H67.3407V39.2501H70.49V45.1124H73.9618V39.2126H76.1246V36.5563H73.8664V34.6403C73.8098 33.9387 75.4605 33.6537 76.0298 34.2231V31.4147C72.8423 30.409 70.2623 32.2117 70.2807 35.0003V36.5181H67.3209V34.6403C67.2827 33.9387 68.7255 33.6537 69.5593 34.2231V31.4147C66.7891 30.5992 63.83 31.9458 63.8491 34.9812V36.499L62.7868 36.5181ZM81.076 45.3592C84.0548 45.3401 85.1546 44.1074 85.8003 42.3047H82.7839C81.4175 44.0501 79.4253 42.7792 79.5207 41.3563H85.8957C85.8957 37.8653 84.0357 36.2147 81.0766 36.2147C78.1175 36.2147 76.2582 38.3017 76.2582 40.8442C76.2582 43.3867 78.4203 45.3783 81.076 45.3592ZM79.9564 39.3265C79.9946 38.2826 82.2712 38.2826 82.4226 39.3265H79.9564ZM104.715 45.3592C107.713 45.3401 108.814 44.1074 109.458 42.3047H106.423C105.057 44.0501 103.065 42.7792 103.16 41.3563H109.535C109.535 37.8653 107.695 36.2147 104.716 36.2147C101.756 36.2147 99.8976 38.3017 99.8976 40.8442C99.8976 43.3867 102.059 45.3783 104.715 45.3592ZM103.596 39.3265C103.634 38.2826 105.911 38.2826 106.062 39.3265H103.596ZM98.986 36.6892L97.9612 38.7763C96.6712 38.3774 95.4187 38.4538 95.4569 38.8138C95.4951 39.0415 95.2864 39.4397 97.2971 39.7247C100.294 40.1985 100.048 45.7765 95.0205 45.3592C93.6358 45.2644 92.5162 44.9038 91.5869 44.3535L92.7064 42.1144C94.2814 42.8924 95.7985 43.3479 95.9123 42.5699C96.0453 41.6024 94.2617 41.944 93.1803 41.1279C91.2453 39.9326 92.3451 36.2331 95.5142 36.1949C96.633 36.1199 97.7908 36.3094 98.986 36.6892ZM110.863 36.5181V45.1124H114.107V39.8569C114.202 38.5478 116.782 38.3201 116.801 39.8569V45.1124H120.083V39.7247C120.007 36.7083 116.839 35.2472 113.974 37.1631V36.5181H110.863ZM38.3695 50.3679L36.2068 63.1172H42.335C46.49 63.1172 48.1973 57.9572 45.2375 56.1927C47.7609 53.8588 46.4709 50.3495 43.7579 50.3113L38.3695 50.3679ZM40.8548 57.9756L40.4184 60.0817H41.8413C43.4538 60.1574 43.2643 57.9756 42.335 57.9756H40.8548ZM41.5754 53.4033L41.2154 55.1113L41.6518 55.1297C42.9609 55.2054 43.7198 53.4033 42.1448 53.4033H41.5754ZM46.6223 63.1363H50.3409L51.4604 60.8972H55.672L56.298 63.1745H59.7316L56.7534 50.4436H53.2434L46.6223 63.1363ZM52.6748 58.2224H54.9895L54.2498 54.8638L52.6748 58.2224ZM60.9084 63.1745H64.3427L65.2148 55.187L70.1287 63.1363H73.8091L75.3459 50.3672H71.9123L70.9448 58.3547L66.0302 50.329H62.4827L60.9084 63.1745ZM77.8128 50.3297L75.4032 63.1363H79.0271L79.9946 58.3547L83.2387 63.1363H88.0005L83.3526 56.4197L89.2912 50.3106H84.6807L80.6205 54.8256L81.2655 50.3106L77.8128 50.3297Z" fill="#191816"/>
</svg>
