<svg width="117" height="94" viewBox="0 0 117 94" fill="none" xmlns="http://www.w3.org/2000/svg">
<g clip-path="url(#clip0_2547_40858)">
<path d="M5.27702 44.26C5.80733 44.269 6.33736 44.2294 6.86043 44.1416C7.22558 44.0892 7.57581 43.9614 7.88883 43.7662C8.14024 43.6025 8.33205 43.3621 8.43567 43.0806C8.5546 42.737 8.60992 42.3747 8.59891 42.0114C8.60724 41.6478 8.55624 41.2852 8.44792 40.9381C8.35227 40.658 8.16731 40.4172 7.92147 40.2525C7.62006 40.0602 7.28018 39.9362 6.92572 39.8893C6.41559 39.8087 5.89952 39.7719 5.38313 39.7791C5.13827 39.7791 4.8526 39.7791 4.52613 39.8117C4.19965 39.8444 3.92623 39.8607 3.70994 39.8893V44.1334C3.9162 44.1842 4.12648 44.217 4.3384 44.2314C4.58734 44.2518 4.90565 44.26 5.27702 44.26Z" fill="#191816"/>
<path d="M38.1776 40.7871C36.2297 40.7871 34.7632 41.27 33.7784 42.2358V28.8054C33.7731 28.673 33.7164 28.5478 33.6205 28.4564C33.5245 28.365 33.3967 28.3145 33.2642 28.3157H11.6025C9.12756 28.3167 6.72222 29.1349 4.76004 30.6433C2.79785 32.1516 1.38864 34.2657 0.751249 36.6572C2.03675 36.5388 3.26919 36.4776 4.46083 36.4776C5.74657 36.4612 7.03098 36.5664 8.29692 36.7918C9.23482 36.9462 10.1341 37.2801 10.9455 37.7753C11.6064 38.1916 12.1368 38.7856 12.4758 39.4893C12.8246 40.2746 12.9933 41.128 12.9696 41.9869C12.9696 44.2613 11.9412 45.8338 9.88441 46.7044L13.7205 52.5565H8.94987L6.15034 47.4962C5.91199 47.525 5.67218 47.5399 5.4321 47.541H4.20781L3.9099 47.4962H3.72626V52.5565H0.379883V65.636C0.382013 65.781 0.440868 65.9195 0.543843 66.0217C0.646818 66.1239 0.785724 66.1818 0.930811 66.1828C1.00829 66.1825 1.0848 66.1655 1.15519 66.1331C1.22558 66.1008 1.28822 66.0537 1.33891 65.9951C1.35729 65.9794 1.37373 65.9616 1.38788 65.942C2.43869 64.6203 3.77492 63.5534 5.2965 62.8212C6.81808 62.089 8.48559 61.7106 10.1742 61.7142H21.3315L21.0009 61.6693C21.3274 61.6978 21.6579 61.7142 21.9926 61.7142H22.5558C25.3888 61.7126 28.1165 60.6401 30.1918 58.7116C32.2672 56.7831 33.5367 54.1412 33.7457 51.3159C34.7251 52.2709 36.2024 52.7497 38.1776 52.7524C38.8115 52.753 39.4449 52.7203 40.0753 52.6545C40.625 52.6029 41.1705 52.5129 41.7076 52.3851V49.5978C41.1771 49.6835 40.6711 49.7448 40.1855 49.7815C39.6998 49.8182 39.1326 49.8345 38.4919 49.8345C37.5206 49.8345 36.8309 49.5992 36.4228 49.1285C36.0147 48.6579 35.8107 47.8648 35.8107 46.7493C35.8107 45.6475 36.0188 44.8639 36.4351 44.3987C36.8432 43.9376 37.5492 43.7049 38.5327 43.7049C39.5959 43.7121 40.6571 43.7981 41.7076 43.962V41.1544C41.1602 41.03 40.6054 40.9401 40.0467 40.885C39.4258 40.8196 38.8019 40.7869 38.1776 40.7871ZM27.3713 52.5565H15.1733V36.6939H27.1591V39.9954H19.4624V42.9541H26.4V46.2719H19.4624V49.2714H27.3713V52.5565Z" fill="#191816"/>
<path d="M49.3064 40.7667C47.2904 40.7667 45.7532 41.2781 44.6949 42.3011C43.6366 43.3241 43.1088 44.8136 43.1115 46.7697C43.1115 48.7286 43.6393 50.2249 44.6949 51.2588C45.7505 52.2926 47.2877 52.8041 49.3064 52.7932C51.3224 52.7932 52.8514 52.2817 53.8934 51.2588C54.9354 50.2358 55.4564 48.7395 55.4564 46.7697C55.4564 44.8109 54.9354 43.3213 53.8934 42.3011C52.8514 41.2809 51.3224 40.7694 49.3064 40.7667ZM51.7549 48.3246C51.6846 48.6916 51.5341 49.0386 51.3142 49.3407C51.1123 49.5996 50.836 49.7904 50.5225 49.8876C49.7374 50.1053 48.9079 50.1053 48.1229 49.8876C47.8011 49.7934 47.5162 49.6025 47.3067 49.3407C47.0766 49.0381 46.9201 48.686 46.8496 48.3123C46.7478 47.8005 46.7013 47.2793 46.7109 46.7575C46.7009 46.2398 46.7474 45.7225 46.8496 45.2149C46.927 44.8564 47.0847 44.5201 47.3108 44.2314C47.5202 43.9696 47.8052 43.7787 48.127 43.6845C48.912 43.4668 49.7415 43.4668 50.5266 43.6845C50.8327 43.7854 51.1014 43.9759 51.2979 44.2314C51.5171 44.5309 51.6675 44.8751 51.7386 45.2394C51.8409 45.747 51.8874 46.2643 51.8774 46.782C51.8852 47.2956 51.8387 47.8085 51.7386 48.3123L51.7549 48.3246Z" fill="#191816"/>
<path d="M65.8342 40.7667C65.1019 40.7796 64.3756 40.9021 63.6795 41.1299C62.7242 41.4477 61.7962 41.8421 60.9044 42.3093H60.7534L60.5616 40.9666H57.558V52.5565H61.137V44.3946C61.6641 44.1565 62.2102 43.9627 62.7694 43.8151C63.2291 43.6838 63.7035 43.6111 64.1814 43.5988C64.3661 43.5828 64.552 43.6073 64.7261 43.6707C64.9003 43.7342 65.0584 43.835 65.1894 43.9661C65.4399 44.3225 65.5543 44.7569 65.5118 45.1904V52.5565H69.0908V43.9865C69.1186 43.5524 69.0568 43.1172 68.9094 42.7079C68.762 42.2987 68.532 41.924 68.2338 41.6073C67.9104 41.3138 67.5314 41.0882 67.1192 40.9438C66.707 40.7994 66.2701 40.7392 65.8342 40.7667Z" fill="#191816"/>
<path d="M79.9584 40.7667C79.226 40.7796 78.4998 40.9021 77.8036 41.1299C76.8489 41.4491 75.921 41.8435 75.0286 42.3093H74.8776L74.6531 40.9666H71.6536V52.5565H75.2326V44.3946C75.7597 44.1563 76.3057 43.9625 76.865 43.8151C77.3261 43.6839 77.8019 43.6112 78.2811 43.5988C78.4657 43.583 78.6516 43.6077 78.8257 43.6711C78.9998 43.7346 79.1579 43.8353 79.2891 43.9661C79.5376 44.3234 79.6518 44.7571 79.6115 45.1904V52.5565H83.1905V43.9865C83.2182 43.5524 83.1565 43.1172 83.0091 42.7079C82.8617 42.2987 82.6317 41.924 82.3335 41.6073C82.0123 41.318 81.6372 41.0948 81.2296 40.9506C80.8221 40.8063 80.3901 40.7438 79.9584 40.7667Z" fill="#191816"/>
<path d="M91.2177 40.7871C89.2289 40.7871 87.7326 41.2986 86.7287 42.3215C85.7248 43.3445 85.2242 44.8558 85.2269 46.8554C85.2269 50.7868 87.2211 52.7524 91.2095 52.7524C92.0129 52.7509 92.8149 52.6895 93.6091 52.5688C94.374 52.459 95.1307 52.2982 95.8741 52.0872L95.7598 49.5366C95.4619 49.606 95.1313 49.6754 94.7763 49.7407C94.4212 49.806 94.054 49.8549 93.6826 49.8998C93.3112 49.9447 92.9399 49.9774 92.5767 50.0059C92.2135 50.0345 91.8747 50.0508 91.5605 50.0508C91.1496 50.058 90.7392 50.0211 90.3362 49.9406C90.0391 49.8864 89.7592 49.7619 89.52 49.5774C89.2952 49.3906 89.1246 49.1467 89.0262 48.8714C88.8966 48.5042 88.817 48.1213 88.7895 47.7328H96.1353C96.2702 47.1496 96.3346 46.5522 96.3271 45.9536C96.3216 42.5092 94.6185 40.7871 91.2177 40.7871ZM88.7691 45.8474C88.7673 45.1415 88.9919 44.4535 89.4099 43.8845C89.628 43.6751 89.8881 43.5144 90.1731 43.413C90.458 43.3117 90.7612 43.2721 91.0626 43.2969C91.3518 43.2692 91.6436 43.307 91.9162 43.4073C92.1889 43.5076 92.4355 43.6679 92.6379 43.8764C92.9589 44.26 93.1344 44.917 93.1643 45.8474H88.7691Z" fill="#191816"/>
<path d="M103.799 40.7871C99.8408 40.7871 97.8615 42.7813 97.8615 46.7697C97.8615 48.7966 98.3512 50.3011 99.3306 51.2833C100.31 52.2654 101.8 52.7551 103.799 52.7524C104.433 52.753 105.067 52.7203 105.697 52.6545C106.247 52.6026 106.792 52.5126 107.329 52.3851V49.5978C106.799 49.6835 106.293 49.7448 105.807 49.7815C105.321 49.8182 104.754 49.8345 104.114 49.8345C103.142 49.8345 102.453 49.5992 102.044 49.1285C101.636 48.6579 101.432 47.8648 101.432 46.7493C101.432 45.6475 101.639 44.8639 102.053 44.3987C102.466 43.9335 103.167 43.7022 104.154 43.7049C105.218 43.7123 106.279 43.7982 107.329 43.962V41.1544C106.782 41.03 106.227 40.9401 105.668 40.885C105.047 40.8196 104.424 40.7869 103.799 40.7871Z" fill="#191816"/>
<path d="M114.899 50.0916C114.671 50.1155 114.439 50.0916 114.22 50.0214C114.001 49.9511 113.799 49.8361 113.626 49.6835C113.336 49.2886 113.202 48.8001 113.251 48.3123V43.9825H116.209V40.9666H113.226V37.3387L110.443 37.6366L109.672 37.7223V49.1285C109.672 50.3528 110.015 51.2629 110.692 51.8832C111.369 52.5035 112.369 52.8014 113.7 52.8014C114.158 52.8013 114.616 52.7727 115.071 52.7157C115.47 52.6705 115.864 52.5927 116.25 52.4831V49.8345C115.817 49.9937 115.361 50.0806 114.899 50.0916Z" fill="#191816"/>
</g>
<defs>
<clipPath id="clip0_2547_40858">
<rect width="116.514" height="93.2114" fill="white" transform="translate(0.379883 0.643555)"/>
</clipPath>
</defs>
</svg>
