<svg width="199" height="19" viewBox="0 0 199 19" fill="none" xmlns="http://www.w3.org/2000/svg">
<g clip-path="url(#clip0_2547_40846)">
<path fill-rule="evenodd" clip-rule="evenodd" d="M197.847 0.893188H193.859L191.815 7.68014H190.821L188.778 0.893188H184.794L187.758 9.54954L184.543 18.3582H188.527L190.821 11.4207H191.815L194.108 18.3582H198.096L194.877 9.54954L197.847 0.893188ZM174.346 18.3703L173.974 14.2525H169.614L169.237 18.3703H165.502L167.197 0.901843H176.392L178.088 18.3703H174.346ZM170.483 4.64756L169.937 10.5085H173.649L173.103 4.64756H170.483ZM159.222 13.1291H151.244V18.3703H147.509V0.901843H159.222V13.1291ZM155.484 4.64756H151.244V9.38683H155.484V4.64756ZM140.66 4.64756H136.672V18.3703H132.937V4.64756H128.95V0.901843H140.663V4.64583H140.66V4.64756ZM122.567 6.34387H118.828V4.64583H115.29V14.6246H118.828V12.9266H122.567V18.3686H111.555V0.901843H122.567V6.34387ZM103.807 6.34387H100.07V4.64583H96.5324V14.6246H100.07V12.9266H103.807V18.3686H92.7939V0.901843H103.807V6.34387ZM85.469 18.3703H73.7592V0.901843H85.469V18.3703ZM81.7322 4.64756H77.496V14.6263H81.7322V4.64756ZM67.6373 4.64756H61.5603V18.3703H57.8235V0.901843H67.6373V4.64756ZM50.0735 6.34387H46.3367V4.64583H42.797V14.6246H46.3367V12.9266H50.0735V18.3686H39.0602V0.901843H50.0735V6.34387ZM30.9213 18.3703H19.2115V0.901843H30.9213V18.3703ZM27.181 4.64756H22.9465V14.6263H27.181V4.64756ZM11.7293 13.1291H3.75629V18.3703H0.0195312V0.901843H11.7293V13.1291ZM7.99256 4.64756H3.75629V9.38683H7.99256V4.64756Z" fill="#191816"/>
</g>
<defs>
<clipPath id="clip0_2547_40846">
<rect width="198.074" height="17.4771" fill="white" transform="translate(0.0185547 0.893188)"/>
</clipPath>
</defs>
</svg>
