<svg width="172" height="94" viewBox="0 0 172 94" fill="none" xmlns="http://www.w3.org/2000/svg">
<g clip-path="url(#clip0_2547_40841)">
<path d="M11.9823 52.7908L19.702 60.2583H19.6888H19.6568H19.6249H19.593H19.561H19.5291H19.4972H19.4652H19.4333H19.4014H19.3694H19.3375H19.3056H19.2736H19.2417H19.2098H19.1778H19.1459H19.1139H19.082H19.0501H19.0181H18.9862H18.9543H18.9223H18.8904H18.8585H18.8265H18.7946H18.7627H18.7307H18.6988H18.6668H18.6349H18.603H18.571H18.5391H18.5072H18.4752H18.4433H18.4114H18.3794H18.3475H18.3156H18.2836H18.2517H18.2197H18.1878H18.1559H18.1239H18.092H18.0601H18.0281H17.9962H17.9643H17.9323H17.9004H17.8685H17.8365H17.8046H17.7727H17.7407H17.7088H17.6768H17.6449H17.613H17.581H17.5491H17.5172H17.4852H17.4533H17.4214H17.3894H17.3575H17.3256H17.2936H17.2617H17.2297H17.1978H17.1659H17.1339H17.102H17.0701H17.0381H17.0062H16.9743H16.9423H16.9104H16.8785H16.8465H16.8146H16.7826H16.7507H16.7188H16.6868H16.6549H16.623H16.591H16.5591H16.5272H16.4952H16.4633H16.4314H16.3994H16.3675H16.3355H16.3036H16.2717H16.2397H16.2078H16.1759H16.1439H16.112H16.0801H16.0481H16.0162H15.9843H15.9523H15.9204H15.8885H15.8565H15.8246H15.7926H15.7607H15.7288H15.6968H15.6649H15.633H15.601H15.5691H15.5372H15.5052H15.4733H15.4414H15.4094H15.3775H15.3455H15.3136H15.2817H15.2497H15.2178H15.1859H15.1539H15.122H15.0901H15.0581H15.0262H14.9943H14.9623H14.9304H14.8984H14.8665H14.8346H14.8026H14.7707H14.7388H14.7068H14.6749H14.643H14.611H14.5791H14.5472H14.5152H14.4833H14.4513H14.4194H14.3875H14.3555H14.3236H14.2917H14.2597H14.2278H14.1959H14.1639H14.132H14.1001H14.0681H14.0362H14.0043H13.9723H13.9404H13.9084H13.8765H13.8446H13.8126H13.7807H13.7488H13.7168H13.6849H13.653H13.621H13.5891H13.5572H13.5252H13.4933H13.4613H13.4294H13.3975H13.3655H13.3336H13.3017H13.2697H13.2378H13.2059H13.1739H13.142H13.1101H13.0781H13.0462H13.0142H12.9823H12.9504H12.9184H12.8865H12.8546H12.8226H12.7907H12.7588H12.7268H12.6949H12.663H12.631H12.5991H12.5672H12.5352H12.5033H12.4713H12.4394H12.4075H12.3755H12.3436H12.3117H12.2797H12.2478H12.2159H12.1839H12.152H12.1201H12.0881H12.0562H12.0242H11.9923H11.9604H11.9284H11.8965H11.8646H11.8326H11.8007H11.7688H11.7368H11.7049H11.673H11.641H11.6091H11.5771H11.5452H11.5133H11.4813H11.4494H11.4175H11.3855H11.3536H11.3217H11.2897H11.2578H11.2259H11.1939H11.162H11.13H11.0981H11.0662H11.0342H11.0023H10.9704H10.9384H10.9065H10.8746H10.8426H10.8107H10.7788H10.7468H10.7149H10.683H10.651H10.6191H10.5871H10.5552H10.5233H10.4913H10.4594H10.4275H10.3955H10.3636H10.3317H10.2997H10.2678H10.2359H10.2039H10.172H10.14H10.1081H10.0762H10.0442H10.0123H9.98037H9.94843H9.9165H9.88456H9.85263H9.82069H9.78875H9.75682H9.72488H9.69295H9.66101H9.62908H9.59714H9.56521H9.53327H9.50133H9.4694H9.43746H9.40553H9.37359H9.34166H9.30972H9.27779H9.24585H9.21391H9.18198H9.15004H9.11811H9.08617H9.05424H9.0223H8.99037H8.95843H8.92649H8.89456H8.86262H8.83069H8.79875H8.76682H8.73488H8.70294H8.67101H8.63907H8.60714H8.5752H8.54327H8.51133H8.4794H8.44746H8.41552H8.38359H8.35165H8.31972H8.28778H8.25585H8.22391H8.19198H8.16004H8.1281H8.09617H8.06423H8.0323H8.00036H7.96843H7.93649H7.90455H7.87262H7.84068H7.80875H7.77681H7.74488H7.71294H7.68101H7.64907H7.61714H7.5852H7.55326H7.52133H7.48939H7.45746H7.42552H7.39359H7.36165H7.32971H7.29778H7.26584H7.23391H7.20197H7.17004H7.1381H7.10617H7.07423H7.04229H7.01036H6.97842H6.94649H6.91455H6.88262H6.85068H6.81875H6.78681H6.75487H6.72294H6.691H6.65907H6.62713H6.5952H6.56326H6.53132H6.49939H6.46745H6.43552H6.40358H6.37165H6.33971H6.30778H6.27584H6.2439H6.21197H6.18003H6.1481H6.11616H6.08423H6.05229H6.02036H5.98842H5.95648H5.92455H5.89261H5.86068H5.82874H5.79681H5.76487H5.73294H5.701H5.66906H5.63713H5.60519H5.57326H5.54132H5.50939H5.47745H5.44552H5.41358H5.38164H5.34971H5.31777H5.28584H5.2539H5.22197H5.19003H5.15809H5.12616H5.09422H5.06229H5.03035H4.99842H4.96648H4.93455H4.90261H4.87067H4.83874H4.8068H4.77487H4.74293H4.711H4.67906H4.64713H4.61519H4.58325H4.55132H4.51938H4.48745H4.45551H4.42358H4.39164H4.35971H4.32777H4.29583H4.2639H4.23196H4.20003H4.16809H4.13616H4.10422H4.07229H4.07221H4.07214H4.07207H4.072H4.07193H4.07186H4.07179H4.07172H4.07165H4.07158H4.07151H4.07144H4.07137H4.0713H4.07123H4.07116H4.07109H4.07102H4.07095H4.07088H4.07081H4.07074H4.07067H4.0706H4.07052H4.07045H4.07038H4.07031H4.07024H4.07017H4.0701H4.07003H4.06996H4.06989H4.06982H4.06975H4.06968H4.06961H4.06954H4.06947H4.0694H4.06933H4.06926H4.06919H4.06912H4.06905H4.06898H4.0689H4.06883H4.06876H4.06869H4.06862H4.06855H4.06848H4.06841H4.06834H4.06827H4.0682H4.06813H4.06806H4.06799H4.06792H4.06785H4.06778H4.06771H4.06764H4.06757H4.0675H4.06743H4.06736H4.06729H4.06721H4.06714H4.06707H4.067H4.06693H4.06686H4.06679H4.06672H4.06665H4.06658H4.06651H4.06644H4.06637H4.0663H4.06623H4.06616H4.06609H4.06602H4.06595H4.06588H4.06581H4.06574H4.06567H4.06559H4.06552H4.06545H4.06538H4.06531H4.06524H4.06517H4.0651H4.06503H4.06496H4.06489H4.06482H4.06475H4.06468H4.06461H4.06454H4.06447H4.0644H4.06433H4.06426H4.06419H4.06412H4.06405H4.06398H4.0639H4.06383H4.06376H4.06369H4.06362H4.06355H4.06348H4.06341H4.06334H4.06327H4.0632H4.06313H4.06306H4.06299H4.06292H4.06285H4.06278H4.06271H4.06264H4.06257H4.0625H4.06243H4.06236H4.06228H4.06221H4.06214H4.06207H4.062H4.06193H4.06186H4.06179H4.06172H4.06165H4.06158H4.06151H4.06144H4.06137H4.0613H4.06123H4.06116H4.06109H4.06102H4.06095H4.06088H4.06081H4.06074H4.06067H4.06059H4.06052H4.06045H4.06038H4.06031H4.06024H4.06017H4.0601H4.06003H4.05996H4.05989H4.05982H4.05975H4.05968H4.05961H4.05954H4.05947H4.0594H4.05933H4.05926H4.05919H4.05912H4.05905H4.05898H4.0589H4.05883H4.05876H4.05869H4.05862H4.05855H4.05848H4.05841H4.05834H4.05827H4.0582H4.05813H4.05806H4.05799H4.05792H4.05785H4.05778H4.05771H4.05764H4.05757H4.0575H4.05743H4.05736H4.05729H4.05721H4.05714H4.05707H4.057H4.05693H4.05686H4.05679H4.05672H4.05665H4.05658H4.05651H4.05644H4.05637H4.0563H4.05623H4.05616H4.05609H4.05602H4.05595H4.05588H4.05581H4.05574H4.05567H4.05559H4.05552H4.05545H4.05538H4.05531H4.05524H4.05517H4.0551H4.05503H4.05496H4.05489H4.05482H4.05475H4.05468H4.05461H4.05454H4.05447H4.0544H4.05433H4.05426H4.05419H4.05412H4.05405H4.05398H4.0539H4.05383H4.05376H4.05369H4.05362H4.05355H4.05348H4.05341H4.05334H4.05327H4.0532H4.05313H4.05306H4.05299H4.05292H4.05285H4.05278H4.05271H4.05264H4.05257H4.0525H4.05243H4.05236H4.05228H4.05221H4.05214H4.05207H4.052H4.05193H4.05186H4.05179H4.05172H4.05165H4.05158H4.05151H4.05144H4.05137H4.0513H4.05123H4.05116H4.05109H4.05102H4.05095H4.05088H4.05081H4.05074H4.05067H4.05059H4.05052H4.05045H4.05038H4.05031H4.05024H4.05017H4.0501H4.05003H4.04996H4.04989H4.04982H4.04975H4.04968H4.04961H4.04954H4.04947H4.0494H4.04933H4.04926H4.04919H4.04912H4.04905H4.04897H4.0489H4.04883H4.04876H4.04869H4.04862H4.04855H4.04848H4.04841H4.04834H4.04827H4.0482H4.04813H4.04806H4.04799H4.04792H4.04785H4.04778H4.04771H4.04764H4.04757H4.0475H4.04743H4.04736H4.04728H4.04721H4.04714H4.04707H4.047H4.04693H4.04686H4.04679H4.04672H4.04665H4.04658H4.04651H4.04644H4.04637H4.0463H4.04623H4.04616H4.04609H4.04602H4.04595H4.04588H4.04581H4.04574H4.04567H4.04559H4.04552H4.04545H4.04538H4.04531H4.04524H4.04517H4.0451H4.04503H4.04496H4.04489H4.04482H4.04475H4.04468H4.04461H4.04454H4.04447H4.0444H4.04433H4.04426H4.04419H4.04412H4.04405H4.04397H4.0439H4.04383H4.04376H4.04369H4.04362H4.04355H4.04348H4.04341H4.04334H4.04327H4.0432H4.04313H4.04306H4.04299H4.04292H4.04285H4.04278H4.04271H4.04264H4.04257H4.0425H4.04243H4.04236H4.04228H4.04221H4.04214H4.04207H4.042H4.04193H4.04186H4.04179H4.04172H4.04165H4.04158H4.04151H4.04144H4.04137H4.0413H4.04123H4.04116H4.04109H4.04102H4.04095H4.04088H4.04081H4.04074H4.04067H4.04059H4.04052H4.04045H4.04038H4.04031H4.04024H4.04017H4.0401H4.04003H4.03996H4.03989H4.03982H4.03975H4.03968H4.03961H4.03954H4.03947H4.0394H4.03933H4.03926H4.03919H4.03912H4.03905H4.03898H4.0389H4.03883H4.03876H4.03869H4.03862H4.03855H4.03848H4.03841H4.03834H4.03827H4.0382H4.03813H4.03806H4.03799H4.03792H4.03785H4.03778H4.03771H4.03764H4.03757H4.0375H4.03743H4.03736H4.03728H4.03721H4.03714H4.03707H4.037H4.03693H4.03686H4.03679H4.03672H4.03665H4.03658H4.03651H4.03644H4.03637H4.0363H4.03623C3.6182 60.2583 3.21164 60.1216 2.87855 59.869C2.04072 59.2337 1.8723 58.043 2.49752 57.2007L9.44123 50.333L9.92268 50.7986L11.9823 52.7908Z" stroke="#191816" stroke-width="0.58352"/>
<path fill-rule="evenodd" clip-rule="evenodd" d="M27.5072 32.2175L11.5695 16.2798L2.67118 25.5488C1.5631 26.7031 0.944336 28.2411 0.944336 29.8412L0.944336 57.0095C0.944336 58.9655 2.53001 60.5512 4.48605 60.5512C3.27422 60.5512 2.29184 59.5688 2.29184 58.357C2.29184 57.7736 2.52416 57.2142 2.93746 56.8025" fill="#191816"/>
<path fill-rule="evenodd" clip-rule="evenodd" d="M141.082 43.8831H137.25L132.672 48.5129V43.8831H129.431V56.6407H132.672V51.368L137.327 56.6407H141.237L135.218 49.7989L141.082 43.8831Z" fill="#191816"/>
<path fill-rule="evenodd" clip-rule="evenodd" d="M38.2395 47.1949H33.5581V41.5363H38.2395C40.6057 41.5363 41.6861 42.6679 41.6861 44.3655C41.6861 46.0631 40.6057 47.1949 38.2395 47.1949ZM38.3423 38.5011H30.1631V56.506H33.5581V50.2299H38.3423C42.4063 50.2299 45.0813 48.1466 45.0813 44.3655C45.0813 40.5844 42.4063 38.5011 38.3423 38.5011Z" fill="#191816"/>
<path fill-rule="evenodd" clip-rule="evenodd" d="M52.7449 53.966C50.8417 53.966 49.0668 52.6027 49.0668 50.262C49.0668 47.9215 50.8417 46.5584 52.7449 46.5584C54.6483 46.5584 56.423 47.9215 56.423 50.262C56.423 52.6027 54.6483 53.966 52.7449 53.966ZM52.7449 43.5232C49.2469 43.5232 45.7744 45.7868 45.7744 50.262C45.7744 54.7378 49.2469 57.001 52.7449 57.001C56.2432 57.001 59.7155 54.7378 59.7155 50.262C59.7155 45.7868 56.2432 43.5232 52.7449 43.5232Z" fill="#191816"/>
<path fill-rule="evenodd" clip-rule="evenodd" d="M67.9899 53.966C66.0351 53.966 64.5947 52.5513 64.5947 50.262C64.5947 47.9986 66.0865 46.5584 67.9899 46.5584C69.1474 46.5584 70.1505 47.0985 70.9478 48.3074L73.7256 46.7126C72.7998 44.7319 70.7934 43.5232 68.0156 43.5232C64.3889 43.5232 61.3022 46.1982 61.3022 50.262C61.3022 54.326 64.2347 57.001 68.0156 57.001C70.742 57.001 72.5681 55.7666 73.8543 53.5803L71.1793 52.1142C70.4077 53.1944 69.5845 53.966 67.9899 53.966Z" fill="#191816"/>
<path fill-rule="evenodd" clip-rule="evenodd" d="M102.497 51.1108C102.343 53.0654 101.956 53.5029 101.288 53.5029C100.831 53.5029 100.616 53.4522 100.303 53.3702L100.319 56.6719C100.319 56.6719 100.722 56.7949 101.468 56.7949C104.22 56.7949 105.249 55.0202 105.507 51.2393L105.815 46.7896H109.467V56.615H112.708V43.8831H103.037L102.497 51.1108Z" fill="#191816"/>
<path fill-rule="evenodd" clip-rule="evenodd" d="M89.7553 48.5646C90.2183 47.1242 91.5043 45.9924 93.2019 45.9924C95.0025 45.9924 96.2114 46.9698 96.52 48.5646H89.7553ZM93.3049 43.5232C89.6011 43.5232 86.5916 46.2239 86.5916 50.262C86.5916 54.3003 89.6011 57.001 93.1505 57.001C95.9542 57.001 97.7289 55.9465 99.0149 53.7602L96.4427 52.4742C95.6454 53.4773 94.9252 54.223 93.2019 54.223C91.2987 54.223 89.9097 52.9886 89.7039 51.0338H99.5293V49.902C99.5293 46.1725 96.9573 43.5232 93.3049 43.5232Z" fill="#191816"/>
<path fill-rule="evenodd" clip-rule="evenodd" d="M117.686 48.5646C118.149 47.1242 119.435 45.9924 121.132 45.9924C122.933 45.9924 124.142 46.9698 124.45 48.5646H117.686ZM121.235 43.5232C117.531 43.5232 114.522 46.2239 114.522 50.262C114.522 54.3003 117.531 57.001 121.081 57.001C123.884 57.001 125.659 55.9465 126.945 53.7602L124.373 52.4742C123.576 53.4773 122.856 54.223 121.132 54.223C119.229 54.223 117.84 52.9886 117.634 51.0338H127.46V49.902C127.46 46.1725 124.887 43.5232 121.235 43.5232Z" fill="#191816"/>
<path fill-rule="evenodd" clip-rule="evenodd" d="M74.8616 46.7123H78.6684V56.6407H81.909V46.7123H85.716V43.8831H74.8616V46.7123Z" fill="#191816"/>
<path fill-rule="evenodd" clip-rule="evenodd" d="M147.671 53.966C145.768 53.966 143.993 52.6027 143.993 50.262C143.993 47.9215 145.768 46.5584 147.671 46.5584C149.574 46.5584 151.349 47.9215 151.349 50.262C151.349 52.6027 149.574 53.966 147.671 53.966ZM147.671 43.5232C144.173 43.5232 140.7 45.7866 140.7 50.262C140.7 54.7376 144.173 57.001 147.671 57.001C151.169 57.001 154.642 54.7376 154.642 50.262C154.642 45.7866 151.169 43.5232 147.671 43.5232Z" fill="#191816"/>
<path fill-rule="evenodd" clip-rule="evenodd" d="M167.537 43.8804L164.02 52.8151L160.502 43.8804H156.266V56.6149H159.347V48.553L162.762 56.6149H165.278L168.692 48.553V56.6149H171.773V43.8804H167.537Z" fill="#191816"/>
</g>
<defs>
<clipPath id="clip0_2547_40841">
<rect width="170.402" height="93.2114" fill="white" transform="translate(0.944336 0.547974)"/>
</clipPath>
</defs>
</svg>
