<svg width="119" height="94" viewBox="0 0 119 94" fill="none" xmlns="http://www.w3.org/2000/svg">
<path d="M46.2892 52.3696C45.4614 52.3696 44.6856 52.2663 43.9618 52.0605C43.2377 51.8538 42.6063 51.5338 42.066 51.0996C41.5396 50.6728 41.1294 50.1371 40.8343 49.4935C40.5388 48.8492 40.3909 48.1045 40.3909 47.2585C40.3909 46.1656 40.5982 45.1506 41.0126 44.2139C41.4266 43.2769 42.0084 42.4583 42.7567 41.7562C43.492 41.0682 44.3884 40.5237 45.4467 40.1224C46.5055 39.7205 47.651 39.5202 48.8816 39.5202C49.6239 39.5202 50.3599 39.6031 51.0911 39.7698C51.8219 39.9361 52.5004 40.1782 53.1269 40.4957L52.306 43.8253H51.7546C51.3307 43.312 50.8497 42.9306 50.3132 42.681C49.7767 42.4317 49.1736 42.3063 48.5035 42.3063C47.2795 42.3063 46.2962 42.7437 45.5549 43.6158C44.8126 44.4874 44.4418 45.576 44.4418 46.8786C44.4418 47.7841 44.6706 48.4608 45.128 48.9091C45.5857 49.358 46.2962 49.5827 47.2617 49.5827C48.0099 49.5827 48.6926 49.4287 49.3086 49.122C49.9243 48.8146 50.4517 48.4735 50.8915 48.0974H51.442L50.6212 51.4256C49.8433 51.7656 49.1607 52.0075 48.5743 52.1526C47.9873 52.2968 47.2247 52.3696 46.2892 52.3696Z" fill="#191816"/>
<path d="M62.7008 44.3893C62.7228 44.2583 62.7384 44.1381 62.7495 44.0303C62.7607 43.9208 62.7663 43.809 62.7663 43.6921C62.7663 43.1185 62.5885 42.6795 62.2347 42.3744C61.8803 42.0692 61.3706 41.9165 60.7062 41.9165C59.9038 41.9165 59.2292 42.1346 58.6833 42.5702C58.1367 43.0068 57.724 43.613 57.4419 44.3893H62.7008ZM59.7249 52.3701C57.6567 52.3701 56.0609 51.9108 54.9356 50.9913C53.8121 50.0721 53.249 48.8025 53.249 47.182C53.249 46.0752 53.4329 45.0587 53.8005 44.1329C54.1678 43.2067 54.6977 42.3934 55.3901 41.6909C56.0525 41.0106 56.8817 40.4728 57.8755 40.0737C58.8707 39.6762 59.9632 39.4766 61.1531 39.4766C62.9603 39.4766 64.3252 39.8446 65.2443 40.5792C66.1628 41.3142 66.6225 42.3987 66.6225 43.8318C66.6225 44.3244 66.573 44.8053 66.4764 45.2762C66.3788 45.7468 66.2507 46.2142 66.0924 46.6768H57.0627V46.9267C57.0627 47.7717 57.3592 48.4338 57.9495 48.9107C58.5421 49.3883 59.4491 49.6265 60.6692 49.6265C61.521 49.6265 62.3271 49.4822 63.0893 49.1929C63.8509 48.9041 64.5139 48.5812 65.0766 48.2279H65.5102L64.7846 51.3614C64.0284 51.694 63.2323 51.9455 62.3958 52.1146C61.5608 52.2851 60.6702 52.3701 59.7249 52.3701Z" fill="#191816"/>
<path d="M81.1472 40.3119C80.542 39.7846 79.6944 39.5206 78.6053 39.5206C77.8121 39.5206 77.0862 39.6695 76.4259 39.9642C75.7652 40.2615 75.0365 40.6737 74.236 41.2013L74.5565 39.8564L69.2886 39.8575L68.6935 42.4269H70.0512L67.84 52.0328H71.753L73.7288 43.4023C74.2332 43.1348 74.687 42.9349 75.0913 42.8001C75.4945 42.6667 75.8517 42.5999 76.1618 42.5999C76.796 42.5999 77.2317 42.708 77.4696 42.9244C77.7075 43.1425 77.8268 43.4853 77.8268 43.9553C77.8268 44.2301 77.7978 44.5278 77.7396 44.8446C77.6826 45.1626 77.6035 45.546 77.5034 45.9935L76.1234 52.0328H80.062L81.8728 44.1068C81.9366 43.833 81.9848 43.569 82.0126 43.3152C82.0413 43.0624 82.0552 42.8271 82.0552 42.6104C82.0552 41.6057 81.7524 40.8393 81.1472 40.3119Z" fill="#191816"/>
<path d="M101.688 44.3893C101.709 44.2583 101.725 44.1381 101.736 44.0303C101.747 43.9208 101.753 43.809 101.753 43.6921C101.753 43.1185 101.575 42.6795 101.221 42.3744C100.867 42.0692 100.357 41.9165 99.6921 41.9165C98.8894 41.9165 98.2155 42.1346 97.67 42.5702C97.1241 43.0068 96.711 43.613 96.4278 44.3893H101.688ZM98.7119 52.3701C96.643 52.3701 95.0472 51.9108 93.9225 50.9913C92.7987 50.0721 92.2349 48.8025 92.2349 47.182C92.2349 46.0752 92.4192 45.0587 92.7865 44.1329C93.1541 43.2067 93.6839 42.3934 94.3763 41.6909C95.0391 41.0106 95.8676 40.4728 96.8624 40.0737C97.8573 39.6762 98.9488 39.4766 100.139 39.4766C101.947 39.4766 103.311 39.8446 104.231 40.5792C105.15 41.3142 105.609 42.3987 105.609 43.8318C105.609 44.3244 105.56 44.8053 105.462 45.2762C105.366 45.7468 105.237 46.2142 105.078 46.6768H96.0489V46.9267C96.0489 47.7717 96.3447 48.4338 96.9367 48.9107C97.529 49.3883 98.4349 49.6265 99.6554 49.6265C100.507 49.6265 101.314 49.4822 102.075 49.1929C102.838 48.9041 103.501 48.5812 104.063 48.2279H104.496L103.772 51.3614C103.015 51.694 102.218 51.9455 101.383 52.1146C100.546 52.2851 99.6565 52.3701 98.7119 52.3701Z" fill="#191816"/>
<path d="M117.074 43.5757H116.73C116.556 43.5176 116.312 43.4745 115.995 43.4462C115.679 43.417 115.366 43.4017 115.058 43.4017C114.546 43.4017 114.053 43.4405 113.579 43.5158C113.105 43.5922 112.616 43.7122 112.113 43.8793L110.229 52.0328H106.314L109.127 39.8561H113.043L112.63 41.6456C113.362 41.1036 114.094 40.6628 114.825 40.3224C115.554 39.9832 116.29 39.813 117.031 39.813C117.167 39.813 117.32 39.8168 117.488 39.8238C117.659 39.8312 117.808 39.842 117.936 39.8561L117.074 43.5757Z" fill="#191816"/>
<path d="M90.2461 39.8566L91.0431 36.3761H87.1406L86.341 39.8566H84.7389L84.1439 42.4268H85.7851L83.5777 52.0334H87.4803C87.5041 51.935 87.5239 51.8359 87.5472 51.7372L89.687 42.4268H92.2846L92.8759 39.8566H90.2461Z" fill="#191816"/>
<path d="M13.8893 42.3637C13.5817 42.162 13.1269 42.0615 12.5267 42.0615H10.999L10.2532 45.2898H11.7726C12.5921 45.2898 13.227 45.1225 13.6768 44.787C14.127 44.4512 14.3519 43.9852 14.3519 43.3907C14.3519 42.9075 14.1986 42.5647 13.8893 42.3637ZM29.4757 47.4752C29.0853 49.1384 28.423 50.3446 27.4903 51.095C26.5573 51.8454 25.2063 52.2211 23.4376 52.2211C21.8611 52.2211 20.6685 51.9371 19.8592 51.3695C19.0499 50.8016 18.6458 49.9427 18.6458 48.7903C18.6458 48.5543 18.6638 48.3144 18.7013 48.0722C18.7387 47.8299 18.7789 47.6093 18.8225 47.4103L20.5421 39.969H23.6556L21.9412 47.4181C21.9027 47.569 21.8724 47.735 21.8479 47.915C21.8227 48.0946 21.8113 48.2448 21.8113 48.3628C21.8113 48.8684 21.963 49.2525 22.2669 49.5131C22.5694 49.774 23.0718 49.9048 23.774 49.9048C24.4562 49.9048 25.0067 49.7157 25.4267 49.3393C25.8473 48.963 26.1496 48.3768 26.3324 47.5802L28.0923 39.969H31.2116L29.4757 47.4752ZM17.1909 51.9872H13.7439L11.4895 47.5802H9.75492L8.73845 51.9872H5.65175L8.41509 39.969H13.0878C14.5522 39.969 15.6829 40.2173 16.4827 40.7148C17.2814 41.2128 17.6804 41.9736 17.6804 42.995C17.6804 43.9589 17.3884 44.7682 16.8038 45.4243C16.2197 46.0813 15.427 46.5764 14.4234 46.91L17.1909 51.9872ZM18.5629 27.6721C8.32966 27.6721 0.0349121 35.9997 0.0349121 46.2717C0.0349121 56.5444 8.32966 64.8717 18.5629 64.8717C28.796 64.8717 37.0928 56.5444 37.0928 46.2717C37.0928 35.9997 28.796 27.6721 18.5629 27.6721Z" fill="#191816"/>
<path d="M79.8444 61.8842C93.5322 61.6699 105.172 63.4276 116.878 66.2236C106.77 61.6572 95.8159 58.7028 83.3359 57.9226C80.5849 57.7507 77.7599 57.6843 74.8535 57.7297C51.3268 58.0973 30.4295 65.6526 16.7693 77.1906C33.077 68.2356 55.2881 62.2665 79.8444 61.8842Z" fill="#191816"/>
</svg>
