<svg width="161" height="27" viewBox="0 0 161 27" fill="none" xmlns="http://www.w3.org/2000/svg">
<g clip-path="url(#clip0_2547_40886)">
<path d="M22.7473 5.47852C23.3396 6.27997 23.8396 7.16158 24.2319 8.08326L12.9242 16.8833L8.20117 13.7656V9.99874L12.9242 13.1244L22.7473 5.47852Z" fill="#191816"/>
<path d="M3.37703 13.4939C3.37703 13.3256 3.38473 13.1573 3.39242 12.989L0.530889 12.8447C0.515505 13.0611 0.507812 13.2775 0.507812 13.5019C0.507812 15.2251 0.830888 16.9242 1.45396 18.5191C2.07704 20.1059 2.99242 21.5566 4.14626 22.7668L6.17702 20.6189C5.29241 19.6812 4.58472 18.5752 4.1078 17.3489C3.63088 16.1227 3.37703 14.8243 3.37703 13.4939Z" fill="#191816"/>
<path d="M12.9244 3.41916C13.0859 3.41916 13.2397 3.42718 13.4013 3.43519L13.5474 0.413692C13.3397 0.397663 13.132 0.389648 12.9244 0.389648C11.2936 0.389648 9.67821 0.726261 8.17052 1.38346C6.66284 2.04065 5.29361 3.01042 4.14746 4.22863L6.17822 6.37654C7.06283 5.43884 8.11668 4.69348 9.27052 4.18856C10.4244 3.68364 11.6705 3.41916 12.9244 3.41916Z" fill="#191816"/>
<path d="M12.9258 23.5757C12.7643 23.5757 12.6104 23.5757 12.4489 23.5597L12.3027 26.5812C12.5104 26.5892 12.7181 26.5972 12.9258 26.5972C14.5566 26.5972 16.1719 26.2606 17.6719 25.6034C19.1719 24.9462 20.5489 23.9765 21.695 22.7583L19.6642 20.6104C18.7796 21.5481 17.7258 22.2934 16.5719 22.7983C15.4181 23.3033 14.1796 23.5757 12.9258 23.5757Z" fill="#191816"/>
<path d="M18.3016 5.1744L20.717 3.29899C18.5093 1.40755 15.7554 0.38168 12.917 0.389695V3.41921C14.8401 3.41119 16.717 4.02832 18.3016 5.1744Z" fill="#191816"/>
<path d="M25.3397 13.4928C25.3397 12.7074 25.2782 11.9219 25.1474 11.1445L22.4782 13.2203C22.4782 13.3085 22.4782 13.3966 22.4782 13.4928C22.4782 14.9034 22.2012 16.2979 21.6551 17.5802C21.1166 18.8706 20.3243 20.0167 19.332 20.9624L21.2628 23.2145C22.5474 21.9883 23.5782 20.4895 24.2859 18.8145C24.9782 17.1394 25.3397 15.3281 25.3397 13.4928Z" fill="#191816"/>
<path d="M12.9215 23.5759C11.5908 23.5759 10.2677 23.2793 9.05231 22.7103C7.83693 22.1412 6.74462 21.2997 5.84463 20.2578L3.71387 22.2935C4.8754 23.656 6.29847 24.738 7.88308 25.4833C9.46769 26.2287 11.1831 26.6134 12.9215 26.6054V23.5759Z" fill="#191816"/>
<path d="M6.52318 6.02456L4.60011 3.77246C3.3078 5.00671 2.27704 6.50544 1.56935 8.18048C0.86935 9.85553 0.507812 11.6668 0.507812 13.4942H3.37703C3.37703 12.0836 3.65396 10.6891 4.20011 9.40672C4.73857 8.12438 5.53087 6.97028 6.52318 6.02456Z" fill="#191816"/>
<path d="M72.149 7.88336L75.7028 5.15039H63.8105V21.5643H75.6951V18.8313H67.2028V14.6236H74.449V11.8907H67.2028V7.88336H72.149Z" fill="#191816"/>
<path d="M55.816 11.5462H51.6853V7.88357H58.2698L61.816 5.14258H48.293V21.5564H55.3699C59.3391 21.5564 61.616 19.681 61.616 16.4031C61.6237 13.2694 59.5622 11.5462 55.816 11.5462ZM55.2237 18.8315H51.6853V14.2792H55.2237C57.3699 14.2792 58.3775 15.0406 58.3775 16.5553C58.3775 18.0621 57.3083 18.8315 55.2237 18.8315Z" fill="#191816"/>
<path d="M84.4409 5.15039H77.9717V21.5643H81.364V16.9158H84.4409C88.5716 16.9158 91.1255 14.6477 91.1255 11.0251C91.1178 7.40249 88.564 5.15039 84.4409 5.15039ZM84.364 14.1828H81.3563V7.88336H84.364C86.5332 7.88336 87.7332 9.00541 87.7332 11.0331C87.7332 13.0608 86.5409 14.1828 84.364 14.1828Z" fill="#191816"/>
<path d="M43.2081 17.6929C42.3312 18.1898 41.3466 18.4463 40.3543 18.4383C37.3696 18.4383 35.2081 16.2182 35.2081 13.1566C35.2081 10.0951 37.3696 7.86702 40.3543 7.86702C41.4312 7.85099 42.485 8.1876 43.3619 8.83678L45.7312 7.00946L45.5696 6.88924C44.185 5.62293 42.3389 4.94971 40.2235 4.94971C37.9312 4.94971 35.8466 5.75918 34.362 7.22585C33.6081 7.97922 33.0158 8.89288 32.6158 9.89471C32.2158 10.9045 32.0158 11.9785 32.0389 13.0685C32.0235 14.1665 32.2158 15.2645 32.6158 16.2823C33.0158 17.3002 33.6004 18.2299 34.3466 18.9993C35.8389 20.522 37.9158 21.3636 40.1927 21.3636C42.5773 21.3636 44.6542 20.498 46.0619 18.9191L43.9389 17.2681L43.2081 17.6929Z" fill="#191816"/>
<path d="M104.57 11.5462H100.447V7.88357H109.308V5.14258H97.0469V21.5564H104.116C108.085 21.5564 110.362 19.681 110.362 16.4031C110.378 13.2694 108.316 11.5462 104.57 11.5462ZM103.978 18.8315H100.439V14.2792H103.978C106.124 14.2792 107.131 15.0406 107.131 16.5553C107.131 18.0621 106.07 18.8315 103.978 18.8315Z" fill="#191816"/>
<path d="M148.931 21.5405H145.492V5.11865H148.931V12.0112H150.8L155.854 5.11865H159.754L153.761 12.9249L160.723 21.5325H156.161L151.046 15.0728H148.938V21.5405H148.931Z" fill="#191816"/>
<path d="M122.861 18.4145H115.584L114.353 21.6043H110.691L117.514 5.19043H121.176L127.891 21.6043H124.099L122.861 18.4145ZM121.722 15.4411L119.245 9.06148L116.753 15.4411H121.722Z" fill="#191816"/>
<path d="M132.516 5.19043V12.0429H139.631V5.19043H143.177V21.6043H139.631V15.1365H132.516V21.6043H128.97V5.19043H132.516Z" fill="#191816"/>
</g>
<defs>
<clipPath id="clip0_2547_40886">
<rect width="160.207" height="26.2157" fill="white" transform="translate(0.508789 0.389648)"/>
</clipPath>
</defs>
</svg>
