<svg width="72" height="21" viewBox="0 0 72 21" fill="none" xmlns="http://www.w3.org/2000/svg">
<path fill-rule="evenodd" clip-rule="evenodd" d="M0.52832 20.5456H4.28409V16.6133H0.52832V20.5456ZM68.1372 20.5456H71.8933V16.6133H68.1372V20.5456Z" fill="#191816"/>
<path fill-rule="evenodd" clip-rule="evenodd" d="M4.35352 7.06202H16.2536V3.13061H4.35352V7.06202ZM8.00127 20.5422H12.6349V7.97435H8.00127V20.5422ZM17.2332 20.5422H21.8669V3.13061H17.2332V20.5422ZM29.4141 20.5422H34.0478V3.13061H29.4141V20.5422ZM22.8537 7.06202H27.4868V3.13061H22.8537V7.06202ZM22.8537 13.8018H27.4868V9.87008H22.8537V13.8018ZM22.8537 20.5422H27.4868V16.6099H22.8537V20.5422ZM34.9992 20.5422H39.6329V16.6099H34.9992V20.5422ZM40.6122 20.5422H45.2453V3.13061H40.6122V20.5422ZM46.2331 7.06202H50.8661V3.13061H46.2327L46.2331 7.06202ZM46.2331 13.8018H50.8661V9.87008H46.2327L46.2331 13.8018ZM46.2331 20.5422H50.8661V16.6099H46.2327L46.2331 20.5422ZM59.5711 4.57393V0.497559C55.4647 0.602755 53.2183 3.84851 53.2183 8.46621H57.5702C57.4306 6.71074 58.0974 5.0614 59.5711 4.57393Z" fill="#191816"/>
<path fill-rule="evenodd" clip-rule="evenodd" d="M67.0139 6.32403C67.0502 3.12994 64.7669 0.427071 60.5897 0.532268V4.56888C61.818 4.92016 62.5208 5.48121 62.5208 6.71007C62.5208 9.30774 59.0803 12.572 53.2188 16.8196V20.5412H66.9792V16.644H60.0287C65.8903 11.9755 66.9789 9.37787 67.0139 6.32403Z" fill="#191816"/>
</svg>
