<svg width="85" height="94" viewBox="0 0 85 94" fill="none" xmlns="http://www.w3.org/2000/svg">
<g clip-path="url(#clip0_2547_40869)">
<path d="M0.527466 40.115H8.82833C12.5596 46.6188 17.9404 52.016 24.424 55.7581V64.0829C18.8795 62.1862 13.8424 59.039 9.70021 54.8834C5.55799 50.7278 2.42096 45.6745 0.530368 40.1121" fill="#191816"/>
<path d="M24.4239 40.1149V55.7609C17.941 52.0176 12.5613 46.6194 8.83118 40.1149H24.4239Z" fill="#191816"/>
<path d="M24.4241 40.1148H8.82841C6.85737 36.6788 5.38143 32.9799 4.44458 29.1285H13.4703C14.9086 29.1282 16.3329 29.412 17.6619 29.964C18.9909 30.5159 20.1984 31.3251 21.2156 32.3453C22.2328 33.3655 23.0397 34.5768 23.5902 35.9099C24.1407 37.243 24.4241 38.6718 24.4241 40.1148Z" fill="#191816"/>
<path d="M35.3751 51.1011V60.1502C31.5361 59.2131 27.849 57.7343 24.4242 55.758V40.1149C27.3288 40.1156 30.1142 41.2738 32.1678 43.3345C34.2214 45.3953 35.3751 48.19 35.3751 51.104" fill="#191816"/>
<path d="M24.3333 29.1285C24.931 31.8372 26.2874 34.3183 28.2427 36.2799C30.1981 38.2416 32.6712 39.6023 35.3711 40.2021V29.1285H24.3333Z" fill="#191816"/>
<path d="M67.0762 53.8791L62.4692 47.4188V53.8791H59.0131V40.0685H62.4663V46.107L66.5486 40.0685H70.3177L65.8846 46.3164L71.1179 53.8791H67.0878H67.0762ZM78.0619 51.4619C80.3118 51.4619 81.1497 49.6236 81.1497 46.9999C81.1497 44.6381 80.4684 42.695 78.1663 42.695C76.9109 42.695 75.9657 43.0092 75.2872 43.588C75.1307 44.481 75.1799 45.8975 75.1799 46.7876C75.1799 49.6236 76.07 51.4619 78.059 51.4619H78.0619ZM74.919 41.3279C76.0645 40.4066 77.4812 39.8902 78.9491 39.859C82.8748 39.859 84.7478 42.6427 84.7478 46.6334C84.7478 51.6743 81.921 54.2485 77.8387 54.2485C73.8085 54.2485 71.6079 51.6743 71.6079 45.7405C71.6079 40.7956 72.7213 37.4041 74.4348 35.8159C76.389 34.0038 77.0008 34.0299 79.3028 33.4511C80.7177 33.0846 82.0775 32.8694 82.5994 32.6628L83.8548 35.4988C83.1735 35.9206 81.9181 36.1824 79.4072 36.706C76.5282 37.2877 75.2176 38.2796 74.9045 41.3279H74.919ZM53.5478 42.6921V53.8791H50.1672V42.695H46.5546V40.0772H57.1865V42.695H53.571L53.5478 42.6921Z" fill="#191816"/>
</g>
<defs>
<clipPath id="clip0_2547_40869">
<rect width="84.4728" height="93.2114" fill="white" transform="translate(0.527466)"/>
</clipPath>
</defs>
</svg>
