<svg width="36" height="36" viewBox="0 0 36 36" fill="none" xmlns="http://www.w3.org/2000/svg">
<g clip-path="url(#clip0_2547_40905)">
<path fill-rule="evenodd" clip-rule="evenodd" d="M2.69439 3.12896C0.237305 5.58605 0.237305 9.54065 0.237305 17.4499V18.8481C0.237305 26.7574 0.237305 30.7119 2.69439 33.1691C5.15148 35.6262 9.10608 35.6262 17.0154 35.6262H18.4135C26.3228 35.6262 30.2774 35.6262 32.7345 33.1691C35.1916 30.7119 35.1916 26.7574 35.1916 18.8481V17.4499C35.1916 9.54065 35.1916 5.58605 32.7345 3.12896C30.2774 0.671875 26.3228 0.671875 18.4135 0.671875H17.0154C9.10608 0.671875 5.15148 0.671875 2.69439 3.12896ZM6.13593 11.3039C6.32526 20.392 10.8693 25.8536 18.836 25.8536H19.2875V20.6541C22.215 20.9454 24.4286 23.0864 25.317 25.8536H29.4533C28.3173 21.7173 25.3315 19.4307 23.4673 18.5569C25.3315 17.4791 27.9531 14.8576 28.5793 11.3039H24.8217C24.0061 14.1876 21.5887 16.8092 19.2875 17.0568V11.3039H15.5298V21.3824C13.1995 20.7998 10.2576 17.9743 10.1265 11.3039H6.13593Z" fill="#191816"/>
</g>
<defs>
<clipPath id="clip0_2547_40905">
<rect width="34.9543" height="34.9543" fill="white" transform="translate(0.237305 0.671875)"/>
</clipPath>
</defs>
</svg>
