<svg width="84" height="94" viewBox="0 0 84 94" fill="none" xmlns="http://www.w3.org/2000/svg">
<path d="M40.9885 45.62L51.0773 55.5937H30.8997L40.9885 45.62Z" fill="#191816" stroke="#191816" stroke-width="0.116704"/>
<path d="M10.3628 55.7339L20.4808 65.6778H0.303893L10.3628 55.7339Z" fill="#191816" stroke="#191816" stroke-width="0.116704"/>
<path d="M20.6232 65.6541L10.5053 55.7103H30.6162L20.6232 65.6541Z" fill="#191816" stroke="#191816" stroke-width="0.116704"/>
<path d="M30.7581 35.569L40.8761 45.5096H20.7026L30.7581 35.569Z" fill="#191816" stroke="#191816" stroke-width="0.116704"/>
<path d="M51.1856 35.5621L61.2741 45.5093H41.1004L51.1856 35.5621Z" fill="#191816" stroke="#191816" stroke-width="0.116704"/>
<path d="M40.9884 45.4857L30.9 35.5451L51.0439 35.5386L40.9884 45.4857Z" fill="#191816" stroke="#191816" stroke-width="0.116704"/>
<path d="M61.3703 45.4856L51.3279 35.5386L71.4422 35.5451L61.3703 45.4856Z" fill="#191816" stroke="#191816" stroke-width="0.116704"/>
<path d="M20.5604 45.6498L30.741 55.5938H10.5047L20.5604 45.6498Z" fill="#191816" stroke="#191816" stroke-width="0.116704"/>
<path d="M30.7581 55.5702L20.7025 45.6263H40.8465L30.7581 55.5702Z" fill="#191816" stroke="#191816" stroke-width="0.116704"/>
<path d="M51.2189 55.5701L41.1306 45.6263H61.2283L51.2189 55.5701Z" fill="#191816" stroke="#191816" stroke-width="0.116704"/>
<path d="M40.9586 25.4849L51.0436 35.4221L30.8998 35.4287L40.9586 25.4849Z" fill="#191816" stroke="#191816" stroke-width="0.116704"/>
<path d="M61.4167 25.4849L71.4426 35.4287L51.3284 35.4221L61.4167 25.4849Z" fill="#191816" stroke="#191816" stroke-width="0.116704"/>
<path d="M51.1856 35.3985L41.1005 25.4612H61.274L51.1856 35.3985Z" fill="#191816" stroke="#191816" stroke-width="0.116704"/>
<path d="M31.8638 59.8077C31.8638 59.6893 31.9108 59.5757 31.9946 59.492C32.0783 59.4082 32.1919 59.3612 32.3103 59.3612H36.166C37.3824 59.3612 38.6354 59.8844 38.6354 61.294C38.64 61.5394 38.5839 61.7821 38.4723 62.0006C38.3607 62.2192 38.197 62.4069 37.9956 62.547C38.2814 62.6955 38.5191 62.9222 38.6808 63.2008C38.8425 63.4793 38.9215 63.7982 38.9087 64.12C38.9087 65.4697 37.7223 66.1595 36.3926 66.1595H32.3103C32.1919 66.1595 32.0783 66.1124 31.9946 66.0287C31.9108 65.9449 31.8638 65.8314 31.8638 65.7129V59.8077ZM33.6533 60.6442V62.0038H36.1894C36.3697 62.0038 36.5426 61.9322 36.6701 61.8047C36.7976 61.6772 36.8692 61.5043 36.8692 61.324C36.8692 61.1437 36.7976 60.9708 36.6701 60.8433C36.5426 60.7158 36.3697 60.6442 36.1894 60.6442H33.6533ZM33.6533 63.2469V64.8798H36.3626C36.5665 64.8614 36.756 64.7674 36.894 64.6163C37.0321 64.4652 37.1086 64.268 37.1086 64.0633C37.1086 63.8587 37.0321 63.6615 36.894 63.5104C36.756 63.3593 36.5665 63.2653 36.3626 63.2469H33.6533Z" fill="#191816"/>
<path d="M41.9977 64.7366C42.261 64.7366 42.5109 64.8232 42.7942 64.8232H42.8875C43.5074 64.8232 43.9473 64.4133 44.1805 63.5902H43.7706C42.1044 63.5902 41.3712 62.9237 40.7714 61.5207L40.0249 59.8111C39.9183 59.5579 40.0449 59.3646 40.2882 59.3646H41.2879C41.4239 59.3629 41.5571 59.4029 41.6697 59.4792C41.7822 59.5554 41.8688 59.6643 41.9178 59.7911L42.461 61.1241C42.7609 61.8439 43.2008 62.2605 44.0372 62.2605H44.6204L45.4769 59.8111C45.5179 59.6856 45.5971 59.576 45.7035 59.4977C45.8098 59.4194 45.938 59.3764 46.0701 59.3746H47.0332C47.0856 59.3705 47.1382 59.3802 47.1858 59.4026C47.2333 59.4251 47.2742 59.4595 47.3045 59.5025C47.3347 59.5455 47.3533 59.5957 47.3583 59.648C47.3633 59.7004 47.3546 59.7531 47.3331 59.8011L45.7868 64.2334C45.3869 65.3797 44.6404 66.1762 42.9975 66.1762H41.8511C41.7327 66.1762 41.6191 66.1292 41.5353 66.0454C41.4516 65.9617 41.4046 65.8481 41.4046 65.7297V65.1964C41.4037 65.1376 41.4146 65.0791 41.4367 65.0245C41.4588 64.9699 41.4917 64.9203 41.5333 64.8787C41.575 64.837 41.6246 64.8042 41.6792 64.7821C41.7337 64.7599 41.7922 64.749 41.8511 64.7499L41.9977 64.7366Z" fill="#191816"/>
<path d="M54.6347 66.1659H53.7316C53.6132 66.1659 53.4996 66.1189 53.4159 66.0351C53.3321 65.9514 53.2851 65.8378 53.2851 65.7194V60.7206H52.1287C51.8424 60.7123 51.5618 60.8024 51.3338 60.9758C51.1058 61.1493 50.9441 61.3956 50.8757 61.6737L49.786 65.736C49.7515 65.8605 49.6784 65.9709 49.5771 66.0511C49.4759 66.1314 49.3518 66.1774 49.2228 66.1826H48.263C48.2135 66.1848 48.1642 66.175 48.1192 66.1542C48.0743 66.1333 48.035 66.102 48.0046 66.0628C47.9742 66.0237 47.9537 65.9778 47.9448 65.929C47.9358 65.8803 47.9387 65.8301 47.9531 65.7827L49.1595 61.2238C49.5594 59.7175 50.929 59.3776 52.3087 59.3776H54.6814C54.7928 59.3862 54.8965 59.4374 54.9711 59.5206C55.0456 59.6038 55.0851 59.7126 55.0813 59.8242V65.7327C55.0809 65.7906 55.0689 65.8479 55.0462 65.9011C55.0234 65.9543 54.9903 66.0025 54.9487 66.0428C54.9072 66.0831 54.858 66.1148 54.8041 66.1359C54.7502 66.1571 54.6926 66.1673 54.6347 66.1659Z" fill="#191816"/>
<path d="M57.8505 66.166C57.7309 66.1642 57.6169 66.1153 57.5332 66.0297C57.4495 65.9442 57.4031 65.8291 57.404 65.7094V59.8109C57.4031 59.6913 57.4495 59.5761 57.5332 59.4906C57.6169 59.4051 57.7309 59.3561 57.8505 59.3543H58.7437C58.8633 59.3561 58.9774 59.4051 59.061 59.4906C59.1447 59.5761 59.1911 59.6913 59.1902 59.8109V62.0837H60.2166C60.7698 62.0837 61.1697 61.8004 61.5496 61.1206L62.2894 59.8076C62.3503 59.6794 62.444 59.5696 62.5611 59.4894C62.6782 59.4092 62.8144 59.3614 62.9559 59.351H64.0557C64.299 59.351 64.3456 59.5443 64.2023 59.8076L63.1726 61.6738C63.0596 61.9293 62.8907 62.1562 62.6785 62.3378C62.4663 62.5195 62.2161 62.6513 61.9462 62.7235C62.4128 62.8202 62.8993 63.4133 63.1726 63.8299L64.3589 65.7161C64.5156 65.9694 64.4456 66.1627 64.1923 66.1627H63.1026C62.955 66.1485 62.8126 66.101 62.6862 66.0236C62.5597 65.9462 62.4525 65.8411 62.3728 65.7161L61.5363 64.3831C61.1764 63.8099 60.8165 63.41 60.2033 63.41H59.1836V65.7128C59.1818 65.8297 59.1339 65.9413 59.0502 66.0231C58.9666 66.1048 58.854 66.1502 58.737 66.1493L57.8505 66.166Z" fill="#191816"/>
<path d="M66.7284 61.2074C67.1283 59.7011 68.4979 59.3612 69.8776 59.3612H72.4336C72.4892 59.3629 72.5439 59.3756 72.5946 59.3984C72.6453 59.4213 72.691 59.454 72.7291 59.4945C72.7671 59.535 72.7968 59.5827 72.8165 59.6347C72.8361 59.6868 72.8453 59.7421 72.8435 59.7977V65.7263C72.8418 65.8432 72.7938 65.9548 72.7102 66.0365C72.6265 66.1183 72.514 66.1637 72.397 66.1628H71.5039C71.445 66.1637 71.3865 66.1528 71.3319 66.1307C71.2773 66.1085 71.2277 66.0757 71.1861 66.034C71.1445 65.9924 71.1116 65.9428 71.0895 65.8882C71.0673 65.8336 71.0564 65.7752 71.0573 65.7163V64.5199H67.6815L67.3482 65.7163C67.3137 65.8407 67.2406 65.9511 67.1394 66.0313C67.0382 66.1116 66.9141 66.1576 66.785 66.1628H65.8519C65.7979 66.1655 65.7441 66.155 65.6951 66.1323C65.6461 66.1095 65.6033 66.0752 65.5705 66.0322C65.5377 65.9892 65.5158 65.9389 65.5068 65.8856C65.4978 65.8323 65.5019 65.7776 65.5187 65.7263L66.7284 61.2074ZM68.0314 63.1802H71.054V60.7042H69.7043C69.418 60.6959 69.1374 60.7859 68.9094 60.9594C68.6814 61.1328 68.5197 61.3791 68.4513 61.6573L68.0314 63.1802Z" fill="#191816"/>
<path d="M80.2117 63.2866H76.9458V65.726C76.944 65.843 76.8961 65.9545 76.8125 66.0363C76.7288 66.1181 76.6162 66.1635 76.4992 66.1626H75.6128C75.4932 66.1635 75.378 66.117 75.2925 66.0334C75.207 65.9497 75.158 65.8357 75.1562 65.716V59.8075C75.1562 59.748 75.1681 59.6891 75.1912 59.6343C75.2142 59.5794 75.248 59.5298 75.2906 59.4882C75.3331 59.4466 75.3835 59.4139 75.4388 59.392C75.4942 59.3702 75.5533 59.3596 75.6128 59.3609H76.4992C76.6177 59.3609 76.7313 59.408 76.815 59.4917C76.8988 59.5755 76.9458 59.6891 76.9458 59.8075V61.947H80.2117V59.8075C80.2117 59.6891 80.2587 59.5755 80.3425 59.4917C80.4262 59.408 80.5398 59.3609 80.6582 59.3609H81.5447C81.604 59.3601 81.663 59.3709 81.7181 59.3929C81.7732 59.415 81.8235 59.4477 81.8659 59.4892C81.9084 59.5307 81.9422 59.5802 81.9654 59.6348C81.9886 59.6894 82.0008 59.7481 82.0012 59.8075V65.716C81.9995 65.8357 81.9505 65.9497 81.865 66.0334C81.7794 66.117 81.6643 66.1635 81.5447 66.1626H80.6616C80.6033 66.1635 80.5455 66.1529 80.4914 66.1314C80.4373 66.1099 80.388 66.078 80.3462 66.0375C80.3044 65.997 80.271 65.9486 80.2479 65.8951C80.2249 65.8417 80.2125 65.7842 80.2117 65.726V63.2866Z" fill="#191816"/>
<path d="M65.516 53.2858H62.8166V55.2853C62.8149 55.3819 62.775 55.474 62.7058 55.5414C62.6365 55.6088 62.5434 55.6461 62.4467 55.6452H61.7169C61.6182 55.6452 61.5234 55.6065 61.453 55.5373C61.3825 55.4681 61.3421 55.374 61.3403 55.2753V50.4132C61.3403 50.364 61.3501 50.3154 61.3691 50.2701C61.3881 50.2247 61.416 50.1837 61.451 50.1492C61.4861 50.1148 61.5277 50.0877 61.5733 50.0695C61.619 50.0513 61.6678 50.0424 61.7169 50.0433H62.4467C62.4954 50.0428 62.5437 50.0521 62.5888 50.0705C62.6339 50.089 62.6748 50.1162 62.7093 50.1506C62.7437 50.1851 62.771 50.226 62.7894 50.2711C62.8078 50.3162 62.8171 50.3645 62.8166 50.4132V52.1794H65.5126V50.4132C65.5122 50.3645 65.5215 50.3162 65.5399 50.2711C65.5583 50.226 65.5856 50.1851 65.62 50.1506C65.6544 50.1162 65.6954 50.089 65.7405 50.0705C65.7855 50.0521 65.8338 50.0428 65.8825 50.0433H66.6124C66.6615 50.0424 66.7103 50.0513 66.756 50.0695C66.8016 50.0877 66.8432 50.1148 66.8782 50.1492C66.9133 50.1837 66.9411 50.2247 66.9602 50.2701C66.9792 50.3154 66.9889 50.364 66.9889 50.4132V55.292C66.9885 55.341 66.9784 55.3894 66.9593 55.4346C66.9401 55.4797 66.9122 55.5206 66.8773 55.5549C66.8423 55.5893 66.8009 55.6164 66.7555 55.6347C66.71 55.6531 66.6614 55.6623 66.6124 55.6619H65.8825C65.7859 55.6628 65.6928 55.6255 65.6235 55.5581C65.5542 55.4906 65.5144 55.3986 65.5126 55.302L65.516 53.2858Z" fill="#191816"/>
<path d="M73.7808 50.0433C73.8296 50.0424 73.8781 50.0513 73.9234 50.0696C73.9687 50.0879 74.0098 50.1151 74.0444 50.1496C74.0789 50.1841 74.1061 50.2253 74.1244 50.2706C74.1426 50.3159 74.1516 50.3644 74.1507 50.4132V50.7831C74.1516 50.8319 74.1426 50.8804 74.1244 50.9257C74.1061 50.971 74.0789 51.0121 74.0444 51.0467C74.0098 51.0812 73.9687 51.1084 73.9234 51.1267C73.8781 51.145 73.8296 51.1539 73.7808 51.153H72.0312V55.2986C72.0295 55.3953 71.9896 55.4873 71.9203 55.5547C71.8511 55.6221 71.758 55.6594 71.6613 55.6585H70.9215C70.8734 55.6594 70.8255 55.6508 70.7807 55.6332C70.7359 55.6156 70.695 55.5893 70.6603 55.5559C70.6257 55.5225 70.5979 55.4826 70.5787 55.4384C70.5595 55.3943 70.5491 55.3468 70.5483 55.2986V51.1497H68.7987C68.7499 51.1506 68.7014 51.1416 68.6561 51.1234C68.6108 51.1051 68.5696 51.0779 68.5351 51.0433C68.5006 51.0088 68.4734 50.9677 68.4551 50.9224C68.4368 50.8771 68.4279 50.8286 68.4288 50.7798V50.4132C68.4279 50.3644 68.4368 50.3159 68.4551 50.2706C68.4734 50.2253 68.5006 50.1841 68.5351 50.1496C68.5696 50.1151 68.6108 50.0879 68.6561 50.0696C68.7014 50.0513 68.7499 50.0424 68.7987 50.0433H73.7808Z" fill="#191816"/>
<path d="M75.9634 55.662C75.8655 55.6611 75.7719 55.6219 75.7028 55.5527C75.6336 55.4835 75.5943 55.3899 75.5935 55.2921V50.4033C75.5952 50.3066 75.6351 50.2146 75.7043 50.1472C75.7736 50.0798 75.8667 50.0425 75.9634 50.0434H76.7032C76.7519 50.0429 76.8002 50.0522 76.8453 50.0706C76.8903 50.0891 76.9313 50.1163 76.9657 50.1507C77.0002 50.1852 77.0274 50.2261 77.0458 50.2712C77.0643 50.3163 77.0735 50.3646 77.0731 50.4133V54.5523H79.7058V50.4033C79.7075 50.3066 79.7474 50.2146 79.8166 50.1472C79.8859 50.0798 79.979 50.0425 80.0757 50.0434H80.8155C80.8642 50.0429 80.9125 50.0522 80.9576 50.0706C81.0027 50.0891 81.0436 50.1163 81.078 50.1507C81.1125 50.1852 81.1397 50.2261 81.1581 50.2712C81.1766 50.3163 81.1858 50.3646 81.1854 50.4133V54.5523H81.612C81.6605 54.5531 81.7085 54.5636 81.753 54.583C81.7976 54.6023 81.8379 54.6303 81.8716 54.6653C81.9053 54.7003 81.9318 54.7415 81.9496 54.7868C81.9674 54.832 81.9761 54.8803 81.9752 54.9288V55.2987C81.9743 55.3966 81.9351 55.4902 81.8659 55.5593C81.7967 55.6285 81.7031 55.6678 81.6053 55.6687L75.9634 55.662Z" fill="#191816"/>
<path d="M71.5844 35.5691L81.6728 45.5096H61.5124L71.5844 35.5691Z" fill="#191816" stroke="#191816" stroke-width="0.116704"/>
</svg>
