<svg width="36" height="36" viewBox="0 0 36 36" fill="none" xmlns="http://www.w3.org/2000/svg">
<g clip-path="url(#clip0_2547_40848)">
<path fill-rule="evenodd" clip-rule="evenodd" d="M18.0239 0.556763C8.37151 0.556763 0.546875 8.38186 0.546875 18.0338C0.546875 27.6861 8.37167 35.5109 18.0239 35.5109C27.6759 35.5109 35.501 27.6861 35.501 18.0338C35.5012 8.38202 27.6759 0.556763 18.0239 0.556763ZM18.0239 33.9439C9.23687 33.9439 2.11384 26.8209 2.11384 18.0338C2.11384 9.24722 9.23687 2.12388 18.0239 2.12388C26.8105 2.12388 33.934 9.24722 33.934 18.0338C33.934 26.8209 26.8107 33.9439 18.0239 33.9439Z" fill="#191816"/>
<path fill-rule="evenodd" clip-rule="evenodd" d="M14.5391 6.14653C15.6706 5.81609 16.8436 5.64895 18.0224 5.65003C19.2302 5.65003 20.3981 5.82304 21.5019 6.14545L18.0224 13.858L14.5391 6.14653Z" fill="#191816"/>
<path fill-rule="evenodd" clip-rule="evenodd" d="M24.6714 7.58411C25.9754 8.41597 27.1131 9.48336 28.0263 10.7318L22.3155 23.3694L20.1117 18.4692H15.9365L13.7329 23.3692L8.03035 10.72C8.94186 9.47672 10.0765 8.41335 11.3763 7.58441L15.9365 17.7008H20.1261L24.6714 7.58411ZM6.05934 14.8291C5.78061 15.8745 5.63986 16.9519 5.64063 18.034C5.64063 22.8871 8.43178 27.0876 12.4964 29.1187L6.05934 14.8291Z" fill="#191816"/>
<path fill-rule="evenodd" clip-rule="evenodd" d="M14.5967 29.938C15.7105 30.2575 16.8637 30.4191 18.0225 30.418C19.2096 30.418 20.3575 30.2509 21.4442 29.9393L18.0225 22.3401L14.5967 29.938ZM23.5498 29.1191C27.6145 27.0881 30.4057 22.8874 30.4057 18.0345C30.4057 16.9359 30.2626 15.8707 29.9945 14.8566L23.5498 29.1191Z" fill="#191816"/>
</g>
<defs>
<clipPath id="clip0_2547_40848">
<rect width="34.9543" height="34.9543" fill="white" transform="translate(0.546875 0.556763)"/>
</clipPath>
</defs>
</svg>
