<svg width="171" height="94" viewBox="0 0 171 94" fill="none" xmlns="http://www.w3.org/2000/svg">
<g clip-path="url(#clip0_2547_40833)">
<path fill-rule="evenodd" clip-rule="evenodd" d="M19.5171 27.7682C30.0725 27.7682 38.5889 36.2536 38.5889 46.6819C38.5889 57.1103 30.0725 65.6353 19.5171 65.6353C8.96164 65.6353 0.445312 57.1499 0.445312 46.6819C0.445312 36.2139 9.00162 27.7682 19.5171 27.7682ZM19.5171 31.3765C28.0734 31.3765 34.9904 38.2362 34.9904 46.7216C34.9904 52.3521 31.9117 57.3085 27.3137 59.9652C28.2733 56.6344 28.6731 53.2244 28.5132 49.2989C29.5128 49.5765 30.0725 49.7351 31.0721 50.0523C29.9126 47.1577 28.6731 44.5408 27.0338 41.8841C25.5945 44.6201 23.6353 47.1974 21.6761 49.2196L24.8748 49.0214C22.116 53.8985 18.2376 56.2776 13.3198 56.9517C12.2002 51.4401 13.0399 42.4392 19.3172 38.2362L19.9569 41.2497C21.1964 39.3068 23.5953 36.7294 25.3945 34.9451C22.5558 33.8349 19.2772 33.478 16.0786 34.0728C16.5983 34.5089 17.2381 35.0641 17.7578 35.5002C10.6809 38.4741 6.80257 43.3512 4.24367 49.0214C4.12373 48.268 4.08374 47.475 4.08374 46.7216C4.08374 38.2362 11.0008 31.3765 19.5171 31.3765Z" fill="#191816"/>
<path d="M55.6215 55.8811C55.6215 56.1586 55.6215 56.4362 55.6215 56.7138C54.8618 56.7138 54.1421 56.7138 53.3824 56.7138C53.3824 57.2292 53.3824 57.7844 53.3824 58.2998H55.8614C55.8614 58.5774 55.8614 58.8549 55.8614 59.1325H52.4228V53.6209H55.8214C55.8214 53.8985 55.8214 54.1761 55.8214 54.4536C54.9817 54.4536 54.1821 54.4536 53.3424 54.4536V55.8414C54.1021 55.8811 54.8618 55.8811 55.6215 55.8811ZM48.5445 59.0928H45.146V53.6209C45.4658 53.6209 45.7857 53.6209 46.1056 53.6209V58.2602H48.5845C48.5445 58.5377 48.5445 58.8153 48.5445 59.0928ZM66.7367 53.6606L65.4572 55.1277C65.2973 55.0484 65.1374 55.0087 64.9774 54.9294L65.4572 53.6606C65.857 53.6606 66.2969 53.6606 66.7367 53.6606ZM69.0157 54.6519C68.8957 54.7312 68.8158 54.8898 68.8158 55.1674C68.8158 55.6432 68.9757 55.8018 69.4155 55.8811L70.2951 55.9604C71.1748 56.0397 71.6945 56.5155 71.6945 57.4671V57.7844C71.6945 58.0223 71.6545 58.2602 71.5746 58.4584C71.4946 58.6567 71.3747 58.8153 71.2147 58.9342C71.0148 59.0928 70.7749 59.1325 70.535 59.1722C70.2951 59.2118 70.0153 59.2118 69.7754 59.2118H67.9761C67.9761 58.8946 67.9761 58.5774 67.9761 58.2602H69.9353C70.0153 58.2602 70.0952 58.2602 70.1752 58.2602C70.575 58.2602 70.8149 58.1809 70.7749 57.5861C70.7749 57.3085 70.695 57.1499 70.615 57.0706C70.495 56.9913 70.3351 56.9517 70.1352 56.912L69.2156 56.8327C68.8957 56.7931 68.5359 56.7138 68.296 56.4759C68.0561 56.2379 67.8962 55.8811 67.8962 55.2863C67.8962 55.207 67.8962 55.1277 67.8962 55.0087C67.9361 54.414 68.1361 54.0571 68.4959 53.8589C68.8558 53.6606 69.3355 53.6209 69.8153 53.6209H71.4546C71.4546 53.9382 71.4546 54.2554 71.4546 54.5726H69.6954C69.3755 54.5726 69.1356 54.5726 69.0157 54.6519ZM80.1709 59.0928V53.6209H82.5698C82.7697 53.6209 83.0496 53.7003 83.2895 53.8589C83.5294 54.0175 83.6894 54.295 83.6894 54.7312V55.4053C83.6894 55.8811 83.4495 56.119 83.2895 56.2776C83.4495 56.3966 83.6894 56.6741 83.6894 57.1103V57.9826C83.6894 58.5774 83.1696 59.0928 82.5698 59.0928H80.1709ZM82.6498 56.7931C82.6098 56.7534 82.4899 56.6741 82.4099 56.6741H81.0905V58.2205H82.4099C82.4899 58.2205 82.5698 58.1809 82.6498 58.1016C82.6898 58.0619 82.7298 57.9826 82.7298 57.8637V57.031C82.7698 56.9913 82.7298 56.8724 82.6498 56.7931ZM82.6898 54.5726C82.6098 54.4933 82.5299 54.4536 82.4099 54.4536H81.0905V55.8414H82.4499C82.5299 55.8414 82.6098 55.8018 82.6898 55.7225C82.7697 55.6432 82.8097 55.5242 82.8097 55.4449V54.8105C82.7697 54.7708 82.7298 54.6519 82.6898 54.5726ZM117.275 55.8811H119.514C119.514 56.1586 119.514 56.4362 119.514 56.7138H117.275V58.2998H119.754C119.754 58.5774 119.754 58.8549 119.754 59.1325H116.355V53.6209C117.475 53.6209 118.634 53.6209 119.754 53.6209C119.754 53.8985 119.754 54.1761 119.754 54.4536H117.275V55.8811ZM112.037 59.0928H108.958V53.6209C109.278 53.6209 109.598 53.6209 109.918 53.6209V58.2602H112.037C112.037 58.5377 112.037 58.8153 112.037 59.0928ZM105.28 54.4933H103.881V59.0928C103.561 59.0928 103.241 59.0928 102.921 59.0928V54.4933H101.522C101.522 54.2157 101.522 53.9382 101.522 53.6606H105.28C105.28 53.9382 105.28 54.2157 105.28 54.4933ZM97.8033 54.4933H96.4039V59.0928C96.084 59.0928 95.7641 59.0928 95.4443 59.0928V54.4933H94.0449C94.0449 54.2157 94.0449 53.9382 94.0449 53.6606H97.8033C97.8033 53.9382 97.8033 54.2157 97.8033 54.4933ZM88.1674 57.943L87.8875 59.1325H86.888L88.4073 53.6606C88.8071 53.6606 89.207 53.6606 89.6468 53.6606L91.1661 59.1325C90.8463 59.1325 90.4864 59.1325 90.1665 59.1325L89.8467 57.943H88.1674ZM88.3673 57.1103H89.5668L88.9671 54.7312L88.3673 57.1103ZM62.9783 54.4933C62.4985 54.4933 62.0587 54.4933 61.5789 54.4933V59.0928C61.259 59.0928 60.9392 59.0928 60.6193 59.0928V54.4933C60.1395 54.4933 59.6997 54.4933 59.2199 54.4933C59.2199 54.2157 59.2199 53.9382 59.2199 53.6606H62.9783C62.9783 53.9382 62.9783 54.2157 62.9783 54.4933Z" fill="#191816"/>
<path d="M49.1043 38.712L50.4637 46.4044H53.5024L56.861 34.3107H53.9022L52.063 42.1617L50.7836 34.3107H47.425L46.1456 42.1617L44.3064 34.3107H41.3476L44.7062 46.4044H47.7449L49.1043 38.712Z" fill="#191816"/>
<path d="M58.7401 46.4044L59.2999 43.9063H62.3786L62.9383 46.4044H65.6971L62.3386 34.3107H59.2999L55.9813 46.4044H58.7401ZM60.8592 37.2845L61.8988 41.8445H59.8197L60.8592 37.2845Z" fill="#191816"/>
<path d="M69.7354 41.8841H71.4147L73.054 46.4044H76.0927L73.9336 41.3686C74.8532 41.0514 75.4529 40.2584 75.4529 39.3068V36.6105C75.4529 35.5002 74.6933 34.6675 73.6937 34.4296C73.054 34.271 72.4143 34.3107 71.7345 34.3107H67.1365V46.4044H69.7354V41.8841ZM69.7354 36.6501H71.9345C72.4142 36.6501 72.8541 36.888 72.8541 37.4431V38.6327C72.8541 39.2275 72.4542 39.505 71.9345 39.505H69.7354V36.6501Z" fill="#191816"/>
<path d="M83.2496 46.5233C84.5291 46.5233 85.2887 46.1665 85.9285 45.6906V39.2671H81.8102V41.5669H83.3296C83.3296 42.3599 83.3296 43.034 83.3296 43.8667C83.0897 43.9063 82.8098 43.946 82.5299 43.946H81.4904C80.011 43.946 79.6512 42.915 79.6512 41.8048V38.7913C79.6512 37.6414 80.1709 36.8087 81.5703 36.8087H85.7285V34.2314H81.4104C79.0114 34.2314 77.2922 35.6588 77.0523 38.1172C77.0523 38.3155 77.0123 38.5137 77.0123 38.712V42.2013C77.0123 44.739 78.7715 46.5233 81.1705 46.5233H83.2496Z" fill="#191816"/>
<path d="M89.5268 46.4044L90.0866 43.9063H93.1653L93.725 46.4044H96.4838L93.1253 34.3107H90.0866L86.768 46.4044H89.5268ZM91.6059 37.2845L92.6455 41.8445H90.5664L91.6059 37.2845Z" fill="#191816"/>
<path d="M106.6 38.9896V46.4044H109.118V34.3107H105.84L103.401 43.3116L101.002 34.3107H97.7234V46.4044H100.202V38.9896L102.081 46.4044H104.72L106.6 38.9896Z" fill="#191816"/>
<path d="M113.876 46.4044V34.3107H111.277V46.4044H113.876Z" fill="#191816"/>
<path d="M125.032 46.4044V34.3107H122.513V41.5272L118.594 34.3107H116.035V46.4044H118.514V39.1878L122.473 46.4044H125.032Z" fill="#191816"/>
<path d="M150.98 46.4044V34.3107H148.461V41.5272L144.543 34.3107H141.984V46.4044H144.463V39.1878L148.421 46.4044H150.98Z" fill="#191816"/>
<path d="M160.256 38.9896H155.578V36.6501H160.736V34.3107H152.979V46.4044H160.736V44.0649H155.578V41.2893H160.256V38.9896Z" fill="#191816"/>
<path d="M170.532 36.6501V34.3107H162.056V36.6501H165.014V46.4044H167.613V36.6501H170.532Z" fill="#191816"/>
<path d="M132.788 46.5233C134.068 46.5233 134.827 46.1665 135.467 45.6906V39.2671H131.349V41.5669H132.868C132.868 42.3599 132.868 43.034 132.868 43.8667C132.628 43.9063 132.348 43.946 132.069 43.946H131.029C129.55 43.946 129.19 42.915 129.19 41.8048V38.7913C129.19 37.6414 129.71 36.8087 131.109 36.8087H135.267V34.2314H130.949C128.55 34.2314 126.831 35.6588 126.591 38.1172C126.591 38.3155 126.551 38.5137 126.551 38.712V42.2013C126.551 44.739 128.31 46.5233 130.709 46.5233H132.788Z" fill="#191816"/>
<path fill-rule="evenodd" clip-rule="evenodd" d="M137.546 44.1442H140.065V46.6026H137.546V44.1442Z" fill="#191816"/>
</g>
<defs>
<clipPath id="clip0_2547_40833">
<rect width="170.402" height="93.2114" fill="white" transform="translate(0.445312 0.0960693)"/>
</clipPath>
</defs>
</svg>
