<svg width="148" height="46" viewBox="0 0 148 46" fill="none" xmlns="http://www.w3.org/2000/svg">
<g clip-path="url(#clip0_2547_40875)">
<path d="M36.4788 38.4259L32.2272 31.3055L28.0637 38.4259H23.0788L29.483 27.7013L22.9563 17.7446H28.1635L32.3446 24.3922L36.3323 17.7446H41.3168L34.8956 28.0262L41.4928 38.4259H36.4788Z" fill="#191816"/>
<path d="M57.6935 31.3944C57.6935 35.9442 54.2923 38.7804 49.8353 38.7804C45.9062 38.7804 42.5981 36.5943 42.2756 31.8375H46.5272C46.8204 33.9056 48.4624 34.792 50.2512 34.792C52.4795 34.792 53.442 33.2852 53.442 31.3352C53.442 29.2966 51.9467 28.0263 49.8647 28.0263C48.1348 28.0263 46.9912 28.8535 46.4635 29.7399H42.3994L43.8044 17.7447H57.1712L56.726 21.7629H47.1645L46.7849 25.7324C46.7849 25.7324 47.7895 24.54 50.8324 24.54C54.4977 24.54 57.6935 27.0218 57.6935 31.3944Z" fill="#191816"/>
<path d="M42.7808 15.17C40.5163 6.27438 33.3298 0.0246086 18.4186 0.0246086H0.415283L2.85921 16.6754C4.69767 31.7 10.4007 36.5338 20.493 38.3134C20.5406 38.3208 20.8589 38.3665 20.8637 37.9895C20.8653 37.8539 20.7797 37.7369 20.663 37.6872C13.8413 34.7928 13.0627 25.3027 11.6059 15.7784L10.478 8.18902H20.7555C30.2313 8.18902 37.5459 8.03823 42.1786 15.4074C42.248 15.5116 42.3547 15.5879 42.4817 15.5879C42.661 15.5879 42.7935 15.4414 42.7935 15.2607C42.7935 15.2292 42.789 15.1989 42.7808 15.17Z" fill="#191816"/>
<path d="M61.261 28.0698C61.261 21.6452 65.8902 17.0101 72.3245 17.0101C76.6335 17.0101 80.5348 19.533 81.6704 22.9947L79.2539 23.8161C78.3804 21.2345 75.4981 19.357 72.3245 19.357C67.4041 19.357 63.9104 22.9653 63.9104 28.0698C63.9104 33.1156 67.4332 36.8119 72.3245 36.8119C76.75 36.8119 80.2437 33.6143 80.3602 29.4486L70.1701 29.4192V27.043H83.0387C83.4754 34.0837 78.9918 39.1588 72.3245 39.1588C65.8902 39.1588 61.261 34.4944 61.261 28.0698Z" fill="#191816"/>
<path d="M86.2268 23.6113H88.5851V25.6061H88.8472C89.5169 24.2567 91.1472 23.318 92.7776 23.318C93.4473 23.318 94.1461 23.4647 94.5828 23.6993V25.9581C93.8257 25.6355 92.9524 25.5181 92.3992 25.5181C90.1865 25.5181 88.6434 27.5129 88.6434 30.4465V38.4259H86.2268V23.6113Z" fill="#191816"/>
<path d="M109.303 31.0042C109.303 27.6598 107.003 25.2249 103.83 25.2249C100.627 25.2249 98.3562 27.6598 98.3562 31.0042C98.3562 34.3777 100.627 36.8126 103.83 36.8126C107.003 36.8126 109.303 34.3777 109.303 31.0042ZM95.9397 31.0042C95.9397 26.3398 99.2005 23.0248 103.83 23.0248C108.43 23.0248 111.72 26.3398 111.72 31.0042C111.72 35.6979 108.43 39.0128 103.83 39.0128C99.2005 39.0128 95.9397 35.6979 95.9397 31.0042Z" fill="#191816"/>
<path d="M127.975 38.4256H125.558V36.4015H125.267C124.248 38.0149 122.589 38.9537 120.667 38.9537C116.911 38.9537 114.553 36.2255 114.553 32.4411V23.6111H116.969V32.4411C116.969 34.964 118.425 36.7535 120.958 36.7535C123.433 36.7535 125.558 34.8466 125.558 32.2358V23.6111H127.975V38.4256Z" fill="#191816"/>
<path d="M134.178 31.0038C134.178 34.26 136.478 36.8122 139.651 36.8122C142.796 36.8122 145.096 34.26 145.096 31.0038C145.096 27.6888 142.796 25.2245 139.651 25.2245C136.478 25.2245 134.178 27.7475 134.178 31.0038ZM147.513 31.0038C147.513 35.6389 144.222 39.0124 139.943 39.0124C137.584 39.0124 135.605 37.9857 134.527 36.2256H134.265V45.173H131.849V23.6112H134.265V25.87H134.527C135.605 24.0805 137.497 23.0244 139.914 23.0244C144.193 23.0244 147.513 26.3687 147.513 31.0038Z" fill="#191816"/>
</g>
<defs>
<clipPath id="clip0_2547_40875">
<rect width="147.099" height="45.1493" fill="white" transform="translate(0.414307 0.0240479)"/>
</clipPath>
</defs>
</svg>
