<svg width="105" height="90" viewBox="0 0 105 90" fill="none" xmlns="http://www.w3.org/2000/svg">
<g clip-path="url(#clip0_2547_40830)">
<path d="M70.4352 49.8513C69.7614 51.0785 68.863 50.9892 67.8972 50.9892V55.1169C67.8972 55.1169 68.7058 55.2731 69.9186 55.2731C71.8502 55.2731 73.4898 54.4476 74.478 52.2833C75.4663 50.1191 75.6235 46.103 76.1176 41.7298H80.8792V54.8715H85.4835V37.7806H71.9625C71.4235 43.4702 71.1315 48.5349 70.4352 49.8513Z" fill="#191816"/>
<path d="M58.666 37.379C54.3312 37.379 51.1643 40.1234 50.4231 44.3626H48.0872V37.7806H43.4829V54.8492H48.0872V48.2895H50.4231C51.1643 52.5288 54.3536 55.2731 58.666 55.2731C63.6296 55.2731 67.0885 51.6586 67.0885 46.3261C67.0885 40.9935 63.6296 37.379 58.666 37.379ZM58.666 51.1677C56.3076 51.1677 54.713 49.2936 54.713 46.3261C54.713 43.3586 56.3076 41.4844 58.666 41.4844C61.0243 41.4844 62.6189 43.3586 62.6189 46.3261C62.6189 49.2936 61.0243 51.1677 58.666 51.1677Z" fill="#191816"/>
<path d="M96.107 37.379C93.7712 37.379 91.5701 37.6914 89.6385 38.3161V42.3769C89.6385 42.3769 92.1091 41.4398 95.5006 41.4398C99.2739 41.4398 99.6782 43.3363 99.6782 44.2288V44.5411C99.6782 44.5411 97.814 44.2288 95.8375 44.2288C89.5037 44.2288 88.201 47.5086 88.201 49.7398C88.201 51.971 89.5936 55.2508 94.6022 55.2508C97.1851 55.2508 99.0044 54.046 99.8803 53.0643H100.06V54.8492H104.238V45.2774C104.238 42.2876 103.564 37.379 96.107 37.379ZM99.6782 49.6282C99.6782 49.6282 98.4878 51.4578 95.7027 51.4578C93.9958 51.4578 93.1647 50.6992 93.1647 49.6059C93.1647 48.5126 94.0407 47.5086 97.1177 47.5086C98.5776 47.5086 99.6782 47.5309 99.6782 47.5309V49.6282Z" fill="#191816"/>
<path d="M19.5631 54.5595C22.0787 46.9512 28.098 40.9716 35.7569 38.495C36.2735 38.3165 36.5654 37.7587 36.3858 37.2455C36.2959 36.9555 36.0489 36.7323 35.7569 36.6208C28.098 34.1219 22.0787 28.1646 19.5631 20.534C19.3834 20.0208 18.8219 19.7307 18.3054 19.9092C18.0134 20.0208 17.7888 20.2439 17.6765 20.534C15.1609 28.1423 9.16409 34.1219 1.50519 36.5985C0.988608 36.777 0.696626 37.3348 0.876307 37.8479C0.988608 38.1603 1.21321 38.3834 1.50519 38.495C9.16409 40.9939 15.1834 46.9512 17.6765 54.5595C17.8562 55.0727 18.4177 55.3404 18.9342 55.1619C19.2487 55.0727 19.4733 54.8496 19.5631 54.5595Z" fill="#191816"/>
</g>
<defs>
<clipPath id="clip0_2547_40830">
<rect width="103.406" height="35.4089" fill="white" transform="translate(0.831055 19.8643)"/>
</clipPath>
</defs>
</svg>
