<svg width="35" height="35" viewBox="0 0 35 35" fill="none" xmlns="http://www.w3.org/2000/svg">
<circle cx="17.5" cy="17.5" r="16.5" stroke="#191816" stroke-width="2"/>
<path fill-rule="evenodd" clip-rule="evenodd" d="M9.87959 13.204L16.4002 9.33613C17.3915 8.74811 18.6068 8.74811 19.5981 9.33613L26.1188 13.204C26.1518 13.2236 26.161 13.239 26.1654 13.2473C26.1726 13.2608 26.18 13.2837 26.18 13.3138C26.18 13.3439 26.1726 13.3668 26.1654 13.3803C26.161 13.3886 26.1518 13.404 26.1188 13.4236L19.5981 17.2915C18.6068 17.8795 17.3915 17.8795 16.4002 17.2915L9.87959 13.4236C9.84651 13.404 9.83739 13.3886 9.83297 13.3803C9.82575 13.3668 9.81833 13.3439 9.81833 13.3138C9.81833 13.2837 9.82575 13.2608 9.83297 13.2473C9.83739 13.239 9.84651 13.2236 9.87959 13.204ZM8.98017 15.0706C7.67327 14.2954 7.67328 12.3322 8.98017 11.557L15.5008 7.68909C17.0497 6.7703 18.9486 6.7703 20.4976 7.68909L27.0182 11.557C27.671 11.9442 27.9977 12.6278 27.9983 13.3117L28 13.3139V17.6305C28 18.1538 27.593 18.5781 27.0908 18.5781C26.5887 18.5781 26.1817 18.1538 26.1817 17.6305V15.5668L20.4975 18.9385C18.9486 19.8573 17.0497 19.8573 15.5008 18.9385L8.98017 15.0706Z" fill="#191816"/>
<path fill-rule="evenodd" clip-rule="evenodd" d="M23.2522 15.5248V17.6393C23.2522 19.1291 23.2515 20.1894 23.1864 21.0197C23.1222 21.8389 22.9999 22.3504 22.8008 22.7576C22.4037 23.5698 21.7701 24.2302 20.9908 24.644C20.6001 24.8515 20.1093 24.979 19.3233 25.0459C18.9401 25.0786 18.5058 25.0957 17.9992 25.1046V27C18.5482 26.9906 19.0358 26.9718 19.4714 26.9347C20.3699 26.8582 21.1265 26.6989 21.8163 26.3326C22.9377 25.737 23.8495 24.7868 24.4209 23.6179C24.7724 22.8991 24.9253 22.1104 24.9987 21.174C25.0706 20.2575 25.0706 19.1199 25.0705 17.6812V15.5248H23.2522Z" fill="#191816"/>
<path fill-rule="evenodd" clip-rule="evenodd" d="M12.8474 15.5248V17.641C12.8474 19.1308 12.8481 20.1911 12.9132 21.0214C12.9774 21.8406 13.0997 22.3521 13.2988 22.7593C13.6959 23.5715 14.3295 24.2319 15.1088 24.6457C15.4995 24.8532 15.9903 24.9807 16.7763 25.0476C17.1337 25.0781 17.5356 25.0952 17.9992 25.1046V27C17.4912 26.99 17.0368 26.9713 16.6282 26.9365C15.7297 26.86 14.9731 26.7006 14.2833 26.3343C13.1619 25.7387 12.2501 24.7885 11.6787 23.6196C11.3272 22.9008 11.1743 22.1121 11.1009 21.1757C11.029 20.2592 11.029 19.1216 11.0291 17.6829V15.5248H12.8474Z" fill="#191816"/>
</svg>
