<svg width="861" height="596" viewBox="0 0 861 596" fill="none" xmlns="http://www.w3.org/2000/svg">
<path d="M92.9449 79.7811L89.5886 79.7291L90.0567 49.5164L93.413 49.5684L93.465 46.2115L96.8213 46.2635L96.8703 43.104L107.334 43.2661L107.285 46.4256L110.444 46.4746L110.392 49.8315L113.748 49.8835L113.28 80.0962L109.924 80.0442L109.872 83.4011L106.713 83.3521L106.661 86.7091L96.1971 86.547L96.2491 83.19L92.8929 83.138L92.9449 79.7811ZM96.9026 79.2498L96.8536 82.4093L106.133 82.5531L106.182 79.3936L109.538 79.4456L109.988 50.4178L106.631 50.3658L106.683 47.0089L97.4044 46.8651L97.3524 50.222L94.1936 50.1731L93.7438 79.2009L96.9026 79.2498Z" fill="#71E76E"/>
<path d="M17.8275 50.5106L11.5958 48.6072L12.6919 45.0186L22.7004 48.0755L10.0085 89.6286L6.23172 88.475L17.8275 50.5106Z" fill="#71E76E"/>
<path d="M67.9118 362.408L64.7016 361.427L73.5282 332.529L76.7385 333.509L77.7192 330.298L80.9295 331.279L81.8525 328.257L91.861 331.314L90.938 334.336L93.9594 335.259L92.9786 338.47L96.1889 339.45L87.3623 368.349L84.152 367.368L83.1713 370.579L80.1498 369.656L79.1691 372.867L69.1606 369.81L70.1414 366.599L66.9311 365.619L67.9118 362.408ZM71.8617 362.995L70.9387 366.017L79.8141 368.728L80.7371 365.706L83.9474 366.686L92.4279 338.921L89.2176 337.941L90.1984 334.73L81.3229 332.019L80.3422 335.23L77.3208 334.307L68.8403 362.072L71.8617 362.995Z" fill="#71E76E"/>
<path d="M757.519 5.22638L751.88 8.49178L750 5.24463L759.056 0.000204174L780.83 37.5988L777.412 39.5778L757.519 5.22638Z" fill="#71E76E"/>
<path d="M814.95 494.581L809.661 490.777L811.852 487.73L820.347 493.841L794.978 529.113L791.772 526.808L814.95 494.581Z" fill="#71E76E"/>
<path d="M832.002 123.385L829.093 122.377L838.163 96.1894L841.072 97.1969L842.08 94.2872L844.989 95.2948L845.937 92.5562L855.007 95.6975L854.059 98.4361L856.797 99.3844L855.789 102.294L858.698 103.302L849.628 129.489L846.719 128.482L845.711 131.392L842.973 130.443L841.965 133.353L832.895 130.212L833.903 127.302L830.994 126.294L832.002 123.385ZM835.602 124.057L834.654 126.795L842.697 129.581L843.645 126.842L846.554 127.85L855.269 102.689L852.36 101.681L853.367 98.7717L845.324 95.9861L844.317 98.8958L841.579 97.9475L832.864 123.108L835.602 124.057Z" fill="#71E76E"/>
<path d="M831.925 583.844L829.016 582.836L838.086 556.648L840.995 557.656L842.003 554.746L844.912 555.754L845.86 553.015L854.93 556.156L853.982 558.895L856.72 559.843L855.712 562.753L858.621 563.761L849.551 589.948L846.642 588.941L845.634 591.851L842.896 590.902L841.888 593.812L832.818 590.671L833.826 587.761L830.917 586.753L831.925 583.844ZM835.525 584.516L834.577 587.254L842.62 590.04L843.568 587.301L846.477 588.309L855.192 563.148L852.282 562.14L853.29 559.231L845.247 556.445L844.24 559.355L841.502 558.406L832.787 583.567L835.525 584.516Z" fill="#71E76E"/>
</svg>
