<svg width="48" height="48" viewBox="0 0 48 48" fill="none" xmlns="http://www.w3.org/2000/svg">
<path d="M45.5984 24.0004C45.5984 35.9297 35.9278 45.6004 23.9984 45.6004C12.0691 45.6004 2.39844 35.9297 2.39844 24.0004C2.39844 12.071 12.0691 2.40039 23.9984 2.40039C35.9278 2.40039 45.5984 12.071 45.5984 24.0004Z" fill="#EFF0F5"/>
<path fill-rule="evenodd" clip-rule="evenodd" d="M17.6245 15.8043C17.1224 15.3022 16.3084 15.3022 15.8063 15.8043C15.3042 16.3064 15.3042 17.1205 15.8063 17.6226L22.1828 23.9992L15.8063 30.3757C15.3042 30.8778 15.3042 31.6919 15.8063 32.194C16.3084 32.6961 17.1224 32.6961 17.6245 32.194L24.0011 25.8174L30.3777 32.194C30.8798 32.6961 31.6939 32.6961 32.196 32.194C32.6981 31.6919 32.6981 30.8778 32.196 30.3757L25.8194 23.9992L32.196 17.6226C32.6981 17.1205 32.6981 16.3064 32.196 15.8043C31.6939 15.3022 30.8798 15.3022 30.3777 15.8043L24.0011 22.1809L17.6245 15.8043Z" fill="#191816"/>
</svg>
