<svg width="98" height="85" viewBox="0 0 98 85" fill="none" xmlns="http://www.w3.org/2000/svg">
<path d="M87.0651 21.751L92.4309 35.9201C93.6253 39.142 93.6719 42.8998 92.495 46.9432C92.0056 48.6502 91.3007 50.4097 90.3685 52.1983C89.6519 53.5791 88.8071 54.9774 87.8225 56.3815C87.1525 57.3661 86.4125 58.3332 85.6143 59.3179C85.4337 59.5392 85.2531 59.7606 85.0609 59.9646C84.1462 61.0715 83.1732 62.1261 82.142 63.1515C81.1748 64.1419 80.1611 65.0974 79.1066 66.0063C78.0928 66.9093 77.0499 67.7716 75.9663 68.6047C74.9176 69.4262 73.8397 70.2127 72.7328 70.9643C71.6549 71.7158 70.548 72.4267 69.4235 73.1083C68.3166 73.79 67.1805 74.4425 66.0327 75.0542C64.8966 75.6718 63.7431 76.2602 62.5837 76.8137C61.4126 77.373 60.2357 77.8916 59.053 78.3868C57.8587 78.8878 56.6585 79.3423 55.4466 79.7617C54.229 80.2045 53.0113 80.6007 51.782 80.9619C50.5294 81.3231 49.271 81.6494 48.0242 81.9291C46.7366 82.2262 45.4548 82.4767 44.1847 82.6748C42.8564 82.8962 41.5455 83.0477 40.2346 83.1467C38.8597 83.2691 37.4963 83.3215 36.168 83.304C34.7289 83.2982 33.319 83.2108 31.9499 83.0477C31.4546 82.9894 30.9769 82.9253 30.4875 82.8438C29.4388 82.6748 28.4483 82.4592 27.4987 82.1971C25.7101 81.7193 24.0962 81.0843 22.6688 80.3152C19.6276 78.6897 17.4195 76.47 16.0795 73.8191C16.0562 73.7783 16.0329 73.7433 16.0154 73.7026L10.1543 58.2342L10.1718 58.2284L13.6675 56.5621L17.1573 54.9075L18.5381 54.2549L20.6588 53.2529L24.1487 51.5924L27.6502 49.9378L31.1517 48.2832L34.6415 46.6227L38.143 44.9681L41.6329 43.3135L45.1286 41.6472L48.6301 39.9926L52.1199 38.338L53.7746 37.5514L78.7162 25.7186L87.0651 21.751Z" fill="white" stroke="#252525" stroke-width="1.82804" stroke-miterlimit="10" stroke-linejoin="round"/>
<path d="M15.0537 71.1846L16.0092 73.7015C15.6072 72.8975 15.2868 72.0585 15.0537 71.1846Z" fill="#252525" stroke="#252525" stroke-width="0.962993" stroke-miterlimit="10"/>
<path d="M78.7113 25.7076L18.5332 54.2557C19.5644 52.5195 20.8054 50.76 22.2503 48.9947C35.2018 33.1418 59.8871 22.6081 77.3771 25.4629C77.8316 25.5387 78.2802 25.6144 78.7113 25.7076Z" fill="#252525" stroke="#252525" stroke-width="0.962993" stroke-miterlimit="10"/>
<path d="M92.4946 46.9414L84.5244 25.8916" stroke="#252525" stroke-width="1.82804" stroke-miterlimit="10" stroke-linejoin="round"/>
<path d="M87.8219 56.3777L77.3115 28.6221" stroke="#252525" stroke-width="1.82804" stroke-miterlimit="10" stroke-linejoin="round"/>
<path d="M82.1403 63.1516L70.0977 31.3584" stroke="#252525" stroke-width="1.82804" stroke-miterlimit="10" stroke-linejoin="round"/>
<path d="M75.9615 68.6116L62.8877 34.0918" stroke="#252525" stroke-width="1.82804" stroke-miterlimit="10" stroke-linejoin="round"/>
<path d="M69.4225 73.1122L55.6729 36.8213" stroke="#252525" stroke-width="1.82804" stroke-miterlimit="10" stroke-linejoin="round"/>
<path d="M62.5777 76.8176L48.6299 39.979L48.4668 39.5479" fill="white"/>
<path d="M62.5777 76.8176L48.6299 39.979L48.4668 39.5479" stroke="#252525" stroke-width="1.82804" stroke-miterlimit="10" stroke-linejoin="round"/>
<path d="M55.4405 79.7695L41.6325 43.3038L41.2422 42.2842" fill="white"/>
<path d="M55.4405 79.7695L41.6325 43.3038L41.2422 42.2842" stroke="#252525" stroke-width="1.82804" stroke-miterlimit="10" stroke-linejoin="round"/>
<path d="M48.0178 81.9368L34.6352 46.613L34.0293 45.0166" fill="white"/>
<path d="M48.0178 81.9368L34.6352 46.613L34.0293 45.0166" stroke="#252525" stroke-width="1.82804" stroke-miterlimit="10" stroke-linejoin="round"/>
<path d="M40.228 83.1581L27.6494 49.9375L29.3273 54.377" fill="white"/>
<path d="M40.228 83.1581L27.6494 49.9375L29.3273 54.377" stroke="#252525" stroke-width="1.82804" stroke-miterlimit="10" stroke-linejoin="round"/>
<path d="M31.9434 83.0555L20.6582 53.2549L22.1147 57.106" fill="white"/>
<path d="M31.9434 83.0555L20.6582 53.2549L22.1147 57.106" stroke="#252525" stroke-width="1.82804" stroke-miterlimit="10" stroke-linejoin="round"/>
<path d="M22.6625 80.3166L13.667 56.5635L14.908 59.8319" fill="white"/>
<path d="M22.6625 80.3166L13.667 56.5635L14.908 59.8319" stroke="#252525" stroke-width="1.82804" stroke-miterlimit="10" stroke-linejoin="round"/>
<path d="M60.2195 62.5825C81.0851 51.6312 92.9769 33.1828 86.7805 21.3768C80.5842 9.57082 58.6461 8.87792 37.7805 19.8292C16.9149 30.7805 5.02313 49.2289 11.2195 61.0348C17.4158 72.8408 39.3539 73.5337 60.2195 62.5825Z" fill="white" stroke="#252525" stroke-width="1.82804" stroke-miterlimit="10" stroke-linejoin="round"/>
<path d="M71.8449 29.4835C71.2099 28.7086 70.1495 28.1085 68.6638 27.6891C67.1723 27.2696 65.4128 26.9491 63.3737 26.7452L53.5625 25.7373L40.9315 39.4404L36.7774 39.0151L33.6255 42.435L37.7795 42.8603L35.0063 45.8608L34.9131 45.8491L30.8581 45.4355L28.1781 48.3543L32.3204 48.7738L29.4948 51.8384L27.5488 53.9474L32.1981 54.4193L32.9438 53.6095L33.8061 52.689L36.9755 49.2574L40.9256 49.6536L42.8949 49.8517L47.515 50.3177L48.9366 48.7738L49.2978 48.3835L50.2067 47.4047L48.8783 47.2707L43.728 46.7405L39.673 46.3269L42.4404 43.338L47.0664 43.81L47.5849 43.8566C47.8412 43.8799 48.0976 43.909 48.3539 43.9148C50.1309 44.078 51.8729 44.1071 53.5916 44.0255C55.5609 43.9265 57.466 43.606 59.3071 43.07C59.8547 42.9127 60.3907 42.7321 60.9209 42.534C62.1852 42.0563 63.4087 41.4562 64.5972 40.7338C66.2868 39.7142 67.9006 38.3742 69.427 36.7196C71.0118 35.0125 71.9614 33.5618 72.2935 32.3966C72.4159 31.9654 72.4741 31.5518 72.4566 31.1789C72.4508 30.841 72.3926 30.5322 72.2877 30.2409C72.1887 29.9671 72.0313 29.7107 71.8449 29.4835ZM66.3858 33.5676C66.2635 34.1444 65.8848 34.8202 65.2322 35.6126C65.0749 35.8165 64.8885 36.0263 64.6846 36.2476C63.7116 37.2964 62.6687 38.147 61.5676 38.7704C60.9093 39.1549 60.2451 39.4695 59.5634 39.7258C59.1148 39.8948 58.6662 40.0346 58.2118 40.1512C57.0523 40.4366 55.8755 40.5998 54.6578 40.6172C53.6208 40.6289 52.5663 40.5939 51.5001 40.5065C51.3253 40.4891 51.1388 40.4716 50.9582 40.4541L45.5807 39.9065L55.0598 29.635L60.4373 30.1885C61.6783 30.3166 62.7911 30.4973 63.7699 30.7361C64.7429 30.975 65.4537 31.3304 65.9197 31.7848C66.1062 31.9713 66.2402 32.1752 66.3275 32.4082C66.4499 32.7461 66.4732 33.1307 66.3858 33.5676Z" fill="white"/>
<path d="M71.8449 29.4835C71.2099 28.7086 70.1495 28.1085 68.6638 27.6891C67.1723 27.2696 65.4128 26.9491 63.3737 26.7452L53.5625 25.7373L40.9315 39.4404L36.7774 39.0151L33.6255 42.435L37.7795 42.8603L35.0063 45.8608L34.9131 45.8491L30.8581 45.4355L28.1781 48.3543L32.3204 48.7738L29.4948 51.8384L27.5488 53.9474L32.1981 54.4193L32.9438 53.6095L33.8061 52.689L36.9755 49.2574L40.9256 49.6536L42.8949 49.8517L47.515 50.3177L48.9366 48.7738L49.2978 48.3835L50.2067 47.4047L48.8783 47.2707L43.728 46.7405L39.673 46.3269L42.4404 43.338L47.0664 43.81L47.5849 43.8566C47.8412 43.8799 48.0976 43.909 48.3539 43.9148C50.1309 44.078 51.8729 44.1071 53.5916 44.0255C55.5609 43.9265 57.466 43.606 59.3071 43.07C59.8547 42.9127 60.3907 42.7321 60.9209 42.534C62.1852 42.0563 63.4087 41.4562 64.5972 40.7338C66.2868 39.7142 67.9006 38.3742 69.427 36.7196C71.0118 35.0125 71.9614 33.5618 72.2935 32.3966C72.4159 31.9654 72.4741 31.5518 72.4566 31.1789C72.4508 30.841 72.3926 30.5322 72.2877 30.2409C72.1887 29.9671 72.0313 29.7107 71.8449 29.4835ZM66.3858 33.5676C66.2635 34.1444 65.8848 34.8202 65.2322 35.6126C65.0749 35.8165 64.8885 36.0263 64.6846 36.2476C63.7116 37.2964 62.6687 38.147 61.5676 38.7704C60.9093 39.1549 60.2451 39.4695 59.5634 39.7258C59.1148 39.8948 58.6662 40.0346 58.2118 40.1512C57.0523 40.4366 55.8755 40.5998 54.6578 40.6172C53.6208 40.6289 52.5663 40.5939 51.5001 40.5065C51.3253 40.4891 51.1388 40.4716 50.9582 40.4541L45.5807 39.9065L55.0598 29.635L60.4373 30.1885C61.6783 30.3166 62.7911 30.4973 63.7699 30.7361C64.7429 30.975 65.4537 31.3304 65.9197 31.7848C66.1062 31.9713 66.2402 32.1752 66.3275 32.4082C66.4499 32.7461 66.4732 33.1307 66.3858 33.5676Z" fill="white"/>
<path d="M71.8449 29.4835C71.2099 28.7086 70.1495 28.1085 68.6638 27.6891C67.1723 27.2696 65.4128 26.9491 63.3737 26.7452L53.5625 25.7373L40.9315 39.4404L36.7774 39.0151L33.6255 42.435L37.7795 42.8603L35.0063 45.8608L34.9131 45.8491L30.8581 45.4355L28.1781 48.3543L32.3204 48.7738L29.4948 51.8384L27.5488 53.9474L32.1981 54.4193L32.9438 53.6095L33.8061 52.689L36.9755 49.2574L40.9256 49.6536L42.8949 49.8517L47.515 50.3177L48.9366 48.7738L49.2978 48.3835L50.2067 47.4047L48.8783 47.2707L43.728 46.7405L39.673 46.3269L42.4404 43.338L47.0664 43.81L47.5849 43.8566C47.8412 43.8799 48.0976 43.909 48.3539 43.9148C50.1309 44.078 51.8729 44.1071 53.5916 44.0255C55.5609 43.9265 57.466 43.606 59.3071 43.07C59.8547 42.9127 60.3907 42.7321 60.9209 42.534C62.1852 42.0563 63.4087 41.4562 64.5972 40.7338C66.2868 39.7142 67.9006 38.3742 69.427 36.7196C71.0118 35.0125 71.9614 33.5618 72.2935 32.3966C72.4159 31.9654 72.4741 31.5518 72.4566 31.1789C72.4508 30.841 72.3926 30.5322 72.2877 30.2409C72.1887 29.9671 72.0313 29.7107 71.8449 29.4835ZM66.3858 33.5676C66.2635 34.1444 65.8848 34.8202 65.2322 35.6126C65.0749 35.8165 64.8885 36.0263 64.6846 36.2476C63.7116 37.2964 62.6687 38.147 61.5676 38.7704C60.9093 39.1549 60.2451 39.4695 59.5634 39.7258C59.1148 39.8948 58.6662 40.0346 58.2118 40.1512C57.0523 40.4366 55.8755 40.5998 54.6578 40.6172C53.6208 40.6289 52.5663 40.5939 51.5001 40.5065C51.3253 40.4891 51.1388 40.4716 50.9582 40.4541L45.5807 39.9065L55.0598 29.635L60.4373 30.1885C61.6783 30.3166 62.7911 30.4973 63.7699 30.7361C64.7429 30.975 65.4537 31.3304 65.9197 31.7848C66.1062 31.9713 66.2402 32.1752 66.3275 32.4082C66.4499 32.7461 66.4732 33.1307 66.3858 33.5676Z" fill="white" stroke="#252525" stroke-width="1.82804" stroke-miterlimit="10" stroke-linejoin="round"/>
</svg>
