<svg width="70" height="80" viewBox="0 0 70 80" fill="none" xmlns="http://www.w3.org/2000/svg">
<path d="M0 5C0 2.23857 2.23858 0 5 0H65C67.7614 0 70 2.23858 70 5V59.0966C70 60.9399 68.9859 62.6336 67.3611 63.504L37.9514 79.2593C37.0296 79.7531 36.0148 80 35 80C33.9852 80 32.9704 79.7531 32.0486 79.2593L2.63889 63.504C1.01412 62.6336 0 60.9399 0 59.0966V5Z" fill="url(#paint0_linear_2163_49865)"/>
<g clip-path="url(#clip0_2163_49865)">
<path d="M40.5859 33.9844H29.4141C26.875 33.9844 24.8438 31.9531 24.8438 29.4141C24.8438 26.875 26.875 24.8438 29.4141 24.8438C31.6484 24.8438 33.4766 26.4688 33.8828 28.6016L32.8672 27.5859C32.4609 27.1797 31.8516 27.1797 31.4453 27.5859C31.0391 27.9922 31.0391 28.6016 31.4453 29.0078L35 32.5625L38.5547 29.0078C38.9609 28.6016 38.9609 27.9922 38.5547 27.5859C38.1484 27.1797 37.5391 27.1797 37.1328 27.5859L36.0156 28.8047C35.6094 25.4531 32.8672 22.8125 29.4141 22.8125C25.7578 22.8125 22.8125 25.7578 22.8125 29.4141C22.8125 33.0703 25.7578 36.0156 29.4141 36.0156H40.5859C43.125 36.0156 45.1563 38.0469 45.1563 40.5859C45.1563 43.125 43.125 45.1562 40.5859 45.1562C38.1484 45.1562 36.0156 43.3281 36.0156 41.0938C36.0156 39.4688 36.0156 39.2656 36.0156 39.0625C36.0156 38.4531 35.6094 38.0469 35 38.0469C34.3906 38.0469 33.9844 38.4531 33.9844 39.0625V39.1641C33.9844 39.2656 33.9844 39.4688 33.9844 41.0938C33.9844 44.4453 37.0313 47.1875 40.5859 47.1875C44.2422 47.1875 47.1875 44.2422 47.1875 40.5859C47.1875 36.9297 44.2422 33.9844 40.5859 33.9844Z" fill="white"/>
</g>
<defs>
<linearGradient id="paint0_linear_2163_49865" x1="35" y1="80" x2="-8.07692" y2="4.61538" gradientUnits="userSpaceOnUse">
<stop stop-color="#1AA0E8"/>
<stop offset="1" stop-color="#0138FF"/>
</linearGradient>
<clipPath id="clip0_2163_49865">
<rect width="24.375" height="24.375" fill="white" transform="translate(22.8125 22.8125)"/>
</clipPath>
</defs>
</svg>
