<svg width="299" height="247" viewBox="0 0 299 247" fill="none" xmlns="http://www.w3.org/2000/svg">
<path d="M278.609 97.6977L278.643 97.8646C282.096 115.576 279.096 133.408 270.89 149.853C259.476 172.845 238.009 193.099 210.206 206.632C196.832 213.099 182.676 217.807 168.093 220.638C153.514 223.512 138.625 224.493 123.795 223.556C92.9462 221.511 65.4333 210.798 46.1975 193.842C32.4066 181.69 22.8639 166.315 19.3962 148.633L19.3614 148.46C17.6673 139.688 17.5247 130.686 18.9403 121.865C20.411 112.951 23.2569 104.319 27.3763 96.2785C38.8264 73.4661 60.1668 53.3505 87.8356 39.8786C101.211 33.416 115.369 28.7167 129.954 25.8983C144.526 22.9901 159.415 21.9962 174.244 22.9417C204.931 24.9784 232.304 35.5602 251.509 52.362C265.432 64.5406 275.082 79.9205 278.609 97.6977Z" fill="#FAE58B"/>
<path d="M235.681 63.3112L192.778 71.7127C169.609 45.5421 135.129 41.4083 132.898 40.9076C145.222 38.4621 157.811 37.6332 170.348 38.4419C196.297 40.1606 219.435 49.1078 235.681 63.3112Z" fill="#FAE58B" stroke="black" stroke-width="0.845539" stroke-miterlimit="10"/>
<path d="M132.899 40.9075C135.129 41.4082 169.613 45.5613 192.778 71.7126L140.916 81.8648L132.899 40.9075Z" fill="#FAE58B" stroke="black" stroke-width="0.845539" stroke-miterlimit="10"/>
<path d="M92.4863 91.3483C88.734 103.4 87.4177 117.742 90.6974 134.52L39.3892 144.568C36.465 129.528 39.1097 114.386 46.152 100.425L92.4863 91.3483Z" fill="#FAE58B" stroke="black" stroke-width="0.845539" stroke-miterlimit="10"/>
<path d="M92.4868 91.3481L46.1512 100.418C55.834 81.1124 73.9097 64.1295 97.2858 52.7611C108.597 47.2939 120.57 43.3201 132.905 40.9395C129.958 43.1936 102.517 59.0639 92.4868 91.3481Z" fill="#FAE58B" stroke="black" stroke-width="0.845539" stroke-miterlimit="10"/>
<path d="M252.069 145.749C242.413 165.156 224.272 182.313 200.763 193.754C189.449 199.22 177.474 203.194 165.137 205.577C166.995 204.283 199.248 189.197 210.114 153.954L252.069 145.749Z" fill="#FAE58B" stroke="black" stroke-width="0.845539" stroke-miterlimit="10"/>
<path d="M92.4862 91.348L140.916 81.8645L157.066 164.35L108.232 173.915C129.776 200.979 161.611 204.575 165.172 205.584C152.849 208.023 140.261 208.854 127.723 208.056C101.632 206.325 78.3694 197.256 62.1015 182.944C50.4433 172.668 42.3789 159.668 39.4418 144.697L39.4148 144.563L90.7231 134.515C87.4177 117.742 88.7339 103.4 92.4862 91.348Z" fill="#FAE58B" stroke="black" stroke-width="0.845539" stroke-miterlimit="10"/>
<path d="M258.598 101.639L258.627 101.787C261.557 116.753 258.988 131.84 252.088 145.745L210.136 153.963C213.81 141.986 215.023 127.699 211.718 110.825C208.446 94.119 201.413 81.3994 192.797 71.7086L235.7 63.3071C247.452 73.584 255.616 86.6111 258.598 101.639Z" fill="#FAE58B" stroke="black" stroke-width="0.845539" stroke-miterlimit="10"/>
<path d="M258.599 101.646L211.698 110.829" stroke="black" stroke-width="0.845539" stroke-miterlimit="10"/>
<path d="M148.992 123.111L90.6975 134.52" stroke="black" stroke-width="0.845539" stroke-miterlimit="10"/>
<path d="M108.2 173.922L62.0695 182.95" stroke="black" stroke-width="0.845539" stroke-miterlimit="10"/>
<path d="M211.699 110.829L148.992 123.111L140.916 81.8647L192.778 71.7125C201.392 81.3969 208.429 94.1357 211.699 110.829Z" fill="#FAE58B" stroke="black" stroke-width="0.845539" stroke-miterlimit="10"/>
<path d="M210.116 153.967C199.276 189.205 166.997 204.296 165.14 205.59L157.066 164.351L210.116 153.967Z" fill="#FAE58B" stroke="black" stroke-width="0.845539" stroke-miterlimit="10"/>
<path d="M211.699 110.829C215.004 127.703 213.79 141.99 210.116 153.966L157.066 164.35L148.992 123.111L211.699 110.829Z" fill="#FAE58B" stroke="black" stroke-width="0.845539" stroke-miterlimit="10"/>
<path d="M132.898 40.9074L140.916 81.8646L92.4862 91.3482C102.517 59.064 129.958 43.1936 132.898 40.9074Z" fill="#FAE58B" stroke="black" stroke-width="0.845539" stroke-miterlimit="10"/>
<path d="M157.066 164.35L165.14 205.59C161.598 204.578 129.749 201.011 108.2 173.922L157.066 164.35Z" fill="#FAE58B" stroke="black" stroke-width="0.845539" stroke-miterlimit="10"/>
<path d="M90.6975 134.52C93.9952 151.355 100.425 164.162 108.2 173.922L90.6975 134.52Z" fill="#FAE58B"/>
<path d="M90.6975 134.52C93.9952 151.355 100.425 164.162 108.2 173.922" stroke="black" stroke-width="0.845539" stroke-miterlimit="10"/>
<path d="M181.793 87.9604L104.36 103.497C87.7424 106.831 76.9742 123.006 80.3085 139.623C83.6427 156.241 99.8169 167.009 116.434 163.675L193.868 148.138C210.485 144.804 221.253 128.629 217.919 112.012C214.585 95.3943 198.411 84.6261 181.793 87.9604Z" fill="#FAE58B"/>
<path d="M88.3248 159.739L86.3189 153.269C90.6009 154.641 95.0852 155.09 98.7059 154.363C103.2 153.462 106.524 151.459 105.422 145.964L104.788 142.805L104.107 142.942C102.575 146.421 99.8668 148.434 96.137 149.182C89.8073 150.452 82.4754 146.695 80.5021 136.86C78.5288 127.025 83.8448 120.736 90.1745 119.466C93.9043 118.718 97.1793 119.53 99.9417 122.181L100.622 122.044L99.875 118.321L106.372 117.017L111.981 145.275C113.266 154.307 108.062 158.523 100.544 160.031C96.5084 160.933 92.3129 160.833 88.3248 159.739ZM96.7959 143.113C98.2489 142.818 99.6256 142.226 100.84 141.376C102.055 140.525 103.082 139.434 103.858 138.17L101.539 126.615C100.336 125.748 98.9678 125.138 97.519 124.822C96.0701 124.506 94.5718 124.491 93.1171 124.779C88.938 125.617 85.8326 129.179 87.1014 135.502C88.3701 141.826 92.5859 143.965 96.765 143.126L96.7959 143.113Z" fill="black"/>
<path d="M117.617 101.505L120.914 117.939L121.595 117.803C123.127 114.323 125.829 112.278 129.565 111.529C135.888 110.26 143.227 114.017 145.199 123.845C147.171 133.673 141.851 139.976 135.528 141.245C131.798 141.994 128.516 141.183 125.76 138.564L125.08 138.7L125.827 142.424L119.337 143.726L111.127 102.807L117.617 101.505ZM132.579 135.933C136.758 135.095 139.863 131.534 138.593 125.204C137.323 118.874 133.085 116.793 128.906 117.631C127.453 117.927 126.076 118.518 124.862 119.369C123.647 120.219 122.62 121.31 121.844 122.574L124.163 134.129C125.367 134.991 126.736 135.597 128.183 135.908C129.631 136.22 131.128 136.23 132.58 135.94L132.579 135.933Z" fill="black"/>
<path d="M151.522 133.428C150.966 130.655 152.414 128.488 155.098 127.949C157.865 127.394 160.03 128.836 160.587 131.609C161.119 134.261 159.678 136.433 156.911 136.988C156.322 137.144 155.706 137.173 155.104 137.075C154.502 136.976 153.928 136.751 153.42 136.415C152.911 136.079 152.479 135.639 152.152 135.124C151.825 134.609 151.61 134.031 151.522 133.428Z" fill="black"/>
<path d="M162.421 105.738L168.918 104.434L169.995 109.801L170.637 109.672C171.443 105.504 175.119 102.422 180.087 101.425L182.117 108.01C176.036 109.056 172.849 111.045 170.898 114.201L174.603 132.67L168.107 133.974L162.421 105.738Z" fill="black"/>
<path d="M202.387 121.867C205.293 121.202 207.824 119.429 209.442 116.925L205.465 97.1011L211.961 95.7976L217.629 124.044L211.132 125.347L210.373 121.566L209.809 121.68C208.817 123.376 207.471 124.838 205.863 125.968C204.255 127.097 202.422 127.866 200.49 128.224C193.994 129.527 190.053 125.73 188.704 119.009L185.123 101.162L191.62 99.8589L195.019 116.8C195.885 121.114 198.997 122.547 202.387 121.867Z" fill="black"/>
</svg>
