<svg width="64" height="64" viewBox="0 0 64 64" fill="none" xmlns="http://www.w3.org/2000/svg">
<circle cx="33.5" cy="33.5" r="28.5" fill="white"/>
<path fill-rule="evenodd" clip-rule="evenodd" d="M32.5545 0.36954C32.2187 0.1457 31.7812 0.1457 31.4453 0.36954L30.7877 0.807842C30.485 1.00962 30.0965 1.03105 29.7734 0.863802L29.0716 0.500505C28.7131 0.31497 28.2783 0.363097 27.9691 0.622525L27.3637 1.13051C27.085 1.36437 26.7012 1.4284 26.3617 1.29771L25.6241 1.01383C25.2475 0.868852 24.8206 0.964522 24.5418 1.25639L23.9959 1.82789C23.7446 2.09099 23.3703 2.19685 23.0184 2.10431L22.2541 1.90328C21.8638 1.80062 21.45 1.94267 21.205 2.26344L20.7253 2.89153C20.5045 3.18067 20.1441 3.32706 19.7842 3.27379L19.0024 3.15807C18.6031 3.09897 18.2075 3.28568 17.9993 3.63145L17.5916 4.30849C17.4039 4.62017 17.0618 4.80533 16.6982 4.79197L15.9084 4.76296C15.5051 4.74814 15.1324 4.97724 14.9635 5.34381L14.6328 6.06159C14.4805 6.39203 14.1608 6.6137 13.798 6.64042L13.0098 6.69846C12.6073 6.72811 12.2621 6.99682 12.1345 7.37974L11.8848 8.12955C11.7698 8.47473 11.4764 8.73023 11.1187 8.7967L10.3417 8.9411C9.94489 9.01484 9.63131 9.3199 9.54666 9.71453L9.3809 10.4873C9.3046 10.843 9.04111 11.1292 8.6929 11.2346L7.9365 11.4636C7.5502 11.5806 7.27208 11.9183 7.23136 12.3198L7.15162 13.1061C7.11491 13.4681 6.88451 13.7815 6.55001 13.9246L5.82338 14.2354C5.4523 14.3942 5.21302 14.7604 5.21672 15.164L5.22396 15.9543C5.22729 16.3181 5.03277 16.655 4.71604 16.834L4.02802 17.2229C3.67665 17.4215 3.47911 17.8118 3.52719 18.2126L3.62132 18.9973C3.66465 19.3585 3.50838 19.7148 3.21327 19.9275L2.5722 20.3897C2.24481 20.6258 2.09141 21.0355 2.18328 21.4285L2.36316 22.1981C2.44597 22.5523 2.32984 22.9236 2.05992 23.1676L1.47359 23.6975C1.17415 23.9681 1.06676 24.3922 1.2013 24.7727L1.46475 25.5178C1.58603 25.8609 1.51145 26.2427 1.27001 26.5148L0.745531 27.106C0.477683 27.408 0.417592 27.8413 0.59318 28.2047L0.937 28.9163C1.09528 29.2439 1.06315 29.6316 0.853113 29.9287L0.396857 30.574C0.163848 30.9035 0.151793 31.3409 0.366294 31.6827L0.78631 32.3522C0.979665 32.6604 0.990384 33.0493 0.8143 33.3676L0.431802 34.0592C0.236461 34.4124 0.272589 34.8484 0.523399 35.1646L1.01451 35.7838C1.24059 36.0689 1.29403 36.4542 1.15404 36.79L0.84994 37.5195C0.694638 37.892 0.778509 38.3214 1.06258 38.6081L1.61883 39.1695C1.8749 39.428 1.9704 39.8051 1.8682 40.1542L1.6462 40.9127C1.53282 41.3001 1.66342 41.7176 1.97731 41.9714L2.59194 42.4682C2.87488 42.6969 3.01129 43.0612 2.94813 43.4195L2.81091 44.1978C2.74083 44.5953 2.91657 44.9959 3.25646 45.2136L3.92202 45.6398C4.22841 45.8359 4.40407 46.1831 4.3807 46.5461L4.32993 47.3348C4.30401 47.7376 4.52275 48.1165 4.88453 48.2954L5.59293 48.6458C5.91904 48.8071 6.13182 49.1327 6.14853 49.4962L6.18484 50.2857C6.20338 50.6888 6.46247 51.0414 6.84174 51.1794L7.58438 51.4497C7.92626 51.5742 8.17357 51.8745 8.23017 52.2339L8.3531 53.0145C8.41588 53.4132 8.71218 53.7351 9.10433 53.8306L9.8722 54.0176C10.2257 54.1037 10.5045 54.3749 10.6003 54.7259L10.8084 55.4883C10.9147 55.8777 11.2446 56.165 11.6448 56.2168L12.4286 56.3182C12.7894 56.3649 13.0964 56.6038 13.2303 56.9421L13.5209 57.677C13.6694 58.0524 14.0289 58.3016 14.4325 58.3091L15.2226 58.3236C15.5864 58.3303 15.9178 58.534 16.088 58.8556L16.4578 59.554C16.6466 59.9107 17.0314 60.119 17.4333 60.0819L18.2203 60.0095C18.5826 59.9761 18.9344 60.1421 19.1389 60.443L19.5833 61.0966C19.8102 61.4303 20.2156 61.595 20.611 61.514L21.3852 61.3554C21.7416 61.2823 22.1096 61.4086 22.346 61.6852L22.8595 62.2859C23.1218 62.5927 23.5428 62.7117 23.9269 62.5877L24.679 62.3449C25.0252 62.2331 25.4048 62.3182 25.6702 62.567L26.2467 63.1076C26.5411 63.3837 26.9727 63.4557 27.3408 63.2902L28.0616 62.9661C28.3934 62.8169 28.7801 62.8597 29.0712 63.0778L29.7037 63.5517C30.0267 63.7937 30.4636 63.8178 30.8112 63.6128L31.492 63.2114C31.8054 63.0266 32.1945 63.0266 32.5079 63.2114L33.1886 63.6128C33.5363 63.8178 33.9731 63.7937 34.2961 63.5517L34.9286 63.0778C35.2198 62.8597 35.6065 62.8169 35.9383 62.9661L36.6591 63.2902C37.0272 63.4557 37.4587 63.3837 37.7532 63.1076L38.3297 62.567C38.5951 62.3182 38.9747 62.2331 39.3209 62.3449L40.073 62.5877C40.4571 62.7117 40.8781 62.5927 41.1403 62.2859L41.6539 61.6852C41.8903 61.4086 42.2583 61.2823 42.6147 61.3554L43.3889 61.514C43.7843 61.595 44.1896 61.4303 44.4166 61.0966L44.8609 60.443C45.0655 60.1421 45.4173 59.9761 45.7796 60.0095L46.5666 60.0819C46.9685 60.119 47.3532 59.9107 47.5421 59.554L47.9118 58.8556C48.0821 58.534 48.4135 58.3303 48.7772 58.3236L49.5674 58.3091C49.971 58.3016 50.3305 58.0524 50.4789 57.677L50.7696 56.9421C50.9034 56.6038 51.2104 56.3649 51.5712 56.3182L52.355 56.2168C52.7553 56.165 53.0852 55.8777 53.1915 55.4883L53.3995 54.7259C53.4953 54.3749 53.7742 54.1037 54.1277 54.0176L54.8955 53.8306C55.2877 53.7351 55.584 53.4132 55.6468 53.0145L55.7697 52.2339C55.8263 51.8745 56.0736 51.5742 56.4155 51.4497L57.1581 51.1794C57.5374 51.0414 57.7965 50.6888 57.815 50.2857L57.8513 49.4962C57.8681 49.1327 58.0808 48.8071 58.4069 48.6458L59.1153 48.2954C59.4771 48.1165 59.6959 47.7376 59.6699 47.3348L59.6192 46.5461C59.5958 46.1831 59.7715 45.8359 60.0779 45.6398L60.7434 45.2136C61.0833 44.9959 61.259 44.5953 61.189 44.1978L61.0517 43.4195C60.9886 43.0612 61.125 42.6969 61.4079 42.4682L62.0226 41.9714C62.3365 41.7176 62.4671 41.3001 62.3537 40.9127L62.1317 40.1542C62.0295 39.8051 62.125 39.428 62.381 39.1695L62.9373 38.6081C63.2214 38.3214 63.3052 37.892 63.1499 37.5195L62.8458 36.79C62.7058 36.4542 62.7593 36.0689 62.9854 35.7838L63.4765 35.1646C63.7273 34.8484 63.7634 34.4124 63.5681 34.0592L63.1856 33.3676C63.0095 33.0493 63.0202 32.6604 63.2136 32.3522L63.6336 31.6827C63.8481 31.3409 63.836 30.9035 63.603 30.574L63.1468 29.9287C62.9367 29.6316 62.9046 29.2439 63.0629 28.9163L63.4067 28.2047C63.5823 27.8413 63.5222 27.408 63.2543 27.106L62.7299 26.5148C62.4884 26.2427 62.4138 25.8609 62.5351 25.5178L62.7986 24.7727C62.9331 24.3922 62.8257 23.9681 62.5263 23.6975L61.94 23.1676C61.67 22.9236 61.5539 22.5523 61.6367 22.1981L61.8166 21.4285C61.9085 21.0355 61.7551 20.6258 61.4277 20.3897L60.7866 19.9275C60.4915 19.7148 60.3352 19.3585 60.3786 18.9973L60.4727 18.2126C60.5208 17.8118 60.3232 17.4215 59.9719 17.2229L59.2838 16.834C58.9671 16.655 58.7726 16.3181 58.7759 15.9543L58.7832 15.164C58.7869 14.7604 58.5476 14.3942 58.1765 14.2354L57.4499 13.9246C57.1154 13.7815 56.885 13.4681 56.8483 13.1061L56.7685 12.3198C56.7278 11.9183 56.4497 11.5806 56.0634 11.4636L55.307 11.2346C54.9588 11.1292 54.6953 10.843 54.619 10.4873L54.4532 9.71453C54.3686 9.3199 54.055 9.01484 53.6582 8.9411L52.8812 8.7967C52.5235 8.73023 52.2301 8.47473 52.1151 8.12955L51.8654 7.37974C51.7378 6.99682 51.3926 6.72811 50.9901 6.69846L50.2019 6.64042C49.839 6.6137 49.5193 6.39203 49.3671 6.06159L49.0364 5.34381C48.8675 4.97724 48.4948 4.74814 48.0914 4.76296L47.3017 4.79197C46.9381 4.80533 46.5959 4.62017 46.4083 4.30849L46.0006 3.63145C45.7924 3.28568 45.3967 3.09897 44.9975 3.15807L44.2157 3.27379C43.8558 3.32706 43.4954 3.18067 43.2745 2.89153L42.7948 2.26344C42.5499 1.94267 42.1361 1.80062 41.7458 1.90328L40.9814 2.10431C40.6296 2.19685 40.2552 2.09099 40.0039 1.82789L39.4581 1.25639C39.1793 0.964522 38.7524 0.868852 38.3757 1.01383L37.6382 1.29771C37.2986 1.4284 36.9149 1.36437 36.6362 1.13051L36.0308 0.622525C35.7216 0.363097 35.2867 0.31497 34.9283 0.500505L34.2265 0.863802C33.9033 1.03105 33.5149 1.00962 33.2122 0.807843L32.5545 0.36954ZM20.3597 29.2024C21.2248 28.3466 21.1921 26.9332 20.2868 26.0456C19.3814 25.1579 17.9462 25.1321 17.0811 25.9879L8.96879 34.0133C8.45712 34.5195 8.23926 35.2502 8.38525 35.9705C8.53125 36.6908 9.02269 37.3099 9.70157 37.6286L20.0934 42.5079C21.2412 43.0469 22.5775 42.5847 23.0781 41.4757C23.5788 40.3667 23.0542 39.0308 21.9064 38.4919L14.4897 35.0095L20.3597 29.2024ZM45.1116 38.7118C44.1155 37.9271 43.9299 36.5254 44.6969 35.5809L50.551 28.3726L42.5461 25.3238C41.3607 24.8724 40.7392 23.5807 41.1579 22.4388C41.5766 21.2968 42.877 20.7371 44.0624 21.1886L55.0294 25.3655C55.7174 25.6275 56.2473 26.1914 56.4542 26.8819C56.6611 27.5723 56.52 28.3057 56.0748 28.8539L48.304 38.4223C47.5369 39.3669 46.1076 39.4964 45.1116 38.7118ZM34.7675 18.6997C34.7907 17.4573 33.8023 16.4313 32.5599 16.4082C31.3174 16.385 30.2915 17.3734 30.2683 18.6158L29.793 44.1065C29.7698 45.3489 30.7582 46.3749 32.0007 46.3981C33.2431 46.4212 34.2691 45.4328 34.2922 44.1904L34.7675 18.6997Z" fill="#5DB560"/>
</svg>
