<svg width="35" height="35" viewBox="0 0 35 35" fill="none" xmlns="http://www.w3.org/2000/svg">
<circle cx="17.5" cy="17.5" r="16.5" stroke="#191816" stroke-width="2"/>
<path d="M21.5 10C22.9045 10 23.6067 10 24.1111 10.3371C24.3295 10.483 24.517 10.6705 24.6629 10.8889C25 11.3933 25 12.0955 25 13.5V23C25 24.8856 25 25.8284 24.4142 26.4142C23.8284 27 22.8856 27 21 27H15C13.1144 27 12.1716 27 11.5858 26.4142C11 25.8284 11 24.8856 11 23V13.5C11 12.0955 11 11.3933 11.3371 10.8889C11.483 10.6705 11.6705 10.483 11.8889 10.3371C12.3933 10 13.0955 10 14.5 10" stroke="#191816" stroke-width="2"/>
<path d="M15 10C15 8.89543 15.8954 8 17 8H19C20.1046 8 21 8.89543 21 10C21 11.1046 20.1046 12 19 12H17C15.8954 12 15 11.1046 15 10Z" stroke="#191816" stroke-width="2"/>
<path d="M15 17L21 17" stroke="#191816" stroke-width="2" stroke-linecap="round"/>
<path d="M15 21L19 21" stroke="#191816" stroke-width="2" stroke-linecap="round"/>
</svg>
