<svg width="83" height="81" viewBox="0 0 83 81" fill="none" xmlns="http://www.w3.org/2000/svg">
<path d="M38.7979 12.8906C38.817 12.9282 38.8246 12.9644 38.8335 12.989C38.8348 12.9774 38.8232 12.976 38.8246 12.9644C38.8273 12.9411 38.8184 12.9166 38.7979 12.8906Z" fill="white" stroke="#252525" stroke-width="0.971957" stroke-miterlimit="10"/>
<path d="M37.8666 10.7899C37.8562 10.7769 37.8459 10.7638 37.8472 10.7521C37.8072 10.6881 37.7803 10.6138 37.7402 10.5498C37.7996 10.6516 37.8472 10.7521 37.8949 10.8526C37.8859 10.8278 37.8755 10.8147 37.8666 10.7899Z" fill="white" stroke="#252525" stroke-width="0.971957" stroke-miterlimit="10"/>
<path d="M67.411 15.0679C67.3936 14.9116 67.3748 14.767 67.3457 14.6094C67.3672 14.7305 67.3873 14.8634 67.4088 14.9846C67.4048 15.0197 67.4034 15.0314 67.411 15.0679Z" fill="white" stroke="#252525" stroke-width="0.971957" stroke-miterlimit="10"/>
<path d="M67.3798 17.1775C67.3662 17.2946 67.3526 17.4117 67.3259 17.5391C67.3178 17.6093 67.2979 17.6782 67.2897 17.7485C67.3349 17.5639 67.3581 17.3648 67.3798 17.1775Z" fill="white" stroke="#252525" stroke-width="0.971957" stroke-miterlimit="10"/>
<path d="M38.7441 12.7422C38.7621 12.7916 38.7814 12.8294 38.789 12.8658C38.7787 12.8528 38.78 12.8411 38.771 12.8164C38.7621 12.7916 38.7531 12.7669 38.7441 12.7422Z" fill="white" stroke="#252525" stroke-width="0.971957" stroke-miterlimit="10"/>
<path d="M65.1052 23.0694C65.062 23.1356 65.02 23.19 64.9767 23.2562C64.9348 23.3106 64.8929 23.3651 64.8509 23.4196C64.9348 23.3107 65.02 23.19 65.1052 23.0694Z" fill="white" stroke="#252525" stroke-width="0.971957" stroke-miterlimit="10"/>
<path d="M38.4551 12.0439C38.4849 12.0951 38.5016 12.1567 38.5315 12.2079C38.5224 12.183 38.503 12.145 38.494 12.1201C38.4849 12.0951 38.4641 12.0689 38.4551 12.0439Z" fill="white" stroke="#252525" stroke-width="0.971957" stroke-miterlimit="10"/>
<path d="M37.1806 9.55635C37.1316 9.46759 37.0812 9.39052 37.0322 9.30176C37.0812 9.39052 37.1316 9.46759 37.1806 9.55635Z" fill="white" stroke="#252525" stroke-width="0.971957" stroke-miterlimit="10"/>
<path d="M38.1075 11.268C38.0496 11.1544 38.0033 11.0422 37.9453 10.9287C38.0019 11.054 38.0716 11.1689 38.1165 11.2927C38.1179 11.281 38.1062 11.2797 38.1075 11.268Z" fill="white" stroke="#252525" stroke-width="0.971957" stroke-miterlimit="10"/>
<path d="M38.2699 11.6177C38.2312 11.542 38.1939 11.4546 38.1553 11.3789C38.1939 11.4546 38.2429 11.5434 38.2699 11.6177Z" fill="white" stroke="#252525" stroke-width="0.971957" stroke-miterlimit="10"/>
<path d="M37.6734 10.4108C37.6244 10.3221 37.5754 10.2333 37.5264 10.1445C37.5754 10.2333 37.6244 10.3221 37.6734 10.4108Z" fill="white" stroke="#252525" stroke-width="0.971957" stroke-miterlimit="10"/>
<path d="M37.2891 9.7373C37.3484 9.83913 37.4077 9.94095 37.4671 10.0428C37.4581 10.018 37.4374 9.99187 37.4285 9.96709C37.3781 9.89004 37.3277 9.81299 37.2891 9.7373Z" fill="white" stroke="#252525" stroke-width="0.971957" stroke-miterlimit="10"/>
<path d="M36.9011 9.09738C36.8508 9.02033 36.8004 8.94326 36.75 8.86621C36.8211 8.9694 36.8921 9.0726 36.9515 9.17443C36.9528 9.16272 36.9411 9.16135 36.9425 9.14964C36.9204 9.13521 36.9115 9.11045 36.9011 9.09738Z" fill="white" stroke="#252525" stroke-width="0.971957" stroke-miterlimit="10"/>
<path d="M38.8597 13.0639C38.8495 13.0509 38.8406 13.0264 38.833 12.9902C38.8522 13.0277 38.8611 13.0523 38.8597 13.0639Z" fill="white" stroke="#252525" stroke-width="0.971957" stroke-miterlimit="10"/>
<path d="M38.6166 12.4063C38.6076 12.3813 38.5881 12.3433 38.5791 12.3184C38.5972 12.3682 38.6152 12.418 38.6333 12.4679C38.6229 12.4547 38.6243 12.4429 38.6139 12.4298C38.6152 12.418 38.6166 12.4063 38.6166 12.4063Z" fill="white" stroke="#252525" stroke-width="0.971957" stroke-miterlimit="10"/>
<path d="M38.2979 11.6807C38.3351 11.7681 38.3738 11.8437 38.4111 11.9311C38.3931 11.8816 38.3648 11.819 38.3352 11.7681C38.3275 11.7316 38.3185 11.7068 38.2979 11.6807Z" fill="white" stroke="#252525" stroke-width="0.971957" stroke-miterlimit="10"/>
<path d="M38.6709 12.5439C38.689 12.5938 38.707 12.6436 38.7265 12.6817C38.7161 12.6685 38.707 12.6436 38.7084 12.6318C38.6876 12.6055 38.6799 12.5689 38.6709 12.5439Z" fill="white" stroke="#252525" stroke-width="0.971957" stroke-miterlimit="10"/>
<path d="M67.4091 16.9298C67.4287 16.6592 67.4497 16.3769 67.4473 16.0918C67.4459 16.1035 67.4576 16.1049 67.4576 16.1049C67.4497 16.3768 67.4404 16.6606 67.4091 16.9298Z" fill="white" stroke="#252525" stroke-width="0.971957" stroke-miterlimit="10"/>
<path d="M67.0617 13.1876C67.0002 13.0025 66.94 12.8056 66.8682 12.6074C66.931 12.7809 66.9953 12.9426 67.0478 13.103C67.0438 13.1381 67.041 13.1615 67.0617 13.1876Z" fill="white" stroke="#252525" stroke-width="0.971957" stroke-miterlimit="10"/>
<path d="M66.7308 12.261C66.6832 12.1605 66.6472 12.0614 66.5996 11.9609C66.6486 12.0497 66.6873 12.1254 66.7128 12.2114C66.7232 12.2245 66.7322 12.2493 66.7308 12.261Z" fill="white" stroke="#252525" stroke-width="0.971957" stroke-miterlimit="10"/>
<path d="M36.9022 9.09879C36.9125 9.11186 36.9215 9.13662 36.9435 9.15106L39.3656 12.7077C39.3656 12.7077 39.3656 12.7077 39.3787 12.6974L36.582 8.58691C36.6027 8.61305 36.622 8.65091 36.6427 8.67704C36.6828 8.74103 36.7228 8.80501 36.7641 8.85728C36.8014 8.94468 36.8518 9.02174 36.9022 9.09879Z" fill="white" stroke="#252525" stroke-width="0.971957" stroke-miterlimit="10"/>
<path d="M36.9494 9.17517C36.9805 9.21438 36.9984 9.26392 37.0294 9.30313C37.0784 9.39189 37.1288 9.46896 37.1778 9.55771C37.2179 9.6217 37.2475 9.67261 37.2875 9.73659C37.3379 9.81364 37.3766 9.88933 37.4152 9.96502C37.4242 9.98979 37.4449 10.0159 37.4539 10.0407C37.4732 10.0785 37.4925 10.1164 37.5235 10.1556C37.5725 10.2444 37.6216 10.3331 37.6706 10.4219C37.7003 10.4728 37.7196 10.5106 37.7492 10.5616C37.7879 10.6372 37.8162 10.6999 37.8562 10.7639C37.8666 10.7769 37.8769 10.79 37.8756 10.8017L39.2449 12.8002C39.2841 12.7691 39.3233 12.7381 39.3625 12.707L36.9404 9.15039C36.9391 9.1621 36.9391 9.1621 36.9494 9.17517Z" fill="white" stroke="#252525" stroke-width="0.971957" stroke-miterlimit="10"/>
<path d="M37.8955 10.8524C37.9162 10.8786 37.9251 10.9034 37.9341 10.9281C37.9921 11.0417 38.0501 11.1552 38.0964 11.2674L38.1067 11.2805C38.1274 11.3066 38.135 11.3431 38.144 11.3678C38.1813 11.4552 38.22 11.5309 38.2586 11.6066C38.2676 11.6314 38.2779 11.6445 38.2869 11.6692C38.2959 11.694 38.3166 11.7202 38.3242 11.7566C38.3539 11.8076 38.3705 11.8688 38.4002 11.9197C38.4195 11.9576 38.4388 11.9954 38.4465 12.0319C38.4555 12.0567 38.4644 12.0814 38.4734 12.1062C38.4824 12.131 38.5017 12.1689 38.5107 12.1936C38.53 12.2315 38.5377 12.268 38.557 12.3058C38.5646 12.3423 38.5853 12.3684 38.5943 12.3932C38.5943 12.3932 38.5929 12.4049 38.6046 12.4063L38.9792 12.9601C39.0432 12.92 39.1216 12.858 39.2131 12.7856L37.8438 10.7871C37.8761 10.8146 37.8865 10.8277 37.8955 10.8524Z" fill="white" stroke="#252525" stroke-width="0.971957" stroke-miterlimit="10"/>
<path d="M38.634 12.4568C38.6429 12.4816 38.6506 12.5181 38.6713 12.5442C38.6802 12.569 38.6996 12.6068 38.7086 12.6316C38.7176 12.6564 38.7279 12.6694 38.7265 12.6811C38.7369 12.6942 38.7341 12.7176 38.7445 12.7307C38.7535 12.7555 38.7611 12.792 38.7701 12.8167C38.7804 12.8298 38.7791 12.8415 38.7881 12.8663C38.7867 12.878 38.7984 12.8794 38.797 12.8911C38.806 12.9158 38.815 12.9406 38.824 12.9654C38.8226 12.9771 38.8343 12.9785 38.833 12.9902C38.833 12.9902 38.833 12.9902 38.8316 13.0019C38.8406 13.0266 38.8496 13.0514 38.8585 13.0762C38.8847 13.0555 38.9239 13.0245 38.9879 12.9844L38.6133 12.4307C38.625 12.432 38.6353 12.4451 38.634 12.4568Z" fill="white" stroke="#252525" stroke-width="0.971957" stroke-miterlimit="10"/>
<path d="M78.2197 28.6534L65.7643 10.3673C65.754 10.3542 65.7553 10.3426 65.7436 10.3412C65.6739 10.2263 65.5925 10.11 65.5215 10.0068L78.0065 28.3439C78.0893 28.4484 78.1486 28.5503 78.2197 28.6534Z" fill="white" stroke="#252525" stroke-width="0.971957" stroke-miterlimit="10"/>
<path d="M67.4095 16.9309L67.3809 17.1767C67.3578 17.3757 67.3243 17.5617 67.2894 17.7593C67.2655 17.8633 67.2532 17.9687 67.2278 18.0844C67.184 18.2573 67.1519 18.4315 67.108 18.6044C67.0841 18.7084 67.0601 18.8124 67.0244 18.9151C66.9792 19.0997 66.9223 19.2829 66.8551 19.453C66.8207 19.544 66.7982 19.6363 66.7638 19.7272C66.6767 19.9662 66.5896 20.2053 66.4907 20.4429C66.4763 20.465 66.4722 20.5001 66.4578 20.5222C66.3445 20.7819 66.2195 21.0403 66.0945 21.2986C66.0616 21.3779 66.017 21.4557 65.9723 21.5336C65.8803 21.7127 65.7896 21.8802 65.6975 22.0593C65.6502 22.1606 65.5925 22.2488 65.5334 22.3487C65.4441 22.5044 65.3561 22.6485 65.2551 22.8028C65.196 22.9027 65.1369 23.0027 65.0792 23.0909C64.994 23.2115 64.9204 23.3334 64.8366 23.4423C64.7067 23.6408 64.5665 23.8262 64.4366 24.0247C64.3658 24.1232 64.3081 24.2114 64.2387 24.2983C64.0565 24.5381 63.8757 24.7663 63.6949 24.9944C63.6819 25.0048 63.6674 25.0268 63.6544 25.0372C63.6399 25.0592 63.6269 25.0696 63.6124 25.0916C63.6111 25.1033 63.5993 25.102 63.5993 25.102C63.3924 25.3508 63.1855 25.5996 62.9682 25.8354C62.9015 25.8988 62.8451 25.9753 62.7901 26.0401C62.6396 26.2124 62.4904 26.3731 62.3295 26.5323C62.3033 26.553 62.2758 26.5854 62.2614 26.6075C62.2078 26.6606 62.1658 26.715 62.1122 26.7681C61.963 26.9287 61.8151 27.0776 61.6673 27.2266C61.5875 27.3003 61.5181 27.3872 61.4266 27.4596C61.2788 27.6085 61.1309 27.7574 60.9727 27.8933C60.9321 27.936 60.8785 27.9891 60.838 28.0319C60.8118 28.0526 60.7987 28.0629 60.7843 28.0849C60.5581 28.2959 60.3331 28.4952 60.1082 28.6945C60.0677 28.7372 60.0168 28.7669 59.9645 28.8083C59.7919 28.9662 59.6206 29.1124 59.4507 29.2469C59.4232 29.2793 59.3854 29.2986 59.3592 29.3193C59.3331 29.34 59.3187 29.362 59.2925 29.3827C59.0559 29.5806 58.8337 29.7565 58.6246 29.922L58.5201 30.0048C58.3254 30.1483 58.1542 30.2945 57.987 30.4055C57.9739 30.4159 57.9609 30.4262 57.9478 30.4366C57.9361 30.4352 57.9347 30.4469 57.923 30.4455C57.846 30.4959 57.7937 30.5373 57.7283 30.589C57.6891 30.62 57.6369 30.6614 57.5977 30.6925C57.5454 30.7338 57.5062 30.7649 57.4552 30.7945C57.4174 30.8139 57.3768 30.8566 57.339 30.8759C57.2998 30.907 57.262 30.9263 57.2358 30.947C57.2097 30.9677 57.1705 30.9987 57.1457 31.0077C57.1065 31.0387 57.0673 31.0698 57.0308 31.0774L28.8313 51.2312L20.2379 57.3745L8.82322 27.0829C8.38928 26.4272 0.17812 13.9862 15.7965 4.98184C20.0822 2.51405 23.6742 1.82844 26.6478 2.17437C31.5179 2.74094 34.6838 5.92136 36.5541 8.71375C36.5941 8.77773 36.6341 8.84171 36.6755 8.89399C36.7362 8.98411 36.8072 9.08731 36.8666 9.18914C36.8652 9.20085 36.877 9.2022 36.8756 9.21391L36.9673 9.34324C37.0177 9.42029 37.0667 9.50905 37.1157 9.59781C37.144 9.66043 37.1854 9.7127 37.2254 9.77669C37.2848 9.87852 37.3441 9.98034 37.4048 10.0705C37.4241 10.1083 37.4435 10.1462 37.4628 10.184C37.5118 10.2728 37.5608 10.3615 37.6112 10.4386C37.6291 10.4881 37.6602 10.5273 37.6781 10.5769C37.7271 10.6656 37.7644 10.753 37.8031 10.8287C37.8148 10.8301 37.8134 10.8418 37.8134 10.8418C37.8134 10.8418 37.8134 10.8418 37.8238 10.8549C37.8341 10.8679 37.8341 10.8679 37.8341 10.8679C37.8445 10.881 37.8445 10.881 37.8445 10.881C37.8562 10.8824 37.8548 10.8941 37.8548 10.8941C37.8638 10.9189 37.8845 10.945 37.8935 10.9698C37.9501 11.095 38.0198 11.2099 38.066 11.3221C38.0854 11.3599 38.0944 11.3847 38.1151 11.4108C38.1537 11.4865 38.191 11.5739 38.2297 11.6496C38.2387 11.6744 38.249 11.6875 38.258 11.7122C38.2953 11.7996 38.3326 11.887 38.3712 11.9627C38.3906 12.0006 38.3982 12.0371 38.4175 12.0749C38.4458 12.1375 38.4638 12.1871 38.4817 12.2366C38.5011 12.2745 38.5087 12.3109 38.528 12.3488C38.5473 12.3866 38.5536 12.4348 38.5729 12.4727C38.5833 12.4857 38.5819 12.4974 38.5819 12.4974C38.5909 12.5222 38.6102 12.5601 38.6192 12.5848C38.6372 12.6344 38.6551 12.6839 38.6745 12.7218C38.6834 12.7466 38.6938 12.7596 38.6925 12.7713C38.7104 12.8209 38.7297 12.8587 38.7374 12.8952C38.7477 12.9083 38.7463 12.92 38.7463 12.92C38.7553 12.9448 38.7657 12.9578 38.7629 12.9813C38.7602 13.0047 38.7719 13.006 38.7719 13.006C38.7706 13.0177 38.7706 13.0177 38.7809 13.0308C38.7926 13.0322 38.7926 13.0322 38.7913 13.0439C38.8002 13.0687 38.8092 13.0934 38.8196 13.1065C38.8457 13.0858 38.8849 13.0548 38.9489 13.0148C39.0142 12.963 39.0913 12.9127 39.1945 12.8416C39.2337 12.8106 39.2729 12.7795 39.3121 12.7485C39.3252 12.7382 39.3252 12.7382 39.3252 12.7382C41.5774 11.1254 50.758 4.93177 58.4847 5.83065C61.3061 6.15888 63.8581 7.4762 65.7134 10.3974C65.7238 10.4104 65.7224 10.4222 65.7341 10.4235C65.9356 10.7317 66.1123 11.0489 66.2772 11.3647C66.3352 11.4783 66.3801 11.6022 66.4381 11.7157C66.4858 11.8162 66.5334 11.9166 66.581 12.0171C66.6287 12.1176 66.6646 12.2167 66.7122 12.3171C66.7689 12.4424 66.8034 12.5532 66.838 12.664C66.9112 12.8505 66.9714 13.0473 67.0316 13.2442C67.0738 13.3915 67.1042 13.5374 67.1464 13.6847C67.1617 13.7577 67.19 13.8203 67.1935 13.8919C67.2088 13.9649 67.2254 14.0261 67.242 14.0874C67.2523 14.1005 67.2496 14.1239 67.2482 14.1356C67.2586 14.1486 67.2572 14.1603 67.2558 14.1721C67.285 14.3297 67.301 14.4977 67.3185 14.654C67.3359 14.8102 67.3664 14.9562 67.3838 15.1125C67.4145 15.4601 67.4335 15.8064 67.4292 16.15C67.4501 16.3779 67.4422 16.6499 67.4095 16.9309Z" fill="white" stroke="#252525" stroke-width="1.82804" stroke-miterlimit="10" stroke-linejoin="round"/>
<path d="M79.8964 35.2556L79.8678 35.5014C79.8542 35.6185 79.8288 35.7342 79.8152 35.8513C79.807 35.9215 79.7975 36.0035 79.7776 36.0724C79.7537 36.1764 79.74 36.2934 79.7161 36.3974C79.6722 36.5703 79.6401 36.7446 79.5963 36.9174C79.5723 37.0214 79.5483 37.1255 79.5126 37.2281C79.4674 37.4127 79.4105 37.5959 79.3433 37.7661C79.309 37.857 79.2864 37.9493 79.2521 38.0402C79.1649 38.2793 79.0778 38.5183 78.9789 38.756C78.9645 38.778 78.9604 38.8131 78.946 38.8352C78.8327 39.0949 78.7078 39.3533 78.5828 39.6117C78.5498 39.6909 78.5051 39.7687 78.4605 39.8466C78.3685 40.0258 78.2778 40.1932 78.1858 40.3723C78.1384 40.4736 78.0807 40.5618 78.0216 40.6617C77.9323 40.8175 77.8443 40.9615 77.7433 41.1158C77.6842 41.2158 77.6251 41.3157 77.5674 41.4039C77.5241 41.47 77.4822 41.5245 77.4389 41.5906C77.4073 41.6582 77.3654 41.7126 77.3352 41.7684C77.1936 41.9655 77.0651 42.1523 76.9235 42.3494C76.8527 42.448 76.7963 42.5245 76.7255 42.623C76.5433 42.8629 76.3626 43.091 76.1818 43.3191C76.1543 43.3515 76.1385 43.3853 76.0993 43.4163C76.0979 43.4281 76.0862 43.4267 76.0848 43.4384C75.8779 43.6872 75.671 43.9361 75.4537 44.1718C75.387 44.2353 75.3306 44.3118 75.2756 44.3766C75.1251 44.5489 74.9759 44.7095 74.815 44.8688C74.7875 44.9012 74.773 44.9232 74.7469 44.9439C74.6932 44.997 74.6396 45.0501 74.5977 45.1045C74.4485 45.2652 74.3006 45.4141 74.1528 45.563C74.073 45.6368 74.0036 45.7236 73.9238 45.7974C73.776 45.9463 73.6164 46.0939 73.4699 46.2311C73.4294 46.2738 73.3757 46.3269 73.3351 46.3697C73.3221 46.38 73.2959 46.4007 73.2815 46.4227C73.0552 46.6337 72.8304 46.833 72.6055 47.0323C72.5649 47.075 72.514 47.1047 72.4617 47.1461C72.2891 47.304 72.1178 47.4502 71.9479 47.5847L71.8564 47.6571C71.8303 47.6778 71.8158 47.6998 71.7897 47.7205C71.5531 47.9184 71.331 48.0943 71.1219 48.2598C71.0826 48.2909 71.0565 48.3115 71.0173 48.3426C70.8226 48.486 70.6513 48.6322 70.4842 48.7433C70.4711 48.7537 70.458 48.764 70.445 48.7743C70.4333 48.773 70.4319 48.7847 70.4202 48.7833C70.3432 48.8337 70.2895 48.8868 70.2255 48.9268C70.1863 48.9578 70.134 48.9992 70.0948 49.0303C70.0439 49.0599 70.0034 49.1027 69.9525 49.1323C69.9146 49.1517 69.874 49.1944 69.8362 49.2137C69.797 49.2448 69.7591 49.2641 69.733 49.2848C69.7069 49.3055 69.6676 49.3365 69.6429 49.3455C69.6037 49.3765 69.5645 49.4076 69.528 49.4152L32.7351 75.7123L20.2501 57.3752L28.8434 51.2319L57.0429 31.0781C57.0677 31.0692 57.1069 31.0381 57.1578 31.0085C57.1826 30.9995 57.2204 30.9802 57.2479 30.9478C57.2741 30.9271 57.3119 30.9077 57.3512 30.8767C57.3773 30.856 57.4296 30.8146 57.4674 30.7953C57.5183 30.7656 57.5575 30.7346 57.6098 30.6932C57.649 30.6622 57.6999 30.6325 57.7405 30.5898C57.8058 30.538 57.8581 30.4966 57.9351 30.4463C57.9482 30.4359 57.9482 30.436 57.9599 30.4373C57.973 30.427 57.9861 30.4166 57.9992 30.4063C58.1663 30.2952 58.3376 30.149 58.5323 30.0055L58.6368 29.9228C58.8459 29.7573 59.0564 29.58 59.3047 29.3835C59.3308 29.3628 59.3439 29.3524 59.3714 29.32C59.3975 29.2993 59.4367 29.2683 59.4629 29.2476C59.6328 29.1131 59.804 28.9669 59.9766 28.809C60.0289 28.7677 60.0681 28.7366 60.1204 28.6952C60.3453 28.496 60.5702 28.2967 60.7965 28.0857C60.8109 28.0636 60.8239 28.0533 60.8501 28.0326C60.8907 27.9899 60.9443 27.9368 60.9849 27.894C61.1313 27.7568 61.2909 27.6093 61.4387 27.4603C61.5185 27.3866 61.5983 27.3128 61.6794 27.2273C61.8273 27.0784 61.9751 26.9295 62.1243 26.7689C62.178 26.7158 62.2199 26.6613 62.2735 26.6082C62.288 26.5862 62.3155 26.5538 62.3416 26.5331C62.4908 26.3725 62.64 26.2118 62.8023 26.0409C62.8573 25.9761 62.9254 25.9009 62.9804 25.8361C63.186 25.599 63.4046 25.3515 63.6115 25.1027C63.6129 25.091 63.6246 25.0924 63.6246 25.0924C63.639 25.0703 63.6521 25.06 63.6665 25.0379C63.6796 25.0276 63.694 25.0055 63.7071 24.9952C63.8879 24.767 64.0687 24.5389 64.2508 24.299C64.3216 24.2005 64.3793 24.1123 64.4488 24.0254C64.5904 23.8283 64.7189 23.6416 64.8487 23.4431C64.8907 23.3886 64.9326 23.3342 64.9745 23.2797C65.0178 23.2136 65.0598 23.1591 65.103 23.093C65.1621 22.9931 65.2199 22.9048 65.2789 22.8049C65.38 22.6506 65.4679 22.5066 65.5572 22.3508C65.6046 22.2496 65.6623 22.1613 65.7214 22.0614C65.8121 21.894 65.9158 21.7162 65.9961 21.5357C66.0408 21.4578 66.0854 21.38 66.1184 21.3008C66.2434 21.0424 66.3684 20.784 66.4816 20.5243C66.4961 20.5022 66.5001 20.4671 66.5146 20.4451C66.6134 20.2074 66.7006 19.9684 66.7877 19.7293C66.822 19.6384 66.8446 19.5461 66.8789 19.4552C66.9345 19.2836 66.9914 19.1004 67.0483 18.9172C67.084 18.8145 67.1079 18.7105 67.1319 18.6065C67.1757 18.4336 67.2079 18.2594 67.2517 18.0865C67.2771 17.9708 67.2893 17.8655 67.3133 17.7615C67.3331 17.6926 67.3427 17.6106 67.3495 17.5521C67.3762 17.4247 67.3898 17.3076 67.4034 17.1905L67.432 16.9447C67.4517 16.6741 67.4713 16.4034 67.4792 16.1315L67.4688 16.1184C67.4718 15.7865 67.4645 15.4415 67.4234 15.0808C67.4144 15.056 67.4172 15.0326 67.4199 15.0092C67.4101 14.8894 67.3782 14.7552 67.3567 14.634C67.3393 14.4777 67.3233 14.3098 67.2941 14.1521C67.2838 14.1391 67.2851 14.1274 67.2865 14.1156C67.2879 14.1039 67.2789 14.0792 67.2803 14.0674C67.265 13.9945 67.2484 13.9332 67.2318 13.872C67.2166 13.799 67.2 13.7377 67.1847 13.6648C67.1425 13.5175 67.112 13.3715 67.0698 13.2242C67.0609 13.1995 67.0519 13.1747 67.0546 13.1513C67.0034 12.9792 66.9392 12.8175 66.8749 12.6558C66.83 12.5319 66.7955 12.4211 66.7492 12.3089C66.7388 12.2958 66.7416 12.2724 66.7312 12.2593C66.7056 12.1733 66.667 12.0976 66.618 12.0089C66.5703 11.9084 66.5227 11.8079 66.4751 11.7075C66.4171 11.5939 66.3721 11.47 66.3142 11.3565C66.1492 11.0407 65.9725 10.7235 65.7711 10.4153L78.2264 28.7014C78.2368 28.7145 78.2471 28.7276 78.2561 28.7523C78.4472 29.0475 78.6032 29.3385 78.7592 29.6296C78.7682 29.6544 78.7785 29.6674 78.7875 29.6922C78.8455 29.8057 78.8904 29.9296 78.9484 30.0432C79.0347 30.2193 79.121 30.3955 79.1956 30.5703C79.2046 30.595 79.2135 30.6198 79.2225 30.6446C79.2674 30.7685 79.302 30.8793 79.3483 30.9914C79.4008 31.1518 79.465 31.3135 79.5059 31.4725C79.5135 31.509 79.5342 31.5352 79.5418 31.5716C79.584 31.7189 79.6145 31.8649 79.6567 32.0122C79.6886 32.1464 79.7204 32.2806 79.7419 32.4018C79.7495 32.4382 79.7571 32.4747 79.7647 32.5112C79.7939 32.6689 79.8099 32.8368 79.8391 32.9945C79.8489 33.1143 79.8703 33.2354 79.8801 33.3552C79.8877 33.3917 79.885 33.4151 79.894 33.4399C79.9248 33.7876 79.9438 34.1339 79.9408 34.4658L79.9511 34.4788C79.9356 34.7143 79.9277 34.9863 79.8964 35.2556Z" fill="white" stroke="#252525" stroke-width="1.82804" stroke-miterlimit="10" stroke-linejoin="round"/>
</svg>
